  0
SECTION
  2
HEADER
  9
$ACADVER
  1
AC1009
  9
$DWGCODEPAGE
  3
ansi_1252
  9
$INSBASE
 10
0.0
 20
0.0
 30
0.0
  9
$EXTMIN
 10
1.0
 20
1.0
 30
0.0
  9
$EXTMAX
 10
95.0
 20
33.25000000000011
 30
0.0
  9
$LIMMIN
 10
0.0
 20
0.0
  9
$LIMMAX
 10
12.0
 20
9.0
  9
$ORTHOMODE
 70
     0
  9
$REGENMODE
 70
     1
  9
$FILLMODE
 70
     1
  9
$QTEXTMODE
 70
     0
  9
$MIRRTEXT
 70
     1
  9
$DRAGMODE
 70
     2
  9
$LTSCALE
 40
1.0
  9
$OSMODE
 70
    37
  9
$ATTMODE
 70
     1
  9
$TEXTSIZE
 40
0.2
  9
$TRACEWID
 40
0.05
  9
$TEXTSTYLE
  7
STANDARD
  9
$CLAYER
  8
0
  9
$CELTYPE
  6
BYLAYER
  9
$CECOLOR
 62
   256
  9
$DIMSCALE
 40
1.0
  9
$DIMASZ
 40
0.18
  9
$DIMEXO
 40
0.0625
  9
$DIMDLI
 40
0.38
  9
$DIMRND
 40
0.0
  9
$DIMDLE
 40
0.0
  9
$DIMEXE
 40
0.18
  9
$DIMTP
 40
0.0
  9
$DIMTM
 40
0.0
  9
$DIMTXT
 40
0.18
  9
$DIMCEN
 40
0.09
  9
$DIMTSZ
 40
0.0
  9
$DIMTOL
 70
     0
  9
$DIMLIM
 70
     0
  9
$DIMTIH
 70
     1
  9
$DIMTOH
 70
     1
  9
$DIMSE1
 70
     0
  9
$DIMSE2
 70
     0
  9
$DIMTAD
 70
     0
  9
$DIMZIN
 70
     0
  9
$DIMBLK
  1

  9
$DIMASO
 70
     1
  9
$DIMSHO
 70
     1
  9
$DIMPOST
  1

  9
$DIMAPOST
  1

  9
$DIMALT
 70
     0
  9
$DIMALTD
 70
     2
  9
$DIMALTF
 40
25.4
  9
$DIMLFAC
 40
1.0
  9
$DIMTOFL
 70
     0
  9
$DIMTVP
 40
0.0
  9
$DIMTIX
 70
     0
  9
$DIMSOXD
 70
     0
  9
$DIMSAH
 70
     0
  9
$DIMBLK1
  1

  9
$DIMBLK2
  1

  9
$DIMSTYLE
  2
STANDARD
  9
$DIMCLRD
 70
     0
  9
$DIMCLRE
 70
     0
  9
$DIMCLRT
 70
     0
  9
$DIMTFAC
 40
1.0
  9
$DIMGAP
 40
0.09
  9
$LUNITS
 70
     2
  9
$LUPREC
 70
     4
  9
$SKETCHINC
 40
0.1
  9
$FILLETRAD
 40
0.5
  9
$AUNITS
 70
     0
  9
$AUPREC
 70
     0
  9
$MENU
  1
.
  9
$ELEVATION
 40
0.0
  9
$PELEVATION
 40
0.0
  9
$THICKNESS
 40
0.0
  9
$LIMCHECK
 70
     0
  9
$CHAMFERA
 40
0.5
  9
$CHAMFERB
 40
0.5
  9
$SKPOLY
 70
     0
  9
$TDCREATE
 40
2454910.5
  9
$TDUPDATE
 40
2455941.593428276
  9
$TDINDWG
 40
0.0000000116
  9
$TDUSRTIMER
 40
0.0000000116
  9
$USRTIMER
 70
     1
  9
$ANGBASE
 50
0.0
  9
$ANGDIR
 70
     0
  9
$PDMODE
 70
     0
  9
$PDSIZE
 40
0.0
  9
$PLINEWID
 40
0.0
  9
$COORDS
 70
     1
  9
$SPLFRAME
 70
     0
  9
$SPLINETYPE
 70
     6
  9
$SPLINESEGS
 70
     8
  9
$ATTDIA
 70
     0
  9
$ATTREQ
 70
     1
  9
$HANDLING
 70
     1
  9
$HANDSEED
  5
8F3
  9
$SURFTAB1
 70
     6
  9
$SURFTAB2
 70
     6
  9
$SURFTYPE
 70
     6
  9
$SURFU
 70
     6
  9
$SURFV
 70
     6
  9
$UCSNAME
  2

  9
$UCSORG
 10
0.0
 20
0.0
 30
0.0
  9
$UCSXDIR
 10
1.0
 20
0.0
 30
0.0
  9
$UCSYDIR
 10
0.0
 20
1.0
 30
0.0
  9
$PUCSNAME
  2

  9
$PUCSORG
 10
0.0
 20
0.0
 30
0.0
  9
$PUCSXDIR
 10
1.0
 20
0.0
 30
0.0
  9
$PUCSYDIR
 10
0.0
 20
1.0
 30
0.0
  9
$USERI1
 70
     0
  9
$USERI2
 70
     0
  9
$USERI3
 70
     0
  9
$USERI4
 70
     0
  9
$USERI5
 70
     0
  9
$USERR1
 40
0.0
  9
$USERR2
 40
0.0
  9
$USERR3
 40
0.0
  9
$USERR4
 40
0.0
  9
$USERR5
 40
0.0
  9
$WORLDVIEW
 70
     1
  9
$SHADEDGE
 70
     3
  9
$SHADEDIF
 70
    70
  9
$TILEMODE
 70
     1
  9
$MAXACTVP
 70
    64
  9
$PLIMCHECK
 70
     0
  9
$PEXTMIN
 10
1.000000000000000E+20
 20
1.000000000000000E+20
 30
1.000000000000000E+20
  9
$PEXTMAX
 10
-1.000000000000000E+20
 20
-1.000000000000000E+20
 30
-1.000000000000000E+20
  9
$PLIMMIN
 10
0.0
 20
0.0
  9
$PLIMMAX
 10
12.0
 20
9.0
  9
$UNITMODE
 70
     0
  9
$VISRETAIN
 70
     1
  9
$PLINEGEN
 70
     0
  9
$PSLTSCALE
 70
     1
  0
ENDSEC
  0
SECTION
  2
TABLES
  0
TABLE
  2
VPORT
 70
     1
  0
VPORT
  2
*ACTIVE
 70
     0
 10
0.0
 20
0.0
 11
1.0
 21
1.0
 12
10.42990654205607
 22
4.5
 13
0.0
 23
0.0
 14
0.5
 24
0.5
 15
0.5
 25
0.5
 16
0.0
 26
0.0
 36
1.0
 17
0.0
 27
0.0
 37
0.0
 40
9.0
 41
1.972972972850329
 42
50.0
 43
0.0
 44
0.0
 50
0.0
 51
0.0
 71
     0
 72
   100
 73
     1
 74
     3
 75
     0
 76
     0
 77
     0
 78
     0
  0
ENDTAB
  0
TABLE
  2
LTYPE
 70
     2
  0
LTYPE
  2
CONTINUOUS
 70
     0
  3
Solid line
 72
    65
 73
     0
 40
0.0
  0
LTYPE
  2
CONTINUOUS2
 70
     0
  3
Solid Line
 72
    65
 73
     0
 40
0.0
  0
ENDTAB
  0
TABLE
  2
LAYER
 70
     2
  0
LAYER
  2
0
 70
     0
 62
     7
  6
CONTINUOUS
  0
LAYER
  2
A-FRAME
 70
     0
 62
    18
  6
CONTINUOUS
  0
ENDTAB
  0
TABLE
  2
STYLE
 70
     1
  0
STYLE
  2
STANDARD
 70
     0
 40
0.0
 41
1.0
 50
0.0
 71
     0
 42
0.2
  3
txt
  4

  0
ENDTAB
  0
TABLE
  2
VIEW
 70
     0
  0
ENDTAB
  0
TABLE
  2
UCS
 70
     0
  0
ENDTAB
  0
TABLE
  2
APPID
 70
     1
  0
APPID
  2
ACAD
 70
     0
  0
ENDTAB
  0
TABLE
  2
DIMSTYLE
 70
     1
  0
DIMSTYLE
  2
STANDARD
 70
     0
  3

  4

  5

  6

  7

 40
1.0
 41
0.18
 42
0.0625
 43
0.38
 44
0.18
 45
0.0
 46
0.0
 47
0.0
 48
0.0
140
0.18
141
0.09
142
0.0
143
25.4
144
1.0
145
0.0
146
1.0
147
0.09
 71
     0
 72
     0
 73
     1
 74
     1
 75
     0
 76
     0
 77
     0
 78
     0
170
     0
171
     2
172
     0
173
     0
174
     0
175
     0
176
     0
177
     0
178
     0
  0
ENDTAB
  0
ENDSEC
  0
SECTION
  2
BLOCKS
  0
BLOCK
  8
0
  2
$MODEL_SPACE
 70
     0
 10
0.0
 20
0.0
 30
0.0
  3
$MODEL_SPACE
  1

  0
ENDBLK
  5
21
  8
0
  0
BLOCK
 67
     1
  8
0
  2
$PAPER_SPACE
 70
     0
 10
0.0
 20
0.0
 30
0.0
  3
$PAPER_SPACE
  1

  0
ENDBLK
  5
1D
 67
     1
  8
0
  0
ENDSEC
  0
SECTION
  2
ENTITIES
  0
POLYLINE
  5
41
  8
A-FRAME
 66
     1
 10
0.0
 20
0.0
 30
0.0
 70
     1
  0
VERTEX
  5
51
  8
A-FRAME
 10
48.16354722222239
 20
23.78212500000007
 30
0.0
  0
VERTEX
  5
52
  8
A-FRAME
 10
48.232953052097
 20
23.80406359812423
 30
0.0
  0
VERTEX
  5
53
  8
A-FRAME
 10
48.29951210340738
 20
23.82561065348307
 30
0.0
  0
VERTEX
  5
54
  8
A-FRAME
 10
48.36301015618261
 20
23.84662868255623
 30
0.0
  0
VERTEX
  5
55
  8
A-FRAME
 10
48.42323299045171
 20
23.86698020182291
 30
0.0
  0
VERTEX
  5
56
  8
A-FRAME
 10
48.47996638624414
 20
23.88652772776288
 30
0.0
  0
VERTEX
  5
57
  8
A-FRAME
 10
48.53299612358938
 20
23.90513377685557
 30
0.0
  0
VERTEX
  5
58
  8
A-FRAME
 10
48.62708774305571
 20
23.93897151041677
 30
0.0
  0
VERTEX
  5
59
  8
A-FRAME
 10
48.70379408908417
 20
23.96739353434248
 30
0.0
  0
VERTEX
  5
5A
  8
A-FRAME
 10
48.76140140191006
 20
23.98929998046879
 30
0.0
  0
VERTEX
  5
5B
  8
A-FRAME
 10
48.812463888889
 20
24.00916666666672
 30
0.0
  0
VERTEX
  5
5C
  8
A-FRAME
 10
49.79113055555587
 20
24.00916666666672
 30
0.0
  0
VERTEX
  5
5D
  8
A-FRAME
 10
49.20303333333373
 20
20.984375
 30
0.0
  0
VERTEX
  5
5E
  8
A-FRAME
 10
49.92585277777793
 20
20.84409722222222
 30
0.0
  0
VERTEX
  5
5F
  8
A-FRAME
 10
50.54113055555585
 20
24.00916666666672
 30
0.0
  0
VERTEX
  5
60
  8
A-FRAME
 10
51.66028333333366
 20
24.00916666666672
 30
0.0
  0
VERTEX
  5
61
  8
A-FRAME
 10
51.66070320011391
 20
23.96007338286779
 30
0.0
  0
VERTEX
  5
62
  8
A-FRAME
 10
51.66174092073476
 20
23.91112935013246
 30
0.0
  0
VERTEX
  5
63
  8
A-FRAME
 10
51.66339277717685
 20
23.86233829645323
 30
0.0
  0
VERTEX
  5
64
  8
A-FRAME
 10
51.66565505142222
 20
23.81370394982241
 30
0.0
  0
VERTEX
  5
65
  8
A-FRAME
 10
51.66852402545241
 20
23.76523003823229
 30
0.0
  0
VERTEX
  5
66
  8
A-FRAME
 10
51.67199598124858
 20
23.71692028967539
 30
0.0
  0
VERTEX
  5
67
  8
A-FRAME
 10
51.67606720079226
 20
23.66877843214411
 30
0.0
  0
VERTEX
  5
68
  8
A-FRAME
 10
51.68073396606456
 20
23.62080819363064
 30
0.0
  0
VERTEX
  5
69
  8
A-FRAME
 10
51.68599255904752
 20
23.57301330212761
 30
0.0
  0
VERTEX
  5
6A
  8
A-FRAME
 10
51.69183926172269
 20
23.52539748562709
 30
0.0
  0
VERTEX
  5
6B
  8
A-FRAME
 10
51.69827035607119
 20
23.4779644721217
 30
0.0
  0
VERTEX
  5
6C
  8
A-FRAME
 10
51.70528212407458
 20
23.43071798960375
 30
0.0
  0
VERTEX
  5
6D
  8
A-FRAME
 10
51.71287084771399
 20
23.38366176606553
 30
0.0
  0
VERTEX
  5
6E
  8
A-FRAME
 10
51.72103280897141
 20
23.33679952949956
 30
0.0
  0
VERTEX
  5
6F
  8
A-FRAME
 10
51.72976428982844
 20
23.29013500789802
 30
0.0
  0
VERTEX
  5
70
  8
A-FRAME
 10
51.73906157226571
 20
23.24367192925354
 30
0.0
  0
VERTEX
  5
71
  8
A-FRAME
 10
51.74892093826571
 20
23.19741402155831
 30
0.0
  0
VERTEX
  5
72
  8
A-FRAME
 10
51.75933866980909
 20
23.15136501280472
 30
0.0
  0
VERTEX
  5
73
  8
A-FRAME
 10
51.77031104887743
 20
23.10552863098519
 30
0.0
  0
VERTEX
  5
74
  8
A-FRAME
 10
51.78183435745274
 20
23.05990860409213
 30
0.0
  0
VERTEX
  5
75
  8
A-FRAME
 10
51.79390487751567
 20
23.01450866011783
 30
0.0
  0
VERTEX
  5
76
  8
A-FRAME
 10
51.80651889104871
 20
22.96933252705469
 30
0.0
  0
VERTEX
  5
77
  8
A-FRAME
 10
51.81967268003251
 20
22.92438393289513
 30
0.0
  0
VERTEX
  5
78
  8
A-FRAME
 10
51.83336252644864
 20
22.87966660563154
 30
0.0
  0
VERTEX
  5
79
  8
A-FRAME
 10
51.84758471227911
 20
22.83518427325623
 30
0.0
  0
VERTEX
  5
7A
  8
A-FRAME
 10
51.86233551950458
 20
22.7909406637616
 30
0.0
  0
VERTEX
  5
7B
  8
A-FRAME
 10
51.87761123010756
 20
22.74693950514006
 30
0.0
  0
VERTEX
  5
7C
  8
A-FRAME
 10
51.89340812606821
 20
22.7031845253839
 30
0.0
  0
VERTEX
  5
7D
  8
A-FRAME
 10
51.90972248936902
 20
22.65967945248554
 30
0.0
  0
VERTEX
  5
7E
  8
A-FRAME
 10
51.92655060199109
 20
22.61642801443737
 30
0.0
  0
VERTEX
  5
7F
  8
A-FRAME
 10
51.94388874591601
 20
22.57343393923179
 30
0.0
  0
VERTEX
  5
80
  8
A-FRAME
 10
51.96173320312533
 20
22.53070095486112
 30
0.0
  0
VERTEX
  5
81
  8
A-FRAME
 10
51.98008025560017
 20
22.48823278931786
 30
0.0
  0
VERTEX
  5
82
  8
A-FRAME
 10
51.99892618532209
 20
22.44603317059421
 30
0.0
  0
VERTEX
  5
83
  8
A-FRAME
 10
52.01826727427266
 20
22.40410582668256
 30
0.0
  0
VERTEX
  5
84
  8
A-FRAME
 10
52.03809980443344
 20
22.36245448557543
 30
0.0
  0
VERTEX
  5
85
  8
A-FRAME
 10
52.05842005778555
 20
22.32108287526501
 30
0.0
  0
VERTEX
  5
86
  8
A-FRAME
 10
52.07922431631101
 20
22.27999472374393
 30
0.0
  0
VERTEX
  5
87
  8
A-FRAME
 10
52.10050886199093
 20
22.23919375900437
 30
0.0
  0
VERTEX
  5
88
  8
A-FRAME
 10
52.12226997680687
 20
22.19868370903862
 30
0.0
  0
VERTEX
  5
89
  8
A-FRAME
 10
52.14450394273996
 20
22.15846830183932
 30
0.0
  0
VERTEX
  5
8A
  8
A-FRAME
 10
52.1672070417722
 20
22.11855126539865
 30
0.0
  0
VERTEX
  5
8B
  8
A-FRAME
 10
52.19037555588515
 20
22.07893632770913
 30
0.0
  0
VERTEX
  5
8C
  8
A-FRAME
 10
52.21400576705952
 20
22.03962721676305
 30
0.0
  0
VERTEX
  5
8D
  8
A-FRAME
 10
52.23809395727727
 20
22.00062766055271
 30
0.0
  0
VERTEX
  5
8E
  8
A-FRAME
 10
52.26263640851999
 20
21.96194138707063
 30
0.0
  0
VERTEX
  5
8F
  8
A-FRAME
 10
52.2876294027688
 20
21.92357212430909
 30
0.0
  0
VERTEX
  5
90
  8
A-FRAME
 10
52.31306922200525
 20
21.88552360026051
 30
0.0
  0
VERTEX
  5
91
  8
A-FRAME
 10
52.33895214821138
 20
21.84779954291719
 30
0.0
  0
VERTEX
  5
92
  8
A-FRAME
 10
52.36527446336782
 20
21.81040368027164
 30
0.0
  0
VERTEX
  5
93
  8
A-FRAME
 10
52.39203244945615
 20
21.77333974031615
 30
0.0
  0
VERTEX
  5
94
  8
A-FRAME
 10
52.41922238845842
 20
21.73661145104302
 30
0.0
  0
VERTEX
  5
95
  8
A-FRAME
 10
52.4468405623557
 20
21.70022254044489
 30
0.0
  0
VERTEX
  5
96
  8
A-FRAME
 10
52.47488325312957
 20
21.66417673651381
 30
0.0
  0
VERTEX
  5
97
  8
A-FRAME
 10
52.50334674276115
 20
21.62847776724232
 30
0.0
  0
VERTEX
  5
98
  8
A-FRAME
 10
52.53222731323245
 20
21.59312936062293
 30
0.0
  0
VERTEX
  5
99
  8
A-FRAME
 10
52.56152124652504
 20
21.55813524464771
 30
0.0
  0
VERTEX
  5
9A
  8
A-FRAME
 10
52.59122482461957
 20
21.52349914730929
 30
0.0
  0
VERTEX
  5
9B
  8
A-FRAME
 10
52.6213343294981
 20
21.48922479659985
 30
0.0
  0
VERTEX
  5
9C
  8
A-FRAME
 10
52.65184604314167
 20
21.45531592051191
 30
0.0
  0
VERTEX
  5
9D
  8
A-FRAME
 10
52.68275624753238
 20
21.42177624703789
 30
0.0
  0
VERTEX
  5
9E
  8
A-FRAME
 10
52.71406122465174
 20
21.38860950416995
 30
0.0
  0
VERTEX
  5
9F
  8
A-FRAME
 10
52.74575725648043
 20
21.35581941990063
 30
0.0
  0
VERTEX
  5
A0
  8
A-FRAME
 10
52.77784062500001
 20
21.32340972222233
 30
0.0
  0
VERTEX
  5
A1
  8
A-FRAME
 10
52.81030761219294
 20
21.29138413912722
 30
0.0
  0
VERTEX
  5
A2
  8
A-FRAME
 10
52.84315450003947
 20
21.25974639860795
 30
0.0
  0
VERTEX
  5
A3
  8
A-FRAME
 10
52.87637757052204
 20
21.22850022865669
 30
0.0
  0
VERTEX
  5
A4
  8
A-FRAME
 10
52.90997310562176
 20
21.19764935726596
 30
0.0
  0
VERTEX
  5
A5
  8
A-FRAME
 10
52.94393738731975
 20
21.16719751242807
 30
0.0
  0
VERTEX
  5
A6
  8
A-FRAME
 10
52.97826669759757
 20
21.13714842213529
 30
0.0
  0
VERTEX
  5
A7
  8
A-FRAME
 10
53.01295731843726
 20
21.10750581438015
 30
0.0
  0
VERTEX
  5
A8
  8
A-FRAME
 10
53.04800553181991
 20
21.07827341715495
 30
0.0
  0
VERTEX
  5
A9
  8
A-FRAME
 10
53.08340761972664
 20
21.0494549584522
 30
0.0
  0
VERTEX
  5
AA
  8
A-FRAME
 10
53.11915986413993
 20
21.0210541662641
 30
0.0
  0
VERTEX
  5
AB
  8
A-FRAME
 10
53.15525854703998
 20
20.99307476858303
 30
0.0
  0
VERTEX
  5
AC
  8
A-FRAME
 10
53.19169995040926
 20
20.96552049340142
 30
0.0
  0
VERTEX
  5
AD
  8
A-FRAME
 10
53.22848035622843
 20
20.93839506871177
 30
0.0
  0
VERTEX
  5
AE
  8
A-FRAME
 10
53.26559604647952
 20
20.91170222250628
 30
0.0
  0
VERTEX
  5
AF
  8
A-FRAME
 10
53.30304330314408
 20
20.88544568277735
 30
0.0
  0
VERTEX
  5
B0
  8
A-FRAME
 10
53.34081840820323
 20
20.85962917751738
 30
0.0
  0
VERTEX
  5
B1
  8
A-FRAME
 10
53.37891764363854
 20
20.83425643471879
 30
0.0
  0
VERTEX
  5
B2
  8
A-FRAME
 10
53.41733729143158
 20
20.80933118237397
 30
0.0
  0
VERTEX
  5
B3
  8
A-FRAME
 10
53.4560736335639
 20
20.78485714847512
 30
0.0
  0
VERTEX
  5
B4
  8
A-FRAME
 10
53.49512295201617
 20
20.76083806101485
 30
0.0
  0
VERTEX
  5
B5
  8
A-FRAME
 10
53.53448152877132
 20
20.73727764798537
 30
0.0
  0
VERTEX
  5
B6
  8
A-FRAME
 10
53.57414564580955
 20
20.71417963737918
 30
0.0
  0
VERTEX
  5
B7
  8
A-FRAME
 10
53.61411158511243
 20
20.69154775718858
 30
0.0
  0
VERTEX
  5
B8
  8
A-FRAME
 10
53.65437562866242
 20
20.66938573540586
 30
0.0
  0
VERTEX
  5
B9
  8
A-FRAME
 10
53.69493405843974
 20
20.64769730002354
 30
0.0
  0
VERTEX
  5
BA
  8
A-FRAME
 10
53.73578315642686
 20
20.62648617903392
 30
0.0
  0
VERTEX
  5
BB
  8
A-FRAME
 10
53.77691920460489
 20
20.60575610042952
 30
0.0
  0
VERTEX
  5
BC
  8
A-FRAME
 10
53.81833848495495
 20
20.58551079220251
 30
0.0
  0
VERTEX
  5
BD
  8
A-FRAME
 10
53.86003727945905
 20
20.56575398234532
 30
0.0
  0
VERTEX
  5
BE
  8
A-FRAME
 10
53.9020118700983
 20
20.54648939885033
 30
0.0
  0
VERTEX
  5
BF
  8
A-FRAME
 10
53.94425853885428
 20
20.52772076971007
 30
0.0
  0
VERTEX
  5
C0
  8
A-FRAME
 10
53.98677356770855
 20
20.50945182291673
 30
0.0
  0
VERTEX
  5
C1
  8
A-FRAME
 10
54.02955323864222
 20
20.49168628646271
 30
0.0
  0
VERTEX
  5
C2
  8
A-FRAME
 10
54.07259383363731
 20
20.47442788834042
 30
0.0
  0
VERTEX
  5
C3
  8
A-FRAME
 10
54.11589163467494
 20
20.45768035654237
 30
0.0
  0
VERTEX
  5
C4
  8
A-FRAME
 10
54.15944292373666
 20
20.44144741906064
 30
0.0
  0
VERTEX
  5
C5
  8
A-FRAME
 10
54.20324398280405
 20
20.42573280388786
 30
0.0
  0
VERTEX
  5
C6
  8
A-FRAME
 10
54.24729109385822
 20
20.41054023901632
 30
0.0
  0
VERTEX
  5
C7
  8
A-FRAME
 10
54.29158053888119
 20
20.39587345243831
 30
0.0
  0
VERTEX
  5
C8
  8
A-FRAME
 10
54.33610859985362
 20
20.38173617214636
 30
0.0
  0
VERTEX
  5
C9
  8
A-FRAME
 10
54.38087155875797
 20
20.36813212613265
 30
0.0
  0
VERTEX
  5
CA
  8
A-FRAME
 10
54.42586569757492
 20
20.35506504238981
 30
0.0
  0
VERTEX
  5
CB
  8
A-FRAME
 10
54.47108729828602
 20
20.34253864891003
 30
0.0
  0
VERTEX
  5
CC
  8
A-FRAME
 10
54.5165326428733
 20
20.33055667368581
 30
0.0
  0
VERTEX
  5
CD
  8
A-FRAME
 10
54.56219801331785
 20
20.31912284470934
 30
0.0
  0
VERTEX
  5
CE
  8
A-FRAME
 10
54.60807969160084
 20
20.30824088997315
 30
0.0
  0
VERTEX
  5
CF
  8
A-FRAME
 10
54.65417395970422
 20
20.29791453746964
 30
0.0
  0
VERTEX
  5
D0
  8
A-FRAME
 10
54.7004770996096
 20
20.28814751519099
 30
0.0
  0
VERTEX
  5
D1
  8
A-FRAME
 10
54.74698539329807
 20
20.27894355112983
 30
0.0
  0
VERTEX
  5
D2
  8
A-FRAME
 10
54.79369512275076
 20
20.27030637327835
 30
0.0
  0
VERTEX
  5
D3
  8
A-FRAME
 10
54.84060256994968
 20
20.26223970962895
 30
0.0
  0
VERTEX
  5
D4
  8
A-FRAME
 10
54.8877040168764
 20
20.25474728817415
 30
0.0
  0
VERTEX
  5
D5
  8
A-FRAME
 10
54.93499574551202
 20
20.24783283690613
 30
0.0
  0
VERTEX
  5
D6
  8
A-FRAME
 10
54.98247403783813
 20
20.24150008381742
 30
0.0
  0
VERTEX
  5
D7
  8
A-FRAME
 10
55.03013517583626
 20
20.2357527569003
 30
0.0
  0
VERTEX
  5
D8
  8
A-FRAME
 10
55.07797544148803
 20
20.23059458414719
 30
0.0
  0
VERTEX
  5
D9
  8
A-FRAME
 10
55.12599111677406
 20
20.22602929355049
 30
0.0
  0
VERTEX
  5
DA
  8
A-FRAME
 10
55.17417848367728
 20
20.22206061310238
 30
0.0
  0
VERTEX
  5
DB
  8
A-FRAME
 10
55.2225338241779
 20
20.2186922707956
 30
0.0
  0
VERTEX
  5
DC
  8
A-FRAME
 10
55.27105342025794
 20
20.21592799462212
 30
0.0
  0
VERTEX
  5
DD
  8
A-FRAME
 10
55.31973355389851
 20
20.21377151257468
 30
0.0
  0
VERTEX
  5
DE
  8
A-FRAME
 10
55.36857050708164
 20
20.21222655264547
 30
0.0
  0
VERTEX
  5
DF
  8
A-FRAME
 10
55.41756056178843
 20
20.21129684282676
 30
0.0
  0
VERTEX
  5
E0
  8
A-FRAME
 10
55.4667
 20
20.2109861111112
 30
0.0
  0
VERTEX
  5
E1
  8
A-FRAME
 10
55.46582500000028
 20
17.0
 30
0.0
  0
VERTEX
  5
E2
  8
A-FRAME
 10
48.16245000000032
 20
17.0
 30
0.0
  0
VERTEX
  5
E3
  8
A-FRAME
 10
14.76920000000024
 20
17.0
 30
0.0
  0
VERTEX
  5
E4
  8
A-FRAME
 10
7.465825000000279
 20
17.0
 30
0.0
  0
VERTEX
  5
E5
  8
A-FRAME
 10
7.464950000000556
 20
20.21098611111121
 30
0.0
  0
VERTEX
  5
E6
  8
A-FRAME
 10
7.514089438212125
 20
20.21129684282677
 30
0.0
  0
VERTEX
  5
E7
  8
A-FRAME
 10
7.563079492918916
 20
20.21222655264548
 30
0.0
  0
VERTEX
  5
E8
  8
A-FRAME
 10
7.611916446102043
 20
20.21377151257469
 30
0.0
  0
VERTEX
  5
E9
  8
A-FRAME
 10
7.660596579742617
 20
20.21592799462213
 30
0.0
  0
VERTEX
  5
EA
  8
A-FRAME
 10
7.709116175822658
 20
20.21869227079561
 30
0.0
  0
VERTEX
  5
EB
  8
A-FRAME
 10
7.757471516323278
 20
20.22206061310239
 30
0.0
  0
VERTEX
  5
EC
  8
A-FRAME
 10
7.805658883226499
 20
20.2260292935505
 30
0.0
  0
VERTEX
  5
ED
  8
A-FRAME
 10
7.853674558512523
 20
20.2305945841472
 30
0.0
  0
VERTEX
  5
EE
  8
A-FRAME
 10
7.901514824164281
 20
20.23575275690031
 30
0.0
  0
VERTEX
  5
EF
  8
A-FRAME
 10
7.949175962162428
 20
20.24150008381743
 30
0.0
  0
VERTEX
  5
F0
  8
A-FRAME
 10
7.996654254488533
 20
20.24783283690614
 30
0.0
  0
VERTEX
  5
F1
  8
A-FRAME
 10
8.04394598312416
 20
20.25474728817415
 30
0.0
  0
VERTEX
  5
F2
  8
A-FRAME
 10
8.091047430050878
 20
20.26223970962896
 30
0.0
  0
VERTEX
  5
F3
  8
A-FRAME
 10
8.137954877249797
 20
20.27030637327836
 30
0.0
  0
VERTEX
  5
F4
  8
A-FRAME
 10
8.184664606702484
 20
20.27894355112984
 30
0.0
  0
VERTEX
  5
F5
  8
A-FRAME
 10
8.231172900390959
 20
20.288147515191
 30
0.0
  0
VERTEX
  5
F6
  8
A-FRAME
 10
8.277476040296335
 20
20.29791453746965
 30
0.0
  0
VERTEX
  5
F7
  8
A-FRAME
 10
8.323570308399724
 20
20.30824088997316
 30
0.0
  0
VERTEX
  5
F8
  8
A-FRAME
 10
8.36945198668269
 20
20.31912284470935
 30
0.0
  0
VERTEX
  5
F9
  8
A-FRAME
 10
8.415117357127258
 20
20.33055667368582
 30
0.0
  0
VERTEX
  5
FA
  8
A-FRAME
 10
8.460562701714537
 20
20.34253864891004
 30
0.0
  0
VERTEX
  5
FB
  8
A-FRAME
 10
8.505784302425639
 20
20.35506504238982
 30
0.0
  0
VERTEX
  5
FC
  8
A-FRAME
 10
8.550778441242585
 20
20.36813212613266
 30
0.0
  0
VERTEX
  5
FD
  8
A-FRAME
 10
8.595541400146942
 20
20.38173617214636
 30
0.0
  0
VERTEX
  5
FE
  8
A-FRAME
 10
8.640069461119367
 20
20.39587345243832
 30
0.0
  0
VERTEX
  5
FF
  8
A-FRAME
 10
8.684358906142336
 20
20.41054023901633
 30
0.0
  0
VERTEX
  5
100
  8
A-FRAME
 10
8.728406017196505
 20
20.42573280388787
 30
0.0
  0
VERTEX
  5
101
  8
A-FRAME
 10
8.772207076263896
 20
20.44144741906065
 30
0.0
  0
VERTEX
  5
102
  8
A-FRAME
 10
8.815758365325621
 20
20.45768035654238
 30
0.0
  0
VERTEX
  5
103
  8
A-FRAME
 10
8.859056166363246
 20
20.47442788834043
 30
0.0
  0
VERTEX
  5
104
  8
A-FRAME
 10
8.902096761358337
 20
20.49168628646272
 30
0.0
  0
VERTEX
  5
105
  8
A-FRAME
 10
8.944876432292006
 20
20.50945182291674
 30
0.0
  0
VERTEX
  5
106
  8
A-FRAME
 10
8.987391461146288
 20
20.52772076971008
 30
0.0
  0
VERTEX
  5
107
  8
A-FRAME
 10
9.029638129902253
 20
20.54648939885034
 30
0.0
  0
VERTEX
  5
108
  8
A-FRAME
 10
9.07161272054151
 20
20.56575398234533
 30
0.0
  0
VERTEX
  5
109
  8
A-FRAME
 10
9.11331151504561
 20
20.58551079220252
 30
0.0
  0
VERTEX
  5
10A
  8
A-FRAME
 10
9.154730795395665
 20
20.60575610042953
 30
0.0
  0
VERTEX
  5
10B
  8
A-FRAME
 10
9.195866843573697
 20
20.62648617903393
 30
0.0
  0
VERTEX
  5
10C
  8
A-FRAME
 10
9.236715941560817
 20
20.64769730002355
 30
0.0
  0
VERTEX
  5
10D
  8
A-FRAME
 10
9.277274371338137
 20
20.66938573540587
 30
0.0
  0
VERTEX
  5
10E
  8
A-FRAME
 10
9.317538414888134
 20
20.69154775718859
 30
0.0
  0
VERTEX
  5
10F
  8
A-FRAME
 10
9.357504354191008
 20
20.71417963737919
 30
0.0
  0
VERTEX
  5
110
  8
A-FRAME
 10
9.397168471229236
 20
20.73727764798538
 30
0.0
  0
VERTEX
  5
111
  8
A-FRAME
 10
9.436527047984384
 20
20.76083806101486
 30
0.0
  0
VERTEX
  5
112
  8
A-FRAME
 10
9.475576366436655
 20
20.78485714847513
 30
0.0
  0
VERTEX
  5
113
  8
A-FRAME
 10
9.51431270856898
 20
20.80933118237398
 30
0.0
  0
VERTEX
  5
114
  8
A-FRAME
 10
9.552732356362014
 20
20.8342564347188
 30
0.0
  0
VERTEX
  5
115
  8
A-FRAME
 10
9.590831591797325
 20
20.85962917751739
 30
0.0
  0
VERTEX
  5
116
  8
A-FRAME
 10
9.62860669685648
 20
20.88544568277736
 30
0.0
  0
VERTEX
  5
117
  8
A-FRAME
 10
9.666053953521043
 20
20.91170222250629
 30
0.0
  0
VERTEX
  5
118
  8
A-FRAME
 10
9.703169643772128
 20
20.93839506871178
 30
0.0
  0
VERTEX
  5
119
  8
A-FRAME
 10
9.7399500495913
 20
20.96552049340143
 30
0.0
  0
VERTEX
  5
11A
  8
A-FRAME
 10
9.776391452960581
 20
20.99307476858304
 30
0.0
  0
VERTEX
  5
11B
  8
A-FRAME
 10
9.812490135860628
 20
21.02105416626411
 30
0.0
  0
VERTEX
  5
11C
  8
A-FRAME
 10
9.848242380273916
 20
21.04945495845221
 30
0.0
  0
VERTEX
  5
11D
  8
A-FRAME
 10
9.883644468180648
 20
21.07827341715496
 30
0.0
  0
VERTEX
  5
11E
  8
A-FRAME
 10
9.9186926815633
 20
21.10750581438016
 30
0.0
  0
VERTEX
  5
11F
  8
A-FRAME
 10
9.953383302402983
 20
21.1371484221353
 30
0.0
  0
VERTEX
  5
120
  8
A-FRAME
 10
9.98771261268081
 20
21.16719751242807
 30
0.0
  0
VERTEX
  5
121
  8
A-FRAME
 10
10.0216768943788
 20
21.19764935726597
 30
0.0
  0
VERTEX
  5
122
  8
A-FRAME
 10
10.05527242947852
 20
21.2285002286567
 30
0.0
  0
VERTEX
  5
123
  8
A-FRAME
 10
10.0884954999611
 20
21.25974639860796
 30
0.0
  0
VERTEX
  5
124
  8
A-FRAME
 10
10.1213423878076
 20
21.29138413912723
 30
0.0
  0
VERTEX
  5
125
  8
A-FRAME
 10
10.15380937500055
 20
21.32340972222234
 30
0.0
  0
VERTEX
  5
126
  8
A-FRAME
 10
10.18589274352013
 20
21.35581941990064
 30
0.0
  0
VERTEX
  5
127
  8
A-FRAME
 10
10.21758877534882
 20
21.38860950416996
 30
0.0
  0
VERTEX
  5
128
  8
A-FRAME
 10
10.24889375246818
 20
21.4217762470379
 30
0.0
  0
VERTEX
  5
129
  8
A-FRAME
 10
10.27980395685887
 20
21.45531592051192
 30
0.0
  0
VERTEX
  5
12A
  8
A-FRAME
 10
10.31031567050246
 20
21.48922479659986
 30
0.0
  0
VERTEX
  5
12B
  8
A-FRAME
 10
10.34042517538097
 20
21.5234991473093
 30
0.0
  0
VERTEX
  5
12C
  8
A-FRAME
 10
10.37012875347551
 20
21.55813524464772
 30
0.0
  0
VERTEX
  5
12D
  8
A-FRAME
 10
10.3994226867681
 20
21.59312936062294
 30
0.0
  0
VERTEX
  5
12E
  8
A-FRAME
 10
10.42830325723941
 20
21.62847776724233
 30
0.0
  0
VERTEX
  5
12F
  8
A-FRAME
 10
10.45676674687098
 20
21.66417673651382
 30
0.0
  0
VERTEX
  5
130
  8
A-FRAME
 10
10.48480943764486
 20
21.7002225404449
 30
0.0
  0
VERTEX
  5
131
  8
A-FRAME
 10
10.51242761154214
 20
21.73661145104303
 30
0.0
  0
VERTEX
  5
132
  8
A-FRAME
 10
10.53961755054439
 20
21.77333974031616
 30
0.0
  0
VERTEX
  5
133
  8
A-FRAME
 10
10.56637553663275
 20
21.81040368027165
 30
0.0
  0
VERTEX
  5
134
  8
A-FRAME
 10
10.5926978517892
 20
21.8477995429172
 30
0.0
  0
VERTEX
  5
135
  8
A-FRAME
 10
10.61858077799531
 20
21.88552360026052
 30
0.0
  0
VERTEX
  5
136
  8
A-FRAME
 10
10.64402059723176
 20
21.9235721243091
 30
0.0
  0
VERTEX
  5
137
  8
A-FRAME
 10
10.66901359148058
 20
21.96194138707064
 30
0.0
  0
VERTEX
  5
138
  8
A-FRAME
 10
10.69355604272329
 20
22.00062766055272
 30
0.0
  0
VERTEX
  5
139
  8
A-FRAME
 10
10.71764423294104
 20
22.03962721676305
 30
0.0
  0
VERTEX
  5
13A
  8
A-FRAME
 10
10.74127444411539
 20
22.07893632770914
 30
0.0
  0
VERTEX
  5
13B
  8
A-FRAME
 10
10.76444295822836
 20
22.11855126539866
 30
0.0
  0
VERTEX
  5
13C
  8
A-FRAME
 10
10.7871460572606
 20
22.15846830183933
 30
0.0
  0
VERTEX
  5
13D
  8
A-FRAME
 10
10.80938002319368
 20
22.19868370903863
 30
0.0
  0
VERTEX
  5
13E
  8
A-FRAME
 10
10.83114113800963
 20
22.23919375900438
 30
0.0
  0
VERTEX
  5
13F
  8
A-FRAME
 10
10.85242568368955
 20
22.27999472374394
 30
0.0
  0
VERTEX
  5
140
  8
A-FRAME
 10
10.873229942215
 20
22.32108287526502
 30
0.0
  0
VERTEX
  5
141
  8
A-FRAME
 10
10.89355019556712
 20
22.36245448557544
 30
0.0
  0
VERTEX
  5
142
  8
A-FRAME
 10
10.9133827257279
 20
22.40410582668257
 30
0.0
  0
VERTEX
  5
143
  8
A-FRAME
 10
10.93272381467847
 20
22.44603317059422
 30
0.0
  0
VERTEX
  5
144
  8
A-FRAME
 10
10.95156974440039
 20
22.48823278931787
 30
0.0
  0
VERTEX
  5
145
  8
A-FRAME
 10
10.96991679687522
 20
22.53070095486112
 30
0.0
  0
VERTEX
  5
146
  8
A-FRAME
 10
10.98776125408455
 20
22.5734339392318
 30
0.0
  0
VERTEX
  5
147
  8
A-FRAME
 10
11.00509939800946
 20
22.61642801443737
 30
0.0
  0
VERTEX
  5
148
  8
A-FRAME
 10
11.02192751063154
 20
22.65967945248555
 30
0.0
  0
VERTEX
  5
149
  8
A-FRAME
 10
11.03824187393235
 20
22.70318452538391
 30
0.0
  0
VERTEX
  5
14A
  8
A-FRAME
 10
11.054038769893
 20
22.74693950514007
 30
0.0
  0
VERTEX
  5
14B
  8
A-FRAME
 10
11.06931448049596
 20
22.79094066376161
 30
0.0
  0
VERTEX
  5
14C
  8
A-FRAME
 10
11.08406528772146
 20
22.83518427325624
 30
0.0
  0
VERTEX
  5
14D
  8
A-FRAME
 10
11.09828747355192
 20
22.87966660563155
 30
0.0
  0
VERTEX
  5
14E
  8
A-FRAME
 10
11.11197731996805
 20
22.92438393289514
 30
0.0
  0
VERTEX
  5
14F
  8
A-FRAME
 10
11.12513110895185
 20
22.9693325270547
 30
0.0
  0
VERTEX
  5
150
  8
A-FRAME
 10
11.13774512248489
 20
23.01450866011784
 30
0.0
  0
VERTEX
  5
151
  8
A-FRAME
 10
11.14981564254782
 20
23.05990860409214
 30
0.0
  0
VERTEX
  5
152
  8
A-FRAME
 10
11.16133895112313
 20
23.1055286309852
 30
0.0
  0
VERTEX
  5
153
  8
A-FRAME
 10
11.17231133019146
 20
23.15136501280473
 30
0.0
  0
VERTEX
  5
154
  8
A-FRAME
 10
11.18272906173485
 20
23.19741402155832
 30
0.0
  0
VERTEX
  5
155
  8
A-FRAME
 10
11.19258842773485
 20
23.24367192925355
 30
0.0
  0
VERTEX
  5
156
  8
A-FRAME
 10
11.20188571017212
 20
23.29013500789803
 30
0.0
  0
VERTEX
  5
157
  8
A-FRAME
 10
11.21061719102914
 20
23.33679952949957
 30
0.0
  0
VERTEX
  5
158
  8
A-FRAME
 10
11.21877915228659
 20
23.38366176606554
 30
0.0
  0
VERTEX
  5
159
  8
A-FRAME
 10
11.22636787592597
 20
23.43071798960376
 30
0.0
  0
VERTEX
  5
15A
  8
A-FRAME
 10
11.23337964392937
 20
23.47796447212171
 30
0.0
  0
VERTEX
  5
15B
  8
A-FRAME
 10
11.23981073827787
 20
23.5253974856271
 30
0.0
  0
VERTEX
  5
15C
  8
A-FRAME
 10
11.24565744095304
 20
23.57301330212762
 30
0.0
  0
VERTEX
  5
15D
  8
A-FRAME
 10
11.25091603393599
 20
23.62080819363065
 30
0.0
  0
VERTEX
  5
15E
  8
A-FRAME
 10
11.2555827992083
 20
23.66877843214412
 30
0.0
  0
VERTEX
  5
15F
  8
A-FRAME
 10
11.25965401875199
 20
23.7169202896754
 30
0.0
  0
VERTEX
  5
160
  8
A-FRAME
 10
11.26312597454813
 20
23.7652300382323
 30
0.0
  0
VERTEX
  5
161
  8
A-FRAME
 10
11.26599494857834
 20
23.81370394982241
 30
0.0
  0
VERTEX
  5
162
  8
A-FRAME
 10
11.26825722282371
 20
23.86233829645324
 30
0.0
  0
VERTEX
  5
163
  8
A-FRAME
 10
11.2699090792658
 20
23.91112935013247
 30
0.0
  0
VERTEX
  5
164
  8
A-FRAME
 10
11.27094679988664
 20
23.9600733828678
 30
0.0
  0
VERTEX
  5
165
  8
A-FRAME
 10
11.27136666666689
 20
24.00916666666673
 30
0.0
  0
VERTEX
  5
166
  8
A-FRAME
 10
12.39051944444469
 20
24.00916666666673
 30
0.0
  0
VERTEX
  5
167
  8
A-FRAME
 10
13.00579722222261
 20
20.84409722222223
 30
0.0
  0
VERTEX
  5
168
  8
A-FRAME
 10
13.72861666666682
 20
20.98437500000001
 30
0.0
  0
VERTEX
  5
169
  8
A-FRAME
 10
13.14051944444469
 20
24.00916666666673
 30
0.0
  0
VERTEX
  5
16A
  8
A-FRAME
 10
14.11918611111156
 20
24.00916666666673
 30
0.0
  0
VERTEX
  5
16B
  8
A-FRAME
 10
14.17024859809049
 20
23.9892999804688
 30
0.0
  0
VERTEX
  5
16C
  8
A-FRAME
 10
14.22785591091639
 20
23.96739353434249
 30
0.0
  0
VERTEX
  5
16D
  8
A-FRAME
 10
14.30456225694485
 20
23.93897151041678
 30
0.0
  0
VERTEX
  5
16E
  8
A-FRAME
 10
14.39865387641117
 20
23.90513377685558
 30
0.0
  0
VERTEX
  5
16F
  8
A-FRAME
 10
14.45168361375642
 20
23.88652772776289
 30
0.0
  0
VERTEX
  5
170
  8
A-FRAME
 10
14.50841700954885
 20
23.86698020182292
 30
0.0
  0
VERTEX
  5
171
  8
A-FRAME
 10
14.56863984381795
 20
23.84662868255624
 30
0.0
  0
VERTEX
  5
172
  8
A-FRAME
 10
14.63213789659318
 20
23.82561065348307
 30
0.0
  0
VERTEX
  5
173
  8
A-FRAME
 10
14.69869694790356
 20
23.80406359812424
 30
0.0
  0
VERTEX
  5
174
  8
A-FRAME
 10
14.7681027777781
 20
23.78212500000008
 30
0.0
  0
VERTEX
  5
175
  8
A-FRAME
 10
14.76843237651923
 20
23.76464450809489
 30
0.0
  0
VERTEX
  5
176
  8
A-FRAME
 10
14.76942115973061
 20
23.7471647062896
 30
0.0
  0
VERTEX
  5
177
  8
A-FRAME
 10
14.77106908837679
 20
23.72968628465684
 30
0.0
  0
VERTEX
  5
178
  8
A-FRAME
 10
14.77337609740036
 20
23.71220993321478
 30
0.0
  0
VERTEX
  5
179
  8
A-FRAME
 10
14.77634209572454
 20
23.69473634189984
 30
0.0
  0
VERTEX
  5
17A
  8
A-FRAME
 10
14.77996696625683
 20
23.67726620053948
 30
0.0
  0
VERTEX
  5
17B
  8
A-FRAME
 10
14.78425056589352
 20
23.65980019882498
 30
0.0
  0
VERTEX
  5
17C
  8
A-FRAME
 10
14.78919272552544
 20
23.64233902628418
 30
0.0
  0
VERTEX
  5
17D
  8
A-FRAME
 10
14.79479325004458
 20
23.62488337225427
 30
0.0
  0
VERTEX
  5
17E
  8
A-FRAME
 10
14.80105191835183
 20
23.60743392585458
 30
0.0
  0
VERTEX
  5
17F
  8
A-FRAME
 10
14.80796848336568
 20
23.58999137595938
 30
0.0
  0
VERTEX
  5
180
  8
A-FRAME
 10
14.815542672032
 20
23.57255641117067
 30
0.0
  0
VERTEX
  5
181
  8
A-FRAME
 10
14.82377418533477
 20
23.55512971979101
 30
0.0
  0
VERTEX
  5
182
  8
A-FRAME
 10
14.83266269830795
 20
23.53771198979634
 30
0.0
  0
VERTEX
  5
183
  8
A-FRAME
 10
14.84220786004826
 20
23.5203039088088
 30
0.0
  0
VERTEX
  5
184
  8
A-FRAME
 10
14.85240929372907
 20
23.50290616406963
 30
0.0
  0
VERTEX
  5
185
  8
A-FRAME
 10
14.86326659661523
 20
23.48551944241201
 30
0.0
  0
VERTEX
  5
186
  8
A-FRAME
 10
14.87477934007903
 20
23.46814443023393
 30
0.0
  0
VERTEX
  5
187
  8
A-FRAME
 10
14.88694706961707
 20
23.45078181347113
 30
0.0
  0
VERTEX
  5
188
  8
A-FRAME
 10
14.8997693048682
 20
23.43343227756998
 30
0.0
  0
VERTEX
  5
189
  8
A-FRAME
 10
14.91324553963256
 20
23.41609650746045
 30
0.0
  0
VERTEX
  5
18A
  8
A-FRAME
 10
14.92737524189145
 20
23.39877518752907
 30
0.0
  0
VERTEX
  5
18B
  8
A-FRAME
 10
14.94215785382842
 20
23.38146900159188
 30
0.0
  0
VERTEX
  5
18C
  8
A-FRAME
 10
14.95759279185128
 20
23.36417863286748
 30
0.0
  0
VERTEX
  5
18D
  8
A-FRAME
 10
14.9736794466151
 20
23.34690476395001
 30
0.0
  0
VERTEX
  5
18E
  8
A-FRAME
 10
14.99041718304629
 20
23.32964807678225
 30
0.0
  0
VERTEX
  5
18F
  8
A-FRAME
 10
15.00780534036767
 20
23.31240925262865
 30
0.0
  0
VERTEX
  5
190
  8
A-FRAME
 10
15.02584323212458
 20
23.29518897204848
 30
0.0
  0
VERTEX
  5
191
  8
A-FRAME
 10
15.04453014621193
 20
23.27798791486892
 30
0.0
  0
VERTEX
  5
192
  8
A-FRAME
 10
15.06386534490233
 20
23.26080676015825
 30
0.0
  0
VERTEX
  5
193
  8
A-FRAME
 10
15.08384806487527
 20
23.24364618619907
 30
0.0
  0
VERTEX
  5
194
  8
A-FRAME
 10
15.10447751724717
 20
23.22650687046142
 30
0.0
  0
VERTEX
  5
195
  8
A-FRAME
 10
15.12575288760257
 20
23.20938948957616
 30
0.0
  0
VERTEX
  5
196
  8
A-FRAME
 10
15.14767333602629
 20
23.19229471930817
 30
0.0
  0
VERTEX
  5
197
  8
A-FRAME
 10
15.17023799713655
 20
23.17522323452971
 30
0.0
  0
VERTEX
  5
198
  8
A-FRAME
 10
15.19344598011917
 20
23.15817570919376
 30
0.0
  0
VERTEX
  5
199
  8
A-FRAME
 10
15.21729636876272
 20
23.14115281630745
 30
0.0
  0
VERTEX
  5
19A
  8
A-FRAME
 10
15.24178822149469
 20
23.12415522790543
 30
0.0
  0
VERTEX
  5
19B
  8
A-FRAME
 10
15.26692057141867
 20
23.10718361502339
 30
0.0
  0
VERTEX
  5
19C
  8
A-FRAME
 10
15.29269242635254
 20
23.09023864767154
 30
0.0
  0
VERTEX
  5
19D
  8
A-FRAME
 10
15.31910276886757
 20
23.07332099480818
 30
0.0
  0
VERTEX
  5
19E
  8
A-FRAME
 10
15.34615055632867
 20
23.05643132431328
 30
0.0
  0
VERTEX
  5
19F
  8
A-FRAME
 10
15.37383472093549
 20
23.03957030296211
 30
0.0
  0
VERTEX
  5
1A0
  8
A-FRAME
 10
15.40215416976464
 20
23.02273859639892
 30
0.0
  0
VERTEX
  5
1A1
  8
A-FRAME
 10
15.43110778481275
 20
23.00593686911067
 30
0.0
  0
VERTEX
  5
1A2
  8
A-FRAME
 10
15.46069442304069
 20
22.98916578440078
 30
0.0
  0
VERTEX
  5
1A3
  8
A-FRAME
 10
15.49091291641863
 20
22.97242600436295
 30
0.0
  0
VERTEX
  5
1A4
  8
A-FRAME
 10
15.5217620719722
 20
22.95571818985505
 30
0.0
  0
VERTEX
  5
1A5
  8
A-FRAME
 10
15.55324067182956
 20
22.93904300047297
 30
0.0
  0
VERTEX
  5
1A6
  8
A-FRAME
 10
15.58534747326949
 20
22.92240109452466
 30
0.0
  0
VERTEX
  5
1A7
  8
A-FRAME
 10
15.61808120877044
 20
22.90579312900404
 30
0.0
  0
VERTEX
  5
1A8
  8
A-FRAME
 10
15.65144058606059
 20
22.88921975956517
 30
0.0
  0
VERTEX
  5
1A9
  8
A-FRAME
 10
15.68542428816883
 20
22.8726816404963
 30
0.0
  0
VERTEX
  5
1AA
  8
A-FRAME
 10
15.7200309734768
 20
22.85617942469404
 30
0.0
  0
VERTEX
  5
1AB
  8
A-FRAME
 10
15.75525927577183
 20
22.83971376363762
 30
0.0
  0
VERTEX
  5
1AC
  8
A-FRAME
 10
15.79110780430085
 20
22.82328530736315
 30
0.0
  0
VERTEX
  5
1AD
  8
A-FRAME
 10
15.82757514382534
 20
22.80689470443795
 30
0.0
  0
VERTEX
  5
1AE
  8
A-FRAME
 10
15.86465985467717
 20
22.79054260193495
 30
0.0
  0
VERTEX
  5
1AF
  8
A-FRAME
 10
15.90236047281547
 20
22.77422964540717
 30
0.0
  0
VERTEX
  5
1B0
  8
A-FRAME
 10
15.94067550988439
 20
22.75795647886219
 30
0.0
  0
VERTEX
  5
1B1
  8
A-FRAME
 10
15.97960345327186
 20
22.74172374473677
 30
0.0
  0
VERTEX
  5
1B2
  8
A-FRAME
 10
16.01914276616934
 20
22.72553208387146
 30
0.0
  0
VERTEX
  5
1B3
  8
A-FRAME
 10
16.05929188763245
 20
22.7093821354853
 30
0.0
  0
VERTEX
  5
1B4
  8
A-FRAME
 10
16.10004923264263
 20
22.6932745371506
 30
0.0
  0
VERTEX
  5
1B5
  8
A-FRAME
 10
16.14141319216968
 20
22.67720992476776
 30
0.0
  0
VERTEX
  5
1B6
  8
A-FRAME
 10
16.18338213323531
 20
22.66118893254018
 30
0.0
  0
VERTEX
  5
1B7
  8
A-FRAME
 10
16.22595439897758
 20
22.64521219294918
 30
0.0
  0
VERTEX
  5
1B8
  8
A-FRAME
 10
16.26912830871635
 20
22.62928033672911
 30
0.0
  0
VERTEX
  5
1B9
  8
A-FRAME
 10
16.31290215801958
 20
22.61339399284235
 30
0.0
  0
VERTEX
  5
1BA
  8
A-FRAME
 10
16.35727421877064
 20
22.59755378845457
 30
0.0
  0
VERTEX
  5
1BB
  8
A-FRAME
 10
16.40224273923657
 20
22.58176034890991
 30
0.0
  0
VERTEX
  5
1BC
  8
A-FRAME
 10
16.44780594413717
 20
22.56601429770632
 30
0.0
  0
VERTEX
  5
1BD
  8
A-FRAME
 10
16.49396203471512
 20
22.55031625647095
 30
0.0
  0
VERTEX
  5
1BE
  8
A-FRAME
 10
16.54070918880701
 20
22.53466684493557
 30
0.0
  0
VERTEX
  5
1BF
  8
A-FRAME
 10
16.58804556091523
 20
22.51906668091216
 30
0.0
  0
VERTEX
  5
1C0
  8
A-FRAME
 10
16.63596928228088
 20
22.50351638026849
 30
0.0
  0
VERTEX
  5
1C1
  8
A-FRAME
 10
16.68447846095746
 20
22.4880165569038
 30
0.0
  0
VERTEX
  5
1C2
  8
A-FRAME
 10
16.73357118188571
 20
22.47256782272457
 30
0.0
  0
VERTEX
  5
1C3
  8
A-FRAME
 10
16.78324550696902
 20
22.45717078762038
 30
0.0
  0
VERTEX
  5
1C4
  8
A-FRAME
 10
16.83349947515013
 20
22.44182605943981
 30
0.0
  0
VERTEX
  5
1C5
  8
A-FRAME
 10
16.88433110248839
 20
22.42653424396645
 30
0.0
  0
VERTEX
  5
1C6
  8
A-FRAME
 10
16.93573838223821
 20
22.41129594489501
 30
0.0
  0
VERTEX
  5
1C7
  8
A-FRAME
 10
16.98771928492822
 20
22.39611176380741
 30
0.0
  0
VERTEX
  5
1C8
  8
A-FRAME
 10
17.04027175844136
 20
22.38098230014915
 30
0.0
  0
VERTEX
  5
1C9
  8
A-FRAME
 10
17.09339372809598
 20
22.36590815120554
 30
0.0
  0
VERTEX
  5
1CA
  8
A-FRAME
 10
17.14708309672766
 20
22.35088991207817
 30
0.0
  0
VERTEX
  5
1CB
  8
A-FRAME
 10
17.20133774477208
 20
22.3359281756614
 30
0.0
  0
VERTEX
  5
1CC
  8
A-FRAME
 10
17.25615553034861
 20
22.32102353261897
 30
0.0
  0
VERTEX
  5
1CD
  8
A-FRAME
 10
17.31153428934496
 20
22.30617657136067
 30
0.0
  0
VERTEX
  5
1CE
  8
A-FRAME
 10
17.36747183550254
 20
22.2913878780191
 30
0.0
  0
VERTEX
  5
1CF
  8
A-FRAME
 10
17.42396596050281
 20
22.27665803642656
 30
0.0
  0
VERTEX
  5
1D0
  8
A-FRAME
 10
17.48101443405443
 20
22.26198762809197
 30
0.0
  0
VERTEX
  5
1D1
  8
A-FRAME
 10
17.53861500398138
 20
22.24737723217792
 30
0.0
  0
VERTEX
  5
1D2
  8
A-FRAME
 10
17.59676539631175
 20
22.23282742547784
 30
0.0
  0
VERTEX
  5
1D3
  8
A-FRAME
 10
17.65546331536765
 20
22.21833878239318
 30
0.0
  0
VERTEX
  5
1D4
  8
A-FRAME
 10
17.71470644385574
 20
22.20391187491076
 30
0.0
  0
VERTEX
  5
1D5
  8
A-FRAME
 10
17.77449244295873
 20
22.18954727258019
 30
0.0
  0
VERTEX
  5
1D6
  8
A-FRAME
 10
17.83481895242777
 20
22.17524554249136
 30
0.0
  0
VERTEX
  5
1D7
  8
A-FRAME
 10
17.89568359067553
 20
22.1610072492521
 30
0.0
  0
VERTEX
  5
1D8
  8
A-FRAME
 10
17.95708395487033
 20
22.14683295496584
 30
0.0
  0
VERTEX
  5
1D9
  8
A-FRAME
 10
18.01901762103093
 20
22.13272321920945
 30
0.0
  0
VERTEX
  5
1DA
  8
A-FRAME
 10
18.08148214412223
 20
22.11867859901114
 30
0.0
  0
VERTEX
  5
1DB
  8
A-FRAME
 10
18.14447505815181
 20
22.10469964882846
 30
0.0
  0
VERTEX
  5
1DC
  8
A-FRAME
 10
18.20799387626729
 20
22.09078692052643
 30
0.0
  0
VERTEX
  5
1DD
  8
A-FRAME
 10
18.27203609085448
 20
22.07694096335575
 30
0.0
  0
VERTEX
  5
1DE
  8
A-FRAME
 10
18.33659917363644
 20
22.06316232393109
 30
0.0
  0
VERTEX
  5
1DF
  8
A-FRAME
 10
18.40168057577318
 20
22.04945154620955
 30
0.0
  0
VERTEX
  5
1E0
  8
A-FRAME
 10
18.46727772796238
 20
22.03580917146915
 30
0.0
  0
VERTEX
  5
1E1
  8
A-FRAME
 10
18.53338804054081
 20
22.02223573828748
 30
0.0
  0
VERTEX
  5
1E2
  8
A-FRAME
 10
18.60000890358653
 20
22.00873178252046
 30
0.0
  0
VERTEX
  5
1E3
  8
A-FRAME
 10
18.66713768702191
 20
21.99529783728113
 30
0.0
  0
VERTEX
  5
1E4
  8
A-FRAME
 10
18.73477174071756
 20
21.98193443291865
 30
0.0
  0
VERTEX
  5
1E5
  8
A-FRAME
 10
18.80290839459683
 20
21.96864209699733
 30
0.0
  0
VERTEX
  5
1E6
  8
A-FRAME
 10
18.8715449587413
 20
21.95542135427584
 30
0.0
  0
VERTEX
  5
1E7
  8
A-FRAME
 10
18.94067872349692
 20
21.94227272668647
 30
0.0
  0
VERTEX
  5
1E8
  8
A-FRAME
 10
19.01030695958107
 20
21.92919673331452
 30
0.0
  0
VERTEX
  5
1E9
  8
A-FRAME
 10
19.08042691819018
 20
21.91619389037781
 30
0.0
  0
VERTEX
  5
1EA
  8
A-FRAME
 10
19.15103583110837
 20
21.90326471120633
 30
0.0
  0
VERTEX
  5
1EB
  8
A-FRAME
 10
19.22213091081665
 20
21.89040970622192
 30
0.0
  0
VERTEX
  5
1EC
  8
A-FRAME
 10
19.293709350603
 20
21.87762938291818
 30
0.0
  0
VERTEX
  5
1ED
  8
A-FRAME
 10
19.36576832467319
 20
21.86492424584038
 30
0.0
  0
VERTEX
  5
1EE
  8
A-FRAME
 10
19.43830498826231
 20
21.85229479656558
 30
0.0
  0
VERTEX
  5
1EF
  8
A-FRAME
 10
19.51131647774708
 20
21.83974153368282
 30
0.0
  0
VERTEX
  5
1F0
  8
A-FRAME
 10
19.58479991075891
 20
21.82726495277341
 30
0.0
  0
VERTEX
  5
1F1
  8
A-FRAME
 10
19.65875238629769
 20
21.81486554639141
 30
0.0
  0
VERTEX
  5
1F2
  8
A-FRAME
 10
19.73317098484631
 20
21.80254380404415
 30
0.0
  0
VERTEX
  5
1F3
  8
A-FRAME
 10
19.80805276848594
 20
21.79030021217292
 30
0.0
  0
VERTEX
  5
1F4
  8
A-FRAME
 10
19.88339478101195
 20
21.77813525413377
 30
0.0
  0
VERTEX
  5
1F5
  8
A-FRAME
 10
19.95919404805072
 20
21.7660494101784
 30
0.0
  0
VERTEX
  5
1F6
  8
A-FRAME
 10
20.03544757717695
 20
21.75404315743524
 30
0.0
  0
VERTEX
  5
1F7
  8
A-FRAME
 10
20.11215235803191
 20
21.74211696989059
 30
0.0
  0
VERTEX
  5
1F8
  8
A-FRAME
 10
20.18930536244216
 20
21.73027131836992
 30
0.0
  0
VERTEX
  5
1F9
  8
A-FRAME
 10
20.26690354453922
 20
21.71850667051927
 30
0.0
  0
VERTEX
  5
1FA
  8
A-FRAME
 10
20.34494384087971
 20
21.70682349078678
 30
0.0
  0
VERTEX
  5
1FB
  8
A-FRAME
 10
20.42342317056635
 20
21.69522224040439
 30
0.0
  0
VERTEX
  5
1FC
  8
A-FRAME
 10
20.50233843536962
 20
21.6837033773696
 30
0.0
  0
VERTEX
  5
1FD
  8
A-FRAME
 10
20.58168651984995
 20
21.67226735642739
 30
0.0
  0
VERTEX
  5
1FE
  8
A-FRAME
 10
20.66146429148085
 20
21.66091462905231
 30
0.0
  0
VERTEX
  5
1FF
  8
A-FRAME
 10
20.74166860077249
 20
21.64964564343057
 30
0.0
  0
VERTEX
  5
200
  8
A-FRAME
 10
20.82229628139608
 20
21.63846084444244
 30
0.0
  0
VERTEX
  5
201
  8
A-FRAME
 10
20.90334415030884
 20
21.62736067364463
 30
0.0
  0
VERTEX
  5
202
  8
A-FRAME
 10
20.98480900787968
 20
21.61634556925287
 30
0.0
  0
VERTEX
  5
203
  8
A-FRAME
 10
21.06668763801551
 20
21.60541596612464
 30
0.0
  0
VERTEX
  5
204
  8
A-FRAME
 10
21.14897680828823
 20
21.59457229574194
 30
0.0
  0
VERTEX
  5
205
  8
A-FRAME
 10
21.23167327006227
 20
21.58381498619431
 30
0.0
  0
VERTEX
  5
206
  8
A-FRAME
 10
21.31477375862294
 20
21.57314446216192
 30
0.0
  0
VERTEX
  5
207
  8
A-FRAME
 10
21.39827499330524
 20
21.56256114489878
 30
0.0
  0
VERTEX
  5
208
  8
A-FRAME
 10
21.48217367762339
 20
21.55206545221614
 30
0.0
  0
VERTEX
  5
209
  8
A-FRAME
 10
21.566466499401
 20
21.54165779846597
 30
0.0
  0
VERTEX
  5
20A
  8
A-FRAME
 10
21.6511501309018
 20
21.53133859452463
 30
0.0
  0
VERTEX
  5
20B
  8
A-FRAME
 10
21.73622122896101
 20
21.52110824777661
 30
0.0
  0
VERTEX
  5
20C
  8
A-FRAME
 10
21.82167643511736
 20
21.51096716209848
 30
0.0
  0
VERTEX
  5
20D
  8
A-FRAME
 10
21.90751237574563
 20
21.50091573784296
 30
0.0
  0
VERTEX
  5
20E
  8
A-FRAME
 10
21.99372566218983
 20
21.49095437182304
 30
0.0
  0
VERTEX
  5
20F
  8
A-FRAME
 10
22.08031289089707
 20
21.48108345729641
 30
0.0
  0
VERTEX
  5
210
  8
A-FRAME
 10
22.1672706435518
 20
21.47130338394988
 30
0.0
  0
VERTEX
  5
211
  8
A-FRAME
 10
22.25459548721086
 20
21.46161453788399
 30
0.0
  0
VERTEX
  5
212
  8
A-FRAME
 10
22.34228397443893
 20
21.45201730159778
 30
0.0
  0
VERTEX
  5
213
  8
A-FRAME
 10
22.43033264344467
 20
21.44251205397373
 30
0.0
  0
VERTEX
  5
214
  8
A-FRAME
 10
22.51873801821742
 20
21.43309917026273
 30
0.0
  0
VERTEX
  5
215
  8
A-FRAME
 10
22.60749660866433
 20
21.42377902206931
 30
0.0
  0
VERTEX
  5
216
  8
A-FRAME
 10
22.69660491074826
 20
21.41455197733697
 30
0.0
  0
VERTEX
  5
217
  8
A-FRAME
 10
22.78605940662599
 20
21.40541840033362
 30
0.0
  0
VERTEX
  5
218
  8
A-FRAME
 10
22.87585656478721
 20
21.39637865163726
 30
0.0
  0
VERTEX
  5
219
  8
A-FRAME
 10
22.96599284019388
 20
21.38743308812168
 30
0.0
  0
VERTEX
  5
21A
  8
A-FRAME
 10
23.05646467442017
 20
21.37858206294241
 30
0.0
  0
VERTEX
  5
21B
  8
A-FRAME
 10
23.14726849579298
 20
21.36982592552277
 30
0.0
  0
VERTEX
  5
21C
  8
A-FRAME
 10
23.23840071953293
 20
21.36116502154007
 30
0.0
  0
VERTEX
  5
21D
  8
A-FRAME
 10
23.32985774789586
 20
21.35259969291198
 30
0.0
  0
VERTEX
  5
21E
  8
A-FRAME
 10
23.4216359703149
 20
21.34413027778299
 30
0.0
  0
VERTEX
  5
21F
  8
A-FRAME
 10
23.51373176354298
 20
21.33575711051112
 30
0.0
  0
VERTEX
  5
220
  8
A-FRAME
 10
23.60614149179586
 20
21.32748052165468
 30
0.0
  0
VERTEX
  5
221
  8
A-FRAME
 10
23.69886150689571
 20
21.31930083795922
 30
0.0
  0
VERTEX
  5
222
  8
A-FRAME
 10
23.7918881484151
 20
21.31121838234464
 30
0.0
  0
VERTEX
  5
223
  8
A-FRAME
 10
23.88521774382151
 20
21.30323347389246
 30
0.0
  0
VERTEX
  5
224
  8
A-FRAME
 10
23.97884660862231
 20
21.29534642783319
 30
0.0
  0
VERTEX
  5
225
  8
A-FRAME
 10
24.07277104651024
 20
21.2875575555339
 30
0.0
  0
VERTEX
  5
226
  8
A-FRAME
 10
24.16698734950933
 20
21.27986716448594
 30
0.0
  0
VERTEX
  5
227
  8
A-FRAME
 10
24.26149179812123
 20
21.27227555829276
 30
0.0
  0
VERTEX
  5
228
  8
A-FRAME
 10
24.35628066147216
 20
21.264783036658
 30
0.0
  0
VERTEX
  5
229
  8
A-FRAME
 10
24.45135019746008
 20
21.25738989537357
 30
0.0
  0
VERTEX
  5
22A
  8
A-FRAME
 10
24.5466966529025
 20
21.25009642630803
 30
0.0
  0
VERTEX
  5
22B
  8
A-FRAME
 10
24.64231626368462
 20
21.24290291739505
 30
0.0
  0
VERTEX
  5
22C
  8
A-FRAME
 10
24.73820525490793
 20
21.23580965262205
 30
0.0
  0
VERTEX
  5
22D
  8
A-FRAME
 10
24.83435984103925
 20
21.22881691201898
 30
0.0
  0
VERTEX
  5
22E
  8
A-FRAME
 10
24.93077622606015
 20
21.22192497164725
 30
0.0
  0
VERTEX
  5
22F
  8
A-FRAME
 10
25.02745060361686
 20
21.21513410358888
 30
0.0
  0
VERTEX
  5
230
  8
A-FRAME
 10
25.12437915717047
 20
21.2084445759357
 30
0.0
  0
VERTEX
  5
231
  8
A-FRAME
 10
25.22155806014766
 20
21.20185665277883
 30
0.0
  0
VERTEX
  5
232
  8
A-FRAME
 10
25.31898347609174
 20
21.19537059419817
 30
0.0
  0
VERTEX
  5
233
  8
A-FRAME
 10
25.41665155881411
 20
21.18898665625222
 30
0.0
  0
VERTEX
  5
234
  8
A-FRAME
 10
25.51455845254608
 20
21.18270509096792
 30
0.0
  0
VERTEX
  5
235
  8
A-FRAME
 10
25.61270029209116
 20
21.17652614633071
 30
0.0
  0
VERTEX
  5
236
  8
A-FRAME
 10
25.71107320297754
 20
21.17045006627474
 30
0.0
  0
VERTEX
  5
237
  8
A-FRAME
 10
25.80967330161116
 20
21.16447709067325
 30
0.0
  0
VERTEX
  5
238
  8
A-FRAME
 10
25.90849669542895
 20
21.15860745532909
 30
0.0
  0
VERTEX
  5
239
  8
A-FRAME
 10
26.00753948305253
 20
21.15284139196541
 30
0.0
  0
VERTEX
  5
23A
  8
A-FRAME
 10
26.10679775444224
 20
21.14717912821652
 30
0.0
  0
VERTEX
  5
23B
  8
A-FRAME
 10
26.20626759105149
 20
21.1416208876189
 30
0.0
  0
VERTEX
  5
23C
  8
A-FRAME
 10
26.30594506598142
 20
21.13616688960237
 30
0.0
  0
VERTEX
  5
23D
  8
A-FRAME
 10
26.40582624413603
 20
21.13081734948143
 30
0.0
  0
VERTEX
  5
23E
  8
A-FRAME
 10
26.50590718237741
 20
21.12557247844677
 30
0.0
  0
VERTEX
  5
23F
  8
A-FRAME
 10
26.60618392968149
 20
21.12043248355691
 30
0.0
  0
VERTEX
  5
240
  8
A-FRAME
 10
26.70665252729399
 20
21.11539756773005
 30
0.0
  0
VERTEX
  5
241
  8
A-FRAME
 10
26.8073090088867
 20
21.11046792973606
 30
0.0
  0
VERTEX
  5
242
  8
A-FRAME
 10
26.90814940071409
 20
21.10564376418858
 30
0.0
  0
VERTEX
  5
243
  8
A-FRAME
 10
27.00916972177015
 20
21.10092526153743
 30
0.0
  0
VERTEX
  5
244
  8
A-FRAME
 10
27.11036598394557
 20
21.096312608061
 30
0.0
  0
VERTEX
  5
245
  8
A-FRAME
 10
27.2117341921852
 20
21.09180598585896
 30
0.0
  0
VERTEX
  5
246
  8
A-FRAME
 10
27.31327034464577
 20
21.08740557284503
 30
0.0
  0
VERTEX
  5
247
  8
A-FRAME
 10
27.41497043285381
 20
21.08311154273999
 30
0.0
  0
VERTEX
  5
248
  8
A-FRAME
 10
27.51683044186398
 20
21.07892406506479
 30
0.0
  0
VERTEX
  5
249
  8
A-FRAME
 10
27.61884635041755
 20
21.07484330513387
 30
0.0
  0
VERTEX
  5
24A
  8
A-FRAME
 10
27.72101413110112
 20
21.07086942404866
 30
0.0
  0
VERTEX
  5
24B
  8
A-FRAME
 10
27.82332975050566
 20
21.06700257869118
 30
0.0
  0
VERTEX
  5
24C
  8
A-FRAME
 10
27.92578916938569
 20
21.06324292171786
 30
0.0
  0
VERTEX
  5
24D
  8
A-FRAME
 10
28.02838834281881
 20
21.05959060155351
 30
0.0
  0
VERTEX
  5
24E
  8
A-FRAME
 10
28.13112322036531
 20
21.05604576238549
 30
0.0
  0
VERTEX
  5
24F
  8
A-FRAME
 10
28.23398974622815
 20
21.05260854415798
 30
0.0
  0
VERTEX
  5
250
  8
A-FRAME
 10
28.33698385941302
 20
21.04927908256646
 30
0.0
  0
VERTEX
  5
251
  8
A-FRAME
 10
28.44010149388869
 20
21.04605750905239
 30
0.0
  0
VERTEX
  5
252
  8
A-FRAME
 10
28.54333857874752
 20
21.04294395079795
 30
0.0
  0
VERTEX
  5
253
  8
A-FRAME
 10
28.64669103836615
 20
21.03993853072111
 30
0.0
  0
VERTEX
  5
254
  8
A-FRAME
 10
28.75015479256646
 20
21.0370413674707
 30
0.0
  0
VERTEX
  5
255
  8
A-FRAME
 10
28.85372575677658
 20
21.03425257542177
 30
0.0
  0
VERTEX
  5
256
  8
A-FRAME
 10
28.9573998421922
 20
21.03157226467105
 30
0.0
  0
VERTEX
  5
257
  8
A-FRAME
 10
29.06117295593793
 20
21.02900054103262
 30
0.0
  0
VERTEX
  5
258
  8
A-FRAME
 10
29.16504100122895
 20
21.02653750603372
 30
0.0
  0
VERTEX
  5
259
  8
A-FRAME
 10
29.26899987753266
 20
21.02418325691077
 30
0.0
  0
VERTEX
  5
25A
  8
A-FRAME
 10
29.37304548073064
 20
21.02193788660548
 30
0.0
  0
VERTEX
  5
25B
  8
A-FRAME
 10
29.47717370328062
 20
21.01980148376123
 30
0.0
  0
VERTEX
  5
25C
  8
A-FRAME
 10
29.58138043437869
 20
21.01777413271954
 30
0.0
  0
VERTEX
  5
25D
  8
A-FRAME
 10
29.68566156012152
 20
21.01585591351677
 30
0.0
  0
VERTEX
  5
25E
  8
A-FRAME
 10
29.79001296366882
 20
21.01404690188092
 30
0.0
  0
VERTEX
  5
25F
  8
A-FRAME
 10
29.89443052540587
 20
21.01234716922868
 30
0.0
  0
VERTEX
  5
260
  8
A-FRAME
 10
29.99891012310613
 20
21.01075678266257
 30
0.0
  0
VERTEX
  5
261
  8
A-FRAME
 10
30.10344763209395
 20
21.00927580496834
 30
0.0
  0
VERTEX
  5
262
  8
A-FRAME
 10
30.20803892540751
 20
21.00790429461246
 30
0.0
  0
VERTEX
  5
263
  8
A-FRAME
 10
30.31267987396161
 20
21.0066423057398
 30
0.0
  0
VERTEX
  5
264
  8
A-FRAME
 10
30.41736634671079
 20
21.00548988817151
 30
0.0
  0
VERTEX
  5
265
  8
A-FRAME
 10
30.52209421081235
 20
21.00444708740309
 30
0.0
  0
VERTEX
  5
266
  8
A-FRAME
 10
30.62685933178954
 20
21.0035139446025
 30
0.0
  0
VERTEX
  5
267
  8
A-FRAME
 10
30.73165757369477
 20
21.00269049660864
 30
0.0
  0
VERTEX
  5
268
  8
A-FRAME
 10
30.8364847992729
 20
21.00197677592982
 30
0.0
  0
VERTEX
  5
269
  8
A-FRAME
 10
30.94133687012454
 20
21.00137281074251
 30
0.0
  0
VERTEX
  5
26A
  8
A-FRAME
 10
31.04620964686949
 20
21.00087862489022
 30
0.0
  0
VERTEX
  5
26B
  8
A-FRAME
 10
31.15109898931009
 20
21.00049423788256
 30
0.0
  0
VERTEX
  5
26C
  8
A-FRAME
 10
31.25600075659469
 20
21.00021966489448
 30
0.0
  0
VERTEX
  5
26D
  8
A-FRAME
 10
31.36091080738114
 20
21.00005491676564
 30
0.0
  0
VERTEX
  5
26E
  8
A-FRAME
 10
31.46582500000027
 20
21.00000000000002
 30
0.0
  0
VERTEX
  5
26F
  8
A-FRAME
 10
31.57073919261941
 20
21.00005491676564
 30
0.0
  0
VERTEX
  5
270
  8
A-FRAME
 10
31.67564924340586
 20
21.00021966489448
 30
0.0
  0
VERTEX
  5
271
  8
A-FRAME
 10
31.78055101069046
 20
21.00049423788256
 30
0.0
  0
VERTEX
  5
272
  8
A-FRAME
 10
31.88544035313105
 20
21.00087862489022
 30
0.0
  0
VERTEX
  5
273
  8
A-FRAME
 10
31.990313129876
 20
21.00137281074251
 30
0.0
  0
VERTEX
  5
274
  8
A-FRAME
 10
32.09516520072765
 20
21.00197677592982
 30
0.0
  0
VERTEX
  5
275
  8
A-FRAME
 10
32.19999242630578
 20
21.00269049660864
 30
0.0
  0
VERTEX
  5
276
  8
A-FRAME
 10
32.30479066821101
 20
21.0035139446025
 30
0.0
  0
VERTEX
  5
277
  8
A-FRAME
 10
32.4095557891882
 20
21.00444708740309
 30
0.0
  0
VERTEX
  5
278
  8
A-FRAME
 10
32.51428365328976
 20
21.00548988817151
 30
0.0
  0
VERTEX
  5
279
  8
A-FRAME
 10
32.61897012603894
 20
21.0066423057398
 30
0.0
  0
VERTEX
  5
27A
  8
A-FRAME
 10
32.72361107459304
 20
21.00790429461246
 30
0.0
  0
VERTEX
  5
27B
  8
A-FRAME
 10
32.82820236790659
 20
21.00927580496834
 30
0.0
  0
VERTEX
  5
27C
  8
A-FRAME
 10
32.93273987689442
 20
21.01075678266257
 30
0.0
  0
VERTEX
  5
27D
  8
A-FRAME
 10
33.03721947459467
 20
21.01234716922868
 30
0.0
  0
VERTEX
  5
27E
  8
A-FRAME
 10
33.14163703633172
 20
21.01404690188092
 30
0.0
  0
VERTEX
  5
27F
  8
A-FRAME
 10
33.24598843987904
 20
21.01585591351677
 30
0.0
  0
VERTEX
  5
280
  8
A-FRAME
 10
33.35026956562186
 20
21.01777413271954
 30
0.0
  0
VERTEX
  5
281
  8
A-FRAME
 10
33.45447629671992
 20
21.01980148376123
 30
0.0
  0
VERTEX
  5
282
  8
A-FRAME
 10
33.55860451926991
 20
21.02193788660548
 30
0.0
  0
VERTEX
  5
283
  8
A-FRAME
 10
33.66265012246789
 20
21.02418325691077
 30
0.0
  0
VERTEX
  5
284
  8
A-FRAME
 10
33.7666089987716
 20
21.02653750603372
 30
0.0
  0
VERTEX
  5
285
  8
A-FRAME
 10
33.87047704406261
 20
21.02900054103262
 30
0.0
  0
VERTEX
  5
286
  8
A-FRAME
 10
33.97425015780835
 20
21.03157226467105
 30
0.0
  0
VERTEX
  5
287
  8
A-FRAME
 10
34.07792424322397
 20
21.03425257542177
 30
0.0
  0
VERTEX
  5
288
  8
A-FRAME
 10
34.18149520743409
 20
21.03704136747071
 30
0.0
  0
VERTEX
  5
289
  8
A-FRAME
 10
34.2849589616344
 20
21.03993853072111
 30
0.0
  0
VERTEX
  5
28A
  8
A-FRAME
 10
34.38831142125304
 20
21.04294395079796
 30
0.0
  0
VERTEX
  5
28B
  8
A-FRAME
 10
34.49154850611185
 20
21.04605750905239
 30
0.0
  0
VERTEX
  5
28C
  8
A-FRAME
 10
34.59466614058752
 20
21.04927908256647
 30
0.0
  0
VERTEX
  5
28D
  8
A-FRAME
 10
34.69766025377239
 20
21.05260854415798
 30
0.0
  0
VERTEX
  5
28E
  8
A-FRAME
 10
34.80052677963523
 20
21.0560457623855
 30
0.0
  0
VERTEX
  5
28F
  8
A-FRAME
 10
34.90326165718174
 20
21.05959060155352
 30
0.0
  0
VERTEX
  5
290
  8
A-FRAME
 10
35.00586083061485
 20
21.06324292171786
 30
0.0
  0
VERTEX
  5
291
  8
A-FRAME
 10
35.10832024949489
 20
21.06700257869118
 30
0.0
  0
VERTEX
  5
292
  8
A-FRAME
 10
35.21063586889942
 20
21.07086942404867
 30
0.0
  0
VERTEX
  5
293
  8
A-FRAME
 10
35.312803649583
 20
21.07484330513387
 30
0.0
  0
VERTEX
  5
294
  8
A-FRAME
 10
35.41481955813656
 20
21.07892406506478
 30
0.0
  0
VERTEX
  5
295
  8
A-FRAME
 10
35.51667956714674
 20
21.08311154273999
 30
0.0
  0
VERTEX
  5
296
  8
A-FRAME
 10
35.61837965535478
 20
21.08740557284503
 30
0.0
  0
VERTEX
  5
297
  8
A-FRAME
 10
35.71991580781534
 20
21.09180598585896
 30
0.0
  0
VERTEX
  5
298
  8
A-FRAME
 10
35.82128401605497
 20
21.096312608061
 30
0.0
  0
VERTEX
  5
299
  8
A-FRAME
 10
35.9224802782304
 20
21.10092526153743
 30
0.0
  0
VERTEX
  5
29A
  8
A-FRAME
 10
36.02350059928645
 20
21.10564376418858
 30
0.0
  0
VERTEX
  5
29B
  8
A-FRAME
 10
36.12434099111384
 20
21.11046792973606
 30
0.0
  0
VERTEX
  5
29C
  8
A-FRAME
 10
36.22499747270655
 20
21.11539756773006
 30
0.0
  0
VERTEX
  5
29D
  8
A-FRAME
 10
36.32546607031905
 20
21.12043248355691
 30
0.0
  0
VERTEX
  5
29E
  8
A-FRAME
 10
36.42574281762313
 20
21.12557247844677
 30
0.0
  0
VERTEX
  5
29F
  8
A-FRAME
 10
36.52582375586451
 20
21.13081734948143
 30
0.0
  0
VERTEX
  5
2A0
  8
A-FRAME
 10
36.62570493401912
 20
21.13616688960237
 30
0.0
  0
VERTEX
  5
2A1
  8
A-FRAME
 10
36.72538240894906
 20
21.1416208876189
 30
0.0
  0
VERTEX
  5
2A2
  8
A-FRAME
 10
36.8248522455583
 20
21.14717912821652
 30
0.0
  0
VERTEX
  5
2A3
  8
A-FRAME
 10
36.92411051694801
 20
21.15284139196541
 30
0.0
  0
VERTEX
  5
2A4
  8
A-FRAME
 10
37.02315330457159
 20
21.15860745532909
 30
0.0
  0
VERTEX
  5
2A5
  8
A-FRAME
 10
37.12197669838937
 20
21.16447709067325
 30
0.0
  0
VERTEX
  5
2A6
  8
A-FRAME
 10
37.22057679702299
 20
21.17045006627474
 30
0.0
  0
VERTEX
  5
2A7
  8
A-FRAME
 10
37.31894970790938
 20
21.17652614633071
 30
0.0
  0
VERTEX
  5
2A8
  8
A-FRAME
 10
37.41709154745445
 20
21.18270509096792
 30
0.0
  0
VERTEX
  5
2A9
  8
A-FRAME
 10
37.51499844118643
 20
21.18898665625223
 30
0.0
  0
VERTEX
  5
2AA
  8
A-FRAME
 10
37.61266652390879
 20
21.19537059419817
 30
0.0
  0
VERTEX
  5
2AB
  8
A-FRAME
 10
37.71009193985287
 20
21.20185665277883
 30
0.0
  0
VERTEX
  5
2AC
  8
A-FRAME
 10
37.80727084283006
 20
21.20844457593571
 30
0.0
  0
VERTEX
  5
2AD
  8
A-FRAME
 10
37.90419939638367
 20
21.21513410358888
 30
0.0
  0
VERTEX
  5
2AE
  8
A-FRAME
 10
38.00087377394038
 20
21.22192497164725
 30
0.0
  0
VERTEX
  5
2AF
  8
A-FRAME
 10
38.09729015896129
 20
21.22881691201898
 30
0.0
  0
VERTEX
  5
2B0
  8
A-FRAME
 10
38.1934447450926
 20
21.23580965262206
 30
0.0
  0
VERTEX
  5
2B1
  8
A-FRAME
 10
38.28933373631591
 20
21.24290291739506
 30
0.0
  0
VERTEX
  5
2B2
  8
A-FRAME
 10
38.38495334709803
 20
21.25009642630803
 30
0.0
  0
VERTEX
  5
2B3
  8
A-FRAME
 10
38.48029980254045
 20
21.25738989537357
 30
0.0
  0
VERTEX
  5
2B4
  8
A-FRAME
 10
38.57536933852838
 20
21.264783036658
 30
0.0
  0
VERTEX
  5
2B5
  8
A-FRAME
 10
38.6701582018793
 20
21.27227555829277
 30
0.0
  0
VERTEX
  5
2B6
  8
A-FRAME
 10
38.76466265049121
 20
21.27986716448594
 30
0.0
  0
VERTEX
  5
2B7
  8
A-FRAME
 10
38.85887895349029
 20
21.2875575555339
 30
0.0
  0
VERTEX
  5
2B8
  8
A-FRAME
 10
38.95280339137823
 20
21.29534642783319
 30
0.0
  0
VERTEX
  5
2B9
  8
A-FRAME
 10
39.04643225617902
 20
21.30323347389246
 30
0.0
  0
VERTEX
  5
2BA
  8
A-FRAME
 10
39.13976185158543
 20
21.31121838234465
 30
0.0
  0
VERTEX
  5
2BB
  8
A-FRAME
 10
39.23278849310482
 20
21.31930083795922
 30
0.0
  0
VERTEX
  5
2BC
  8
A-FRAME
 10
39.32550850820466
 20
21.32748052165468
 30
0.0
  0
VERTEX
  5
2BD
  8
A-FRAME
 10
39.41791823645755
 20
21.33575711051112
 30
0.0
  0
VERTEX
  5
2BE
  8
A-FRAME
 10
39.51001402968562
 20
21.34413027778299
 30
0.0
  0
VERTEX
  5
2BF
  8
A-FRAME
 10
39.60179225210467
 20
21.35259969291198
 30
0.0
  0
VERTEX
  5
2C0
  8
A-FRAME
 10
39.6932492804676
 20
21.36116502154007
 30
0.0
  0
VERTEX
  5
2C1
  8
A-FRAME
 10
39.78438150420754
 20
21.36982592552277
 30
0.0
  0
VERTEX
  5
2C2
  8
A-FRAME
 10
39.87518532558036
 20
21.37858206294241
 30
0.0
  0
VERTEX
  5
2C3
  8
A-FRAME
 10
39.96565715980664
 20
21.38743308812168
 30
0.0
  0
VERTEX
  5
2C4
  8
A-FRAME
 10
40.0557934352133
 20
21.39637865163726
 30
0.0
  0
VERTEX
  5
2C5
  8
A-FRAME
 10
40.14559059337454
 20
21.40541840033363
 30
0.0
  0
VERTEX
  5
2C6
  8
A-FRAME
 10
40.23504508925227
 20
21.41455197733697
 30
0.0
  0
VERTEX
  5
2C7
  8
A-FRAME
 10
40.32415339133618
 20
21.42377902206932
 30
0.0
  0
VERTEX
  5
2C8
  8
A-FRAME
 10
40.41291198178311
 20
21.43309917026274
 30
0.0
  0
VERTEX
  5
2C9
  8
A-FRAME
 10
40.50131735655586
 20
21.44251205397374
 30
0.0
  0
VERTEX
  5
2CA
  8
A-FRAME
 10
40.5893660255616
 20
21.45201730159778
 30
0.0
  0
VERTEX
  5
2CB
  8
A-FRAME
 10
40.67705451278967
 20
21.46161453788399
 30
0.0
  0
VERTEX
  5
2CC
  8
A-FRAME
 10
40.76437935644873
 20
21.47130338394988
 30
0.0
  0
VERTEX
  5
2CD
  8
A-FRAME
 10
40.85133710910345
 20
21.48108345729641
 30
0.0
  0
VERTEX
  5
2CE
  8
A-FRAME
 10
40.9379243378107
 20
21.49095437182304
 30
0.0
  0
VERTEX
  5
2CF
  8
A-FRAME
 10
41.02413762425491
 20
21.50091573784296
 30
0.0
  0
VERTEX
  5
2D0
  8
A-FRAME
 10
41.10997356488316
 20
21.51096716209848
 30
0.0
  0
VERTEX
  5
2D1
  8
A-FRAME
 10
41.19542877103952
 20
21.52110824777661
 30
0.0
  0
VERTEX
  5
2D2
  8
A-FRAME
 10
41.28049986909872
 20
21.53133859452463
 30
0.0
  0
VERTEX
  5
2D3
  8
A-FRAME
 10
41.36518350059953
 20
21.54165779846598
 30
0.0
  0
VERTEX
  5
2D4
  8
A-FRAME
 10
41.44947632237714
 20
21.55206545221614
 30
0.0
  0
VERTEX
  5
2D5
  8
A-FRAME
 10
41.53337500669529
 20
21.56256114489879
 30
0.0
  0
VERTEX
  5
2D6
  8
A-FRAME
 10
41.61687624137758
 20
21.57314446216192
 30
0.0
  0
VERTEX
  5
2D7
  8
A-FRAME
 10
41.69997672993826
 20
21.58381498619432
 30
0.0
  0
VERTEX
  5
2D8
  8
A-FRAME
 10
41.78267319171231
 20
21.59457229574194
 30
0.0
  0
VERTEX
  5
2D9
  8
A-FRAME
 10
41.86496236198501
 20
21.60541596612464
 30
0.0
  0
VERTEX
  5
2DA
  8
A-FRAME
 10
41.94684099212084
 20
21.61634556925288
 30
0.0
  0
VERTEX
  5
2DB
  8
A-FRAME
 10
42.02830584969169
 20
21.62736067364463
 30
0.0
  0
VERTEX
  5
2DC
  8
A-FRAME
 10
42.10935371860444
 20
21.63846084444244
 30
0.0
  0
VERTEX
  5
2DD
  8
A-FRAME
 10
42.18998139922803
 20
21.64964564343057
 30
0.0
  0
VERTEX
  5
2DE
  8
A-FRAME
 10
42.27018570851968
 20
21.66091462905231
 30
0.0
  0
VERTEX
  5
2DF
  8
A-FRAME
 10
42.34996348015058
 20
21.6722673564274
 30
0.0
  0
VERTEX
  5
2E0
  8
A-FRAME
 10
42.42931156463091
 20
21.6837033773696
 30
0.0
  0
VERTEX
  5
2E1
  8
A-FRAME
 10
42.50822682943416
 20
21.69522224040439
 30
0.0
  0
VERTEX
  5
2E2
  8
A-FRAME
 10
42.58670615912082
 20
21.70682349078678
 30
0.0
  0
VERTEX
  5
2E3
  8
A-FRAME
 10
42.6647464554613
 20
21.71850667051927
 30
0.0
  0
VERTEX
  5
2E4
  8
A-FRAME
 10
42.74234463755836
 20
21.73027131836993
 30
0.0
  0
VERTEX
  5
2E5
  8
A-FRAME
 10
42.81949764196861
 20
21.7421169698906
 30
0.0
  0
VERTEX
  5
2E6
  8
A-FRAME
 10
42.89620242282356
 20
21.75404315743524
 30
0.0
  0
VERTEX
  5
2E7
  8
A-FRAME
 10
42.9724559519498
 20
21.7660494101784
 30
0.0
  0
VERTEX
  5
2E8
  8
A-FRAME
 10
43.04825521898857
 20
21.77813525413377
 30
0.0
  0
VERTEX
  5
2E9
  8
A-FRAME
 10
43.12359723151458
 20
21.79030021217293
 30
0.0
  0
VERTEX
  5
2EA
  8
A-FRAME
 10
43.19847901515421
 20
21.80254380404416
 30
0.0
  0
VERTEX
  5
2EB
  8
A-FRAME
 10
43.27289761370282
 20
21.81486554639141
 30
0.0
  0
VERTEX
  5
2EC
  8
A-FRAME
 10
43.3468500892416
 20
21.82726495277342
 30
0.0
  0
VERTEX
  5
2ED
  8
A-FRAME
 10
43.42033352225343
 20
21.83974153368282
 30
0.0
  0
VERTEX
  5
2EE
  8
A-FRAME
 10
43.4933450117382
 20
21.85229479656559
 30
0.0
  0
VERTEX
  5
2EF
  8
A-FRAME
 10
43.56588167532732
 20
21.86492424584039
 30
0.0
  0
VERTEX
  5
2F0
  8
A-FRAME
 10
43.63794064939751
 20
21.87762938291819
 30
0.0
  0
VERTEX
  5
2F1
  8
A-FRAME
 10
43.70951908918387
 20
21.89040970622193
 30
0.0
  0
VERTEX
  5
2F2
  8
A-FRAME
 10
43.78061416889214
 20
21.90326471120633
 30
0.0
  0
VERTEX
  5
2F3
  8
A-FRAME
 10
43.85122308181033
 20
21.91619389037782
 30
0.0
  0
VERTEX
  5
2F4
  8
A-FRAME
 10
43.92134304041944
 20
21.92919673331452
 30
0.0
  0
VERTEX
  5
2F5
  8
A-FRAME
 10
43.99097127650359
 20
21.94227272668648
 30
0.0
  0
VERTEX
  5
2F6
  8
A-FRAME
 10
44.06010504125921
 20
21.95542135427585
 30
0.0
  0
VERTEX
  5
2F7
  8
A-FRAME
 10
44.12874160540368
 20
21.96864209699733
 30
0.0
  0
VERTEX
  5
2F8
  8
A-FRAME
 10
44.19687825928294
 20
21.98193443291865
 30
0.0
  0
VERTEX
  5
2F9
  8
A-FRAME
 10
44.26451231297858
 20
21.99529783728114
 30
0.0
  0
VERTEX
  5
2FA
  8
A-FRAME
 10
44.33164109641397
 20
22.00873178252047
 30
0.0
  0
VERTEX
  5
2FB
  8
A-FRAME
 10
44.39826195945967
 20
22.02223573828749
 30
0.0
  0
VERTEX
  5
2FC
  8
A-FRAME
 10
44.4643722720381
 20
22.03580917146915
 30
0.0
  0
VERTEX
  5
2FD
  8
A-FRAME
 10
44.52996942422732
 20
22.04945154620955
 30
0.0
  0
VERTEX
  5
2FE
  8
A-FRAME
 10
44.59505082636406
 20
22.0631623239311
 30
0.0
  0
VERTEX
  5
2FF
  8
A-FRAME
 10
44.659613909146
 20
22.07694096335576
 30
0.0
  0
VERTEX
  5
300
  8
A-FRAME
 10
44.72365612373321
 20
22.09078692052644
 30
0.0
  0
VERTEX
  5
301
  8
A-FRAME
 10
44.78717494184868
 20
22.10469964882846
 30
0.0
  0
VERTEX
  5
302
  8
A-FRAME
 10
44.85016785587825
 20
22.11867859901114
 30
0.0
  0
VERTEX
  5
303
  8
A-FRAME
 10
44.91263237896955
 20
22.13272321920946
 30
0.0
  0
VERTEX
  5
304
  8
A-FRAME
 10
44.97456604513015
 20
22.14683295496585
 30
0.0
  0
VERTEX
  5
305
  8
A-FRAME
 10
45.03596640932496
 20
22.16100724925211
 30
0.0
  0
VERTEX
  5
306
  8
A-FRAME
 10
45.09683104757272
 20
22.17524554249137
 30
0.0
  0
VERTEX
  5
307
  8
A-FRAME
 10
45.15715755704174
 20
22.18954727258019
 30
0.0
  0
VERTEX
  5
308
  8
A-FRAME
 10
45.21694355614474
 20
22.20391187491077
 30
0.0
  0
VERTEX
  5
309
  8
A-FRAME
 10
45.27618668463282
 20
22.21833878239319
 30
0.0
  0
VERTEX
  5
30A
  8
A-FRAME
 10
45.33488460368872
 20
22.23282742547785
 30
0.0
  0
VERTEX
  5
30B
  8
A-FRAME
 10
45.3930349960191
 20
22.24737723217793
 30
0.0
  0
VERTEX
  5
30C
  8
A-FRAME
 10
45.45063556594604
 20
22.26198762809197
 30
0.0
  0
VERTEX
  5
30D
  8
A-FRAME
 10
45.50768403949768
 20
22.27665803642656
 30
0.0
  0
VERTEX
  5
30E
  8
A-FRAME
 10
45.56417816449794
 20
22.2913878780191
 30
0.0
  0
VERTEX
  5
30F
  8
A-FRAME
 10
45.62011571065551
 20
22.30617657136067
 30
0.0
  0
VERTEX
  5
310
  8
A-FRAME
 10
45.67549446965187
 20
22.32102353261898
 30
0.0
  0
VERTEX
  5
311
  8
A-FRAME
 10
45.7303122552284
 20
22.3359281756614
 30
0.0
  0
VERTEX
  5
312
  8
A-FRAME
 10
45.78456690327282
 20
22.35088991207817
 30
0.0
  0
VERTEX
  5
313
  8
A-FRAME
 10
45.8382562719045
 20
22.36590815120555
 30
0.0
  0
VERTEX
  5
314
  8
A-FRAME
 10
45.89137824155911
 20
22.38098230014916
 30
0.0
  0
VERTEX
  5
315
  8
A-FRAME
 10
45.94393071507226
 20
22.39611176380742
 30
0.0
  0
VERTEX
  5
316
  8
A-FRAME
 10
45.99591161776226
 20
22.41129594489501
 30
0.0
  0
VERTEX
  5
317
  8
A-FRAME
 10
46.04731889751208
 20
22.42653424396646
 30
0.0
  0
VERTEX
  5
318
  8
A-FRAME
 10
46.09815052485034
 20
22.44182605943982
 30
0.0
  0
VERTEX
  5
319
  8
A-FRAME
 10
46.14840449303145
 20
22.45717078762038
 30
0.0
  0
VERTEX
  5
31A
  8
A-FRAME
 10
46.19807881811477
 20
22.47256782272457
 30
0.0
  0
VERTEX
  5
31B
  8
A-FRAME
 10
46.24717153904299
 20
22.4880165569038
 30
0.0
  0
VERTEX
  5
31C
  8
A-FRAME
 10
46.29568071771959
 20
22.50351638026849
 30
0.0
  0
VERTEX
  5
31D
  8
A-FRAME
 10
46.34360443908523
 20
22.51906668091216
 30
0.0
  0
VERTEX
  5
31E
  8
A-FRAME
 10
46.39094081119346
 20
22.53466684493557
 30
0.0
  0
VERTEX
  5
31F
  8
A-FRAME
 10
46.43768796528535
 20
22.55031625647095
 30
0.0
  0
VERTEX
  5
320
  8
A-FRAME
 10
46.4838440558633
 20
22.56601429770632
 30
0.0
  0
VERTEX
  5
321
  8
A-FRAME
 10
46.5294072607639
 20
22.58176034890991
 30
0.0
  0
VERTEX
  5
322
  8
A-FRAME
 10
46.57437578122983
 20
22.59755378845458
 30
0.0
  0
VERTEX
  5
323
  8
A-FRAME
 10
46.61874784198089
 20
22.61339399284235
 30
0.0
  0
VERTEX
  5
324
  8
A-FRAME
 10
46.66252169128411
 20
22.62928033672911
 30
0.0
  0
VERTEX
  5
325
  8
A-FRAME
 10
46.70569560102288
 20
22.64521219294919
 30
0.0
  0
VERTEX
  5
326
  8
A-FRAME
 10
46.74826786676516
 20
22.66118893254018
 30
0.0
  0
VERTEX
  5
327
  8
A-FRAME
 10
46.79023680783079
 20
22.67720992476777
 30
0.0
  0
VERTEX
  5
328
  8
A-FRAME
 10
46.83160076735784
 20
22.6932745371506
 30
0.0
  0
VERTEX
  5
329
  8
A-FRAME
 10
46.87235811236802
 20
22.7093821354853
 30
0.0
  0
VERTEX
  5
32A
  8
A-FRAME
 10
46.91250723383114
 20
22.72553208387146
 30
0.0
  0
VERTEX
  5
32B
  8
A-FRAME
 10
46.95204654672861
 20
22.74172374473678
 30
0.0
  0
VERTEX
  5
32C
  8
A-FRAME
 10
46.99097449011609
 20
22.75795647886219
 30
0.0
  0
VERTEX
  5
32D
  8
A-FRAME
 10
47.029289527185
 20
22.77422964540717
 30
0.0
  0
VERTEX
  5
32E
  8
A-FRAME
 10
47.0669901453233
 20
22.79054260193495
 30
0.0
  0
VERTEX
  5
32F
  8
A-FRAME
 10
47.10407485617513
 20
22.80689470443795
 30
0.0
  0
VERTEX
  5
330
  8
A-FRAME
 10
47.14054219569962
 20
22.82328530736315
 30
0.0
  0
VERTEX
  5
331
  8
A-FRAME
 10
47.17639072422864
 20
22.83971376363763
 30
0.0
  0
VERTEX
  5
332
  8
A-FRAME
 10
47.21161902652366
 20
22.85617942469404
 30
0.0
  0
VERTEX
  5
333
  8
A-FRAME
 10
47.24622571183163
 20
22.8726816404963
 30
0.0
  0
VERTEX
  5
334
  8
A-FRAME
 10
47.28020941393987
 20
22.88921975956517
 30
0.0
  0
VERTEX
  5
335
  8
A-FRAME
 10
47.31356879123003
 20
22.90579312900404
 30
0.0
  0
VERTEX
  5
336
  8
A-FRAME
 10
47.34630252673097
 20
22.92240109452466
 30
0.0
  0
VERTEX
  5
337
  8
A-FRAME
 10
47.3784093281709
 20
22.93904300047298
 30
0.0
  0
VERTEX
  5
338
  8
A-FRAME
 10
47.40988792802825
 20
22.95571818985505
 30
0.0
  0
VERTEX
  5
339
  8
A-FRAME
 10
47.44073708358182
 20
22.97242600436295
 30
0.0
  0
VERTEX
  5
33A
  8
A-FRAME
 10
47.47095557695977
 20
22.98916578440078
 30
0.0
  0
VERTEX
  5
33B
  8
A-FRAME
 10
47.50054221518771
 20
23.00593686911067
 30
0.0
  0
VERTEX
  5
33C
  8
A-FRAME
 10
47.52949583023582
 20
23.02273859639892
 30
0.0
  0
VERTEX
  5
33D
  8
A-FRAME
 10
47.55781527906497
 20
23.03957030296211
 30
0.0
  0
VERTEX
  5
33E
  8
A-FRAME
 10
47.58549944367179
 20
23.05643132431328
 30
0.0
  0
VERTEX
  5
33F
  8
A-FRAME
 10
47.61254723113289
 20
23.07332099480818
 30
0.0
  0
VERTEX
  5
340
  8
A-FRAME
 10
47.63895757364791
 20
23.09023864767154
 30
0.0
  0
VERTEX
  5
341
  8
A-FRAME
 10
47.66472942858178
 20
23.10718361502339
 30
0.0
  0
VERTEX
  5
342
  8
A-FRAME
 10
47.68986177850576
 20
23.12415522790543
 30
0.0
  0
VERTEX
  5
343
  8
A-FRAME
 10
47.71435363123773
 20
23.14115281630745
 30
0.0
  0
VERTEX
  5
344
  8
A-FRAME
 10
47.73820401988128
 20
23.15817570919376
 30
0.0
  0
VERTEX
  5
345
  8
A-FRAME
 10
47.7614120028639
 20
23.17522323452971
 30
0.0
  0
VERTEX
  5
346
  8
A-FRAME
 10
47.78397666397416
 20
23.19229471930817
 30
0.0
  0
VERTEX
  5
347
  8
A-FRAME
 10
47.80589711239787
 20
23.20938948957616
 30
0.0
  0
VERTEX
  5
348
  8
A-FRAME
 10
47.82717248275328
 20
23.22650687046142
 30
0.0
  0
VERTEX
  5
349
  8
A-FRAME
 10
47.84780193512518
 20
23.24364618619906
 30
0.0
  0
VERTEX
  5
34A
  8
A-FRAME
 10
47.86778465509811
 20
23.26080676015825
 30
0.0
  0
VERTEX
  5
34B
  8
A-FRAME
 10
47.88711985378852
 20
23.27798791486891
 30
0.0
  0
VERTEX
  5
34C
  8
A-FRAME
 10
47.90580676787586
 20
23.29518897204848
 30
0.0
  0
VERTEX
  5
34D
  8
A-FRAME
 10
47.92384465963276
 20
23.31240925262865
 30
0.0
  0
VERTEX
  5
34E
  8
A-FRAME
 10
47.94123281695415
 20
23.32964807678225
 30
0.0
  0
VERTEX
  5
34F
  8
A-FRAME
 10
47.95797055338534
 20
23.34690476395001
 30
0.0
  0
VERTEX
  5
350
  8
A-FRAME
 10
47.97405720814915
 20
23.36417863286748
 30
0.0
  0
VERTEX
  5
351
  8
A-FRAME
 10
47.98949214617201
 20
23.38146900159188
 30
0.0
  0
VERTEX
  5
352
  8
A-FRAME
 10
48.00427475810899
 20
23.39877518752906
 30
0.0
  0
VERTEX
  5
353
  8
A-FRAME
 10
48.01840446036788
 20
23.41609650746045
 30
0.0
  0
VERTEX
  5
354
  8
A-FRAME
 10
48.03188069513223
 20
23.43343227756997
 30
0.0
  0
VERTEX
  5
355
  8
A-FRAME
 10
48.04470293038337
 20
23.45078181347113
 30
0.0
  0
VERTEX
  5
356
  8
A-FRAME
 10
48.0568706599214
 20
23.46814443023393
 30
0.0
  0
VERTEX
  5
357
  8
A-FRAME
 10
48.0683834033852
 20
23.48551944241201
 30
0.0
  0
VERTEX
  5
358
  8
A-FRAME
 10
48.07924070627136
 20
23.50290616406963
 30
0.0
  0
VERTEX
  5
359
  8
A-FRAME
 10
48.08944213995217
 20
23.5203039088088
 30
0.0
  0
VERTEX
  5
35A
  8
A-FRAME
 10
48.09898730169249
 20
23.53771198979633
 30
0.0
  0
VERTEX
  5
35B
  8
A-FRAME
 10
48.10787581466566
 20
23.55512971979101
 30
0.0
  0
VERTEX
  5
35C
  8
A-FRAME
 10
48.11610732796844
 20
23.57255641117067
 30
0.0
  0
VERTEX
  5
35D
  8
A-FRAME
 10
48.12368151663475
 20
23.58999137595938
 30
0.0
  0
VERTEX
  5
35E
  8
A-FRAME
 10
48.1305980816486
 20
23.60743392585458
 30
0.0
  0
VERTEX
  5
35F
  8
A-FRAME
 10
48.13685674995585
 20
23.62488337225427
 30
0.0
  0
VERTEX
  5
360
  8
A-FRAME
 10
48.142457274475
 20
23.64233902628418
 30
0.0
  0
VERTEX
  5
361
  8
A-FRAME
 10
48.14739943410692
 20
23.65980019882498
 30
0.0
  0
VERTEX
  5
362
  8
A-FRAME
 10
48.1516830337436
 20
23.67726620053948
 30
0.0
  0
VERTEX
  5
363
  8
A-FRAME
 10
48.15530790427589
 20
23.69473634189983
 30
0.0
  0
VERTEX
  5
364
  8
A-FRAME
 10
48.15827390260007
 20
23.71220993321478
 30
0.0
  0
VERTEX
  5
365
  8
A-FRAME
 10
48.16058091162364
 20
23.72968628465684
 30
0.0
  0
VERTEX
  5
366
  8
A-FRAME
 10
48.16222884026982
 20
23.7471647062896
 30
0.0
  0
VERTEX
  5
367
  8
A-FRAME
 10
48.1632176234812
 20
23.76464450809489
 30
0.0
  0
SEQEND
  5
368
  8
A-FRAME
  0
POLYLINE
  5
42
  8
A-FRAME
 66
     1
 10
0.0
 20
0.0
 30
0.0
 70
     1
  0
VERTEX
  5
369
  8
A-FRAME
 10
6.576805555555428
 20
15.83277777777779
 30
0.0
  0
VERTEX
  5
36A
  8
A-FRAME
 10
6.396605495876866
 20
15.87111293158638
 30
0.0
  0
VERTEX
  5
36B
  8
A-FRAME
 10
6.235738932291479
 20
15.90565715928813
 30
0.0
  0
VERTEX
  5
36C
  8
A-FRAME
 10
5.977282986111273
 20
15.96185543402772
 30
0.0
  0
VERTEX
  5
36D
  8
A-FRAME
 10
5.8119911024305
 20
15.99833779730898
 30
0.0
  0
VERTEX
  5
36E
  8
A-FRAME
 10
5.750416666666748
 20
16.01206944444437
 30
0.0
  0
VERTEX
  5
36F
  8
A-FRAME
 10
4.421472222222292
 20
16.01206944444437
 30
0.0
  0
VERTEX
  5
370
  8
A-FRAME
 10
3.849791666666533
 20
13.07776388888886
 30
0.0
  0
VERTEX
  5
371
  8
A-FRAME
 10
3.004319444444263
 20
13.07776388888886
 30
0.0
  0
VERTEX
  5
372
  8
A-FRAME
 10
3.00279205030165
 20
13.07715444534881
 30
0.0
  0
VERTEX
  5
373
  8
A-FRAME
 10
2.999619352989168
 20
13.07655253734584
 30
0.0
  0
VERTEX
  5
374
  8
A-FRAME
 10
2.98852472517229
 20
13.07524587927924
 30
0.0
  0
VERTEX
  5
375
  8
A-FRAME
 10
2.948645270996167
 20
13.07134305419914
 30
0.0
  0
VERTEX
  5
376
  8
A-FRAME
 10
2.920607149908388
 20
13.06824509249793
 30
0.0
  0
VERTEX
  5
377
  8
A-FRAME
 10
2.887667903001788
 20
13.0640482348972
 30
0.0
  0
VERTEX
  5
378
  8
A-FRAME
 10
2.850200882911853
 20
13.05850158405304
 30
0.0
  0
VERTEX
  5
379
  8
A-FRAME
 10
2.808579442274102
 20
13.05135424262153
 30
0.0
  0
VERTEX
  5
37A
  8
A-FRAME
 10
2.763176933724942
 20
13.04235531325867
 30
0.0
  0
VERTEX
  5
37B
  8
A-FRAME
 10
2.739174451682167
 20
13.03708309768308
 30
0.0
  0
VERTEX
  5
37C
  8
A-FRAME
 10
2.714366709899885
 20
13.03125389862055
 30
0.0
  0
VERTEX
  5
37D
  8
A-FRAME
 10
2.68880037745749
 20
13.02483635390331
 30
0.0
  0
VERTEX
  5
37E
  8
A-FRAME
 10
2.662522123434435
 20
13.01779910136327
 30
0.0
  0
VERTEX
  5
37F
  8
A-FRAME
 10
2.635578616910159
 20
13.01011077883243
 30
0.0
  0
VERTEX
  5
380
  8
A-FRAME
 10
2.608016526964089
 20
13.00174002414281
 30
0.0
  0
VERTEX
  5
381
  8
A-FRAME
 10
2.579882522675696
 20
12.9926554751263
 30
0.0
  0
VERTEX
  5
382
  8
A-FRAME
 10
2.551223273124847
 20
12.98282576961515
 30
0.0
  0
VERTEX
  5
383
  8
A-FRAME
 10
2.522085447390509
 20
12.97221954544114
 30
0.0
  0
VERTEX
  5
384
  8
A-FRAME
 10
2.492515714552166
 20
12.96080544043639
 30
0.0
  0
VERTEX
  5
385
  8
A-FRAME
 10
2.462560743689661
 20
12.94855209243292
 30
0.0
  0
VERTEX
  5
386
  8
A-FRAME
 10
2.432267203882024
 20
12.93542813926274
 30
0.0
  0
VERTEX
  5
387
  8
A-FRAME
 10
2.401681764209123
 20
12.92140221875775
 30
0.0
  0
VERTEX
  5
388
  8
A-FRAME
 10
2.370851093749941
 20
12.90644296874996
 30
0.0
  0
VERTEX
  5
389
  8
A-FRAME
 10
2.33982186158438
 20
12.8905190270715
 30
0.0
  0
VERTEX
  5
38A
  8
A-FRAME
 10
2.308640736791865
 20
12.87359903155425
 30
0.0
  0
VERTEX
  5
38B
  8
A-FRAME
 10
2.277354388451393
 20
12.85565162003036
 30
0.0
  0
VERTEX
  5
38C
  8
A-FRAME
 10
2.246009485643306
 20
12.83664543033172
 30
0.0
  0
VERTEX
  5
38D
  8
A-FRAME
 10
2.21465269744613
 20
12.81654910029033
 30
0.0
  0
VERTEX
  5
38E
  8
A-FRAME
 10
2.183330692939759
 20
12.79533126773834
 30
0.0
  0
VERTEX
  5
38F
  8
A-FRAME
 10
2.152090141203651
 20
12.77296057050751
 30
0.0
  0
VERTEX
  5
390
  8
A-FRAME
 10
2.120977711317213
 20
12.7494056464301
 30
0.0
  0
VERTEX
  5
391
  8
A-FRAME
 10
2.090040072359901
 20
12.72463513333799
 30
0.0
  0
VERTEX
  5
392
  8
A-FRAME
 10
2.059323893411612
 20
12.69861766906309
 30
0.0
  0
VERTEX
  5
393
  8
A-FRAME
 10
2.028875843550853
 20
12.67132189143763
 30
0.0
  0
VERTEX
  5
394
  8
A-FRAME
 10
1.99874259185799
 20
12.64271643829341
 30
0.0
  0
VERTEX
  5
395
  8
A-FRAME
 10
1.983808599411532
 20
12.62791278272437
 30
0.0
  0
VERTEX
  5
396
  8
A-FRAME
 10
1.968970807412013
 20
12.61276994746254
 30
0.0
  0
VERTEX
  5
397
  8
A-FRAME
 10
1.954235049493956
 20
12.5972840122372
 30
0.0
  0
VERTEX
  5
398
  8
A-FRAME
 10
1.939607159292343
 20
12.58145105677705
 30
0.0
  0
VERTEX
  5
399
  8
A-FRAME
 10
1.925092970442623
 20
12.56526716081135
 30
0.0
  0
VERTEX
  5
39A
  8
A-FRAME
 10
1.91069831657888
 20
12.54872840406893
 30
0.0
  0
VERTEX
  5
39B
  8
A-FRAME
 10
1.896429031336542
 20
12.53183086627883
 30
0.0
  0
VERTEX
  5
39C
  8
A-FRAME
 10
1.882290948350594
 20
12.51457062717009
 30
0.0
  0
VERTEX
  5
39D
  8
A-FRAME
 10
1.868289901256052
 20
12.49694376647176
 30
0.0
  0
VERTEX
  5
39E
  8
A-FRAME
 10
1.854431723687416
 20
12.47894636391266
 30
0.0
  0
VERTEX
  5
39F
  8
A-FRAME
 10
1.840722249279683
 20
12.46057449922194
 30
0.0
  0
VERTEX
  5
3A0
  8
A-FRAME
 10
1.827167311668298
 20
12.44182425212853
 30
0.0
  0
VERTEX
  5
3A1
  8
A-FRAME
 10
1.813772744487778
 20
12.42269170236159
 30
0.0
  0
VERTEX
  5
3A2
  8
A-FRAME
 10
1.800544381373136
 20
12.40317292964983
 30
0.0
  0
VERTEX
  5
3A3
  8
A-FRAME
 10
1.787488055959336
 20
12.38326401372251
 30
0.0
  0
VERTEX
  5
3A4
  8
A-FRAME
 10
1.774609601881377
 20
12.36296103430846
 30
0.0
  0
VERTEX
  5
3A5
  8
A-FRAME
 10
1.761914852773774
 20
12.34226007113682
 30
0.0
  0
VERTEX
  5
3A6
  8
A-FRAME
 10
1.749409642271992
 20
12.32115720393654
 30
0.0
  0
VERTEX
  5
3A7
  8
A-FRAME
 10
1.737099804010544
 20
12.29964851243654
 30
0.0
  0
VERTEX
  5
3A8
  8
A-FRAME
 10
1.724991171624882
 20
12.27773007636597
 30
0.0
  0
VERTEX
  5
3A9
  8
A-FRAME
 10
1.713089578749528
 20
12.25539797545366
 30
0.0
  0
VERTEX
  5
3AA
  8
A-FRAME
 10
1.7014008590195
 20
12.23264828942877
 30
0.0
  0
VERTEX
  5
3AB
  8
A-FRAME
 10
1.689930846069732
 20
12.20947709802022
 30
0.0
  0
VERTEX
  5
3AC
  8
A-FRAME
 10
1.678685373535256
 20
12.18588048095694
 30
0.0
  0
VERTEX
  5
3AD
  8
A-FRAME
 10
1.667670275050572
 20
12.1618545179681
 30
0.0
  0
VERTEX
  5
3AE
  8
A-FRAME
 10
1.65689138425159
 20
12.13739528878262
 30
0.0
  0
VERTEX
  5
3AF
  8
A-FRAME
 10
1.646354534771952
 20
12.11249887312943
 30
0.0
  0
VERTEX
  5
3B0
  8
A-FRAME
 10
1.636065560247523
 20
12.08716135073769
 30
0.0
  0
VERTEX
  5
3B1
  8
A-FRAME
 10
1.626030294313306
 20
12.06137880133622
 30
0.0
  0
VERTEX
  5
3B2
  8
A-FRAME
 10
1.616254570603367
 20
12.03514730465406
 30
0.0
  0
VERTEX
  5
3B3
  8
A-FRAME
 10
1.606744222753608
 20
12.00846294042037
 30
0.0
  0
VERTEX
  5
3B4
  8
A-FRAME
 10
1.597505084398104
 20
11.98132178836398
 30
0.0
  0
VERTEX
  5
3B5
  8
A-FRAME
 10
1.588542989172311
 20
11.9537199282139
 30
0.0
  0
VERTEX
  5
3B6
  8
A-FRAME
 10
1.579863770711206
 20
11.92565343969921
 30
0.0
  0
VERTEX
  5
3B7
  8
A-FRAME
 10
1.571473262649313
 20
11.89711840254893
 30
0.0
  0
VERTEX
  5
3B8
  8
A-FRAME
 10
1.563377298622068
 20
11.868110896492
 30
0.0
  0
VERTEX
  5
3B9
  8
A-FRAME
 10
1.555581712264036
 20
11.83862700125735
 30
0.0
  0
VERTEX
  5
3BA
  8
A-FRAME
 10
1.548092337210623
 20
11.80866279657414
 30
0.0
  0
VERTEX
  5
3BB
  8
A-FRAME
 10
1.540915007095922
 20
11.7782143621713
 30
0.0
  0
VERTEX
  5
3BC
  8
A-FRAME
 10
1.534055555555376
 20
11.74727777777776
 30
0.0
  0
VERTEX
  5
3BD
  8
A-FRAME
 10
1.0
 20
9.0
 30
0.0
  0
VERTEX
  5
3BE
  8
A-FRAME
 10
2.541763888888909
 20
9.000027777777747
 30
0.0
  0
VERTEX
  5
3BF
  8
A-FRAME
 10
2.875777777777781
 20
10.7186944444444
 30
0.0
  0
VERTEX
  5
3C0
  8
A-FRAME
 10
3.598597222222004
 20
10.57841666666661
 30
0.0
  0
VERTEX
  5
3C1
  8
A-FRAME
 10
3.296249999999869
 20
9.000027777777749
 30
0.0
  0
VERTEX
  5
3C2
  8
A-FRAME
 10
6.576805555555435
 20
9.000027777777749
 30
0.0
  0
VERTEX
  5
3C3
  8
A-FRAME
 10
46.70374999220938
 20
9.000892588103744
 30
0.0
  0
VERTEX
  5
3C4
  8
A-FRAME
 10
46.40140276998729
 20
10.5792814769926
 30
0.0
  0
VERTEX
  5
3C5
  8
A-FRAME
 10
47.12422221443148
 20
10.71955925477039
 30
0.0
  0
VERTEX
  5
3C6
  8
A-FRAME
 10
47.45823610332036
 20
9.000892588103744
 30
0.0
  0
VERTEX
  5
3C7
  8
A-FRAME
 10
48.99999999220928
 20
9.000864810326002
 30
0.0
  0
VERTEX
  5
3C8
  8
A-FRAME
 10
48.4659444366539
 20
11.74814258810375
 30
0.0
  0
VERTEX
  5
3C9
  8
A-FRAME
 10
48.45908498511336
 20
11.77907917249729
 30
0.0
  0
VERTEX
  5
3CA
  8
A-FRAME
 10
48.45190765499866
 20
11.80952760690013
 30
0.0
  0
VERTEX
  5
3CB
  8
A-FRAME
 10
48.44441827994525
 20
11.83949181158335
 30
0.0
  0
VERTEX
  5
3CC
  8
A-FRAME
 10
48.43662269358721
 20
11.868975706818
 30
0.0
  0
VERTEX
  5
3CD
  8
A-FRAME
 10
48.42852672955998
 20
11.89798321287492
 30
0.0
  0
VERTEX
  5
3CE
  8
A-FRAME
 10
48.42013622149808
 20
11.9265182500252
 30
0.0
  0
VERTEX
  5
3CF
  8
A-FRAME
 10
48.41145700303696
 20
11.9545847385399
 30
0.0
  0
VERTEX
  5
3D0
  8
A-FRAME
 10
48.40249490781117
 20
11.98218659868997
 30
0.0
  0
VERTEX
  5
3D1
  8
A-FRAME
 10
48.39325576945568
 20
12.00932775074638
 30
0.0
  0
VERTEX
  5
3D2
  8
A-FRAME
 10
48.38374542160591
 20
12.03601211498006
 30
0.0
  0
VERTEX
  5
3D3
  8
A-FRAME
 10
48.37396969789599
 20
12.06224361166221
 30
0.0
  0
VERTEX
  5
3D4
  8
A-FRAME
 10
48.36393443196178
 20
12.08802616106368
 30
0.0
  0
VERTEX
  5
3D5
  8
A-FRAME
 10
48.35364545743734
 20
12.11336368345543
 30
0.0
  0
VERTEX
  5
3D6
  8
A-FRAME
 10
48.34310860795769
 20
12.13826009910861
 30
0.0
  0
VERTEX
  5
3D7
  8
A-FRAME
 10
48.3323297171587
 20
12.16271932829409
 30
0.0
  0
VERTEX
  5
3D8
  8
A-FRAME
 10
48.32131461867404
 20
12.18674529128293
 30
0.0
  0
VERTEX
  5
3D9
  8
A-FRAME
 10
48.31006914613953
 20
12.21034190834622
 30
0.0
  0
VERTEX
  5
3DA
  8
A-FRAME
 10
48.2985991331898
 20
12.23351309975476
 30
0.0
  0
VERTEX
  5
3DB
  8
A-FRAME
 10
48.28691041345974
 20
12.25626278577966
 30
0.0
  0
VERTEX
  5
3DC
  8
A-FRAME
 10
48.2750088205844
 20
12.27859488669197
 30
0.0
  0
VERTEX
  5
3DD
  8
A-FRAME
 10
48.26290018819873
 20
12.30051332276253
 30
0.0
  0
VERTEX
  5
3DE
  8
A-FRAME
 10
48.25059034993728
 20
12.32202201426254
 30
0.0
  0
VERTEX
  5
3DF
  8
A-FRAME
 10
48.23808513943551
 20
12.34312488146282
 30
0.0
  0
VERTEX
  5
3E0
  8
A-FRAME
 10
48.22539039032792
 20
12.36382584463445
 30
0.0
  0
VERTEX
  5
3E1
  8
A-FRAME
 10
48.21251193624994
 20
12.38412882404851
 30
0.0
  0
VERTEX
  5
3E2
  8
A-FRAME
 10
48.19945561083613
 20
12.40403773997582
 30
0.0
  0
VERTEX
  5
3E3
  8
A-FRAME
 10
48.1862272477215
 20
12.42355651268759
 30
0.0
  0
VERTEX
  5
3E4
  8
A-FRAME
 10
48.17283268054096
 20
12.44268906245453
 30
0.0
  0
VERTEX
  5
3E5
  8
A-FRAME
 10
48.15927774292959
 20
12.46143930954793
 30
0.0
  0
VERTEX
  5
3E6
  8
A-FRAME
 10
48.14556826852187
 20
12.47981117423865
 30
0.0
  0
VERTEX
  5
3E7
  8
A-FRAME
 10
48.13171009095322
 20
12.49780857679776
 30
0.0
  0
VERTEX
  5
3E8
  8
A-FRAME
 10
48.11770904385867
 20
12.51543543749608
 30
0.0
  0
VERTEX
  5
3E9
  8
A-FRAME
 10
48.10357096087274
 20
12.53269567660481
 30
0.0
  0
VERTEX
  5
3EA
  8
A-FRAME
 10
48.08930167563042
 20
12.54959321439492
 30
0.0
  0
VERTEX
  5
3EB
  8
A-FRAME
 10
48.07490702176668
 20
12.56613197113734
 30
0.0
  0
VERTEX
  5
3EC
  8
A-FRAME
 10
48.06039283291696
 20
12.58231586710303
 30
0.0
  0
VERTEX
  5
3ED
  8
A-FRAME
 10
48.04576494271531
 20
12.5981488225632
 30
0.0
  0
VERTEX
  5
3EE
  8
A-FRAME
 10
48.03102918479728
 20
12.61363475778854
 30
0.0
  0
VERTEX
  5
3EF
  8
A-FRAME
 10
48.01619139279775
 20
12.62877759305035
 30
0.0
  0
VERTEX
  5
3F0
  8
A-FRAME
 10
48.00125740035128
 20
12.6435812486194
 30
0.0
  0
VERTEX
  5
3F1
  8
A-FRAME
 10
47.97112414865843
 20
12.67218670176361
 30
0.0
  0
VERTEX
  5
3F2
  8
A-FRAME
 10
47.94067609879768
 20
12.69948247938908
 30
0.0
  0
VERTEX
  5
3F3
  8
A-FRAME
 10
47.90995991984937
 20
12.72549994366398
 30
0.0
  0
VERTEX
  5
3F4
  8
A-FRAME
 10
47.87902228089207
 20
12.75027045675609
 30
0.0
  0
VERTEX
  5
3F5
  8
A-FRAME
 10
47.84790985100562
 20
12.7738253808335
 30
0.0
  0
VERTEX
  5
3F6
  8
A-FRAME
 10
47.81666929926949
 20
12.79619607806433
 30
0.0
  0
VERTEX
  5
3F7
  8
A-FRAME
 10
47.78534729476314
 20
12.81741391061633
 30
0.0
  0
VERTEX
  5
3F8
  8
A-FRAME
 10
47.75399050656598
 20
12.83751024065772
 30
0.0
  0
VERTEX
  5
3F9
  8
A-FRAME
 10
47.72264560375791
 20
12.85651643035635
 30
0.0
  0
VERTEX
  5
3FA
  8
A-FRAME
 10
47.69135925541741
 20
12.87446384188026
 30
0.0
  0
VERTEX
  5
3FB
  8
A-FRAME
 10
47.66017813062491
 20
12.89138383739749
 30
0.0
  0
VERTEX
  5
3FC
  8
A-FRAME
 10
47.62914889845935
 20
12.90730777907595
 30
0.0
  0
VERTEX
  5
3FD
  8
A-FRAME
 10
47.59831822800017
 20
12.92226702908376
 30
0.0
  0
VERTEX
  5
3FE
  8
A-FRAME
 10
47.56773278832725
 20
12.93629294958874
 30
0.0
  0
VERTEX
  5
3FF
  8
A-FRAME
 10
47.53743924851962
 20
12.94941690275891
 30
0.0
  0
VERTEX
  5
400
  8
A-FRAME
 10
47.50748427765713
 20
12.96167025076239
 30
0.0
  0
VERTEX
  5
401
  8
A-FRAME
 10
47.47791454481877
 20
12.97308435576713
 30
0.0
  0
VERTEX
  5
402
  8
A-FRAME
 10
47.44877671908445
 20
12.98369057994114
 30
0.0
  0
VERTEX
  5
403
  8
A-FRAME
 10
47.42011746953359
 20
12.99352028545229
 30
0.0
  0
VERTEX
  5
404
  8
A-FRAME
 10
47.39198346524519
 20
13.0026048344688
 30
0.0
  0
VERTEX
  5
405
  8
A-FRAME
 10
47.36442137529913
 20
13.01097558915842
 30
0.0
  0
VERTEX
  5
406
  8
A-FRAME
 10
47.33747786877484
 20
13.01866391168926
 30
0.0
  0
VERTEX
  5
407
  8
A-FRAME
 10
47.31119961475177
 20
13.02570116422931
 30
0.0
  0
VERTEX
  5
408
  8
A-FRAME
 10
47.28563328230942
 20
13.03211870894655
 30
0.0
  0
VERTEX
  5
409
  8
A-FRAME
 10
47.26082554052711
 20
13.03794790800907
 30
0.0
  0
VERTEX
  5
40A
  8
A-FRAME
 10
47.23682305848433
 20
13.04322012358466
 30
0.0
  0
VERTEX
  5
40B
  8
A-FRAME
 10
47.1914205499352
 20
13.05221905294753
 30
0.0
  0
VERTEX
  5
40C
  8
A-FRAME
 10
47.14979910929743
 20
13.05936639437903
 30
0.0
  0
VERTEX
  5
40D
  8
A-FRAME
 10
47.1123320892075
 20
13.0649130452232
 30
0.0
  0
VERTEX
  5
40E
  8
A-FRAME
 10
47.07939284230089
 20
13.06910990282394
 30
0.0
  0
VERTEX
  5
40F
  8
A-FRAME
 10
47.0513547212131
 20
13.07220786452513
 30
0.0
  0
VERTEX
  5
410
  8
A-FRAME
 10
47.01147526703699
 20
13.07611068960523
 30
0.0
  0
VERTEX
  5
411
  8
A-FRAME
 10
47.00038063922013
 20
13.07741734767182
 30
0.0
  0
VERTEX
  5
412
  8
A-FRAME
 10
46.99720794190763
 20
13.07801925567481
 30
0.0
  0
VERTEX
  5
413
  8
A-FRAME
 10
46.99568054776501
 20
13.07862869921485
 30
0.0
  0
VERTEX
  5
414
  8
A-FRAME
 10
46.15020832554276
 20
13.07862869921485
 30
0.0
  0
VERTEX
  5
415
  8
A-FRAME
 10
45.57852776998696
 20
16.01293425477036
 30
0.0
  0
VERTEX
  5
416
  8
A-FRAME
 10
44.2495833255425
 20
16.01293425477036
 30
0.0
  0
VERTEX
  5
417
  8
A-FRAME
 10
44.18800888977877
 20
15.99920260763499
 30
0.0
  0
VERTEX
  5
418
  8
A-FRAME
 10
44.02271700609799
 20
15.96272024435371
 30
0.0
  0
VERTEX
  5
419
  8
A-FRAME
 10
43.76426105991779
 20
15.90652196961414
 30
0.0
  0
VERTEX
  5
41A
  8
A-FRAME
 10
43.60339449633238
 20
15.87197774191237
 30
0.0
  0
VERTEX
  5
41B
  8
A-FRAME
 10
43.42319443665376
 20
15.83364258810378
 30
0.0
  0
VERTEX
  5
41C
  8
A-FRAME
 10
43.42283112251451
 20
15.81898829234149
 30
0.0
  0
VERTEX
  5
41D
  8
A-FRAME
 10
43.42174050654741
 20
15.8043345580351
 30
0.0
  0
VERTEX
  5
41E
  8
A-FRAME
 10
43.41992263180799
 20
15.78968196368894
 30
0.0
  0
VERTEX
  5
41F
  8
A-FRAME
 10
43.41737757006292
 20
15.77503108776235
 30
0.0
  0
VERTEX
  5
420
  8
A-FRAME
 10
43.41410542178681
 20
15.76038250864681
 30
0.0
  0
VERTEX
  5
421
  8
A-FRAME
 10
43.41010631615849
 20
15.74573680464314
 30
0.0
  0
VERTEX
  5
422
  8
A-FRAME
 10
43.40538041105583
 20
15.73109455393868
 30
0.0
  0
VERTEX
  5
423
  8
A-FRAME
 10
43.39992789304941
 20
15.71645633458441
 30
0.0
  0
VERTEX
  5
424
  8
A-FRAME
 10
43.39374897739536
 20
15.70182272447215
 30
0.0
  0
VERTEX
  5
425
  8
A-FRAME
 10
43.38684390802668
 20
15.68719430131176
 30
0.0
  0
VERTEX
  5
426
  8
A-FRAME
 10
43.37921295754364
 20
15.67257164260838
 30
0.0
  0
VERTEX
  5
427
  8
A-FRAME
 10
43.37085642720317
 20
15.65795532563952
 30
0.0
  0
VERTEX
  5
428
  8
A-FRAME
 10
43.36177464690671
 20
15.64334592743233
 30
0.0
  0
VERTEX
  5
429
  8
A-FRAME
 10
43.35196797518748
 20
15.62874402474085
 30
0.0
  0
VERTEX
  5
42A
  8
A-FRAME
 10
43.34143679919603
 20
15.6141501940232
 30
0.0
  0
VERTEX
  5
42B
  8
A-FRAME
 10
43.33018153468514
 20
15.59956501141882
 30
0.0
  0
VERTEX
  5
42C
  8
A-FRAME
 10
43.31820262599341
 20
15.58498905272573
 30
0.0
  0
VERTEX
  5
42D
  8
A-FRAME
 10
43.30550054602766
 20
15.57042289337785
 30
0.0
  0
VERTEX
  5
42E
  8
A-FRAME
 10
43.29207579624421
 20
15.5558671084222
 30
0.0
  0
VERTEX
  5
42F
  8
A-FRAME
 10
43.27792890662921
 20
15.54132227249625
 30
0.0
  0
VERTEX
  5
430
  8
A-FRAME
 10
43.26306043567769
 20
15.5267889598052
 30
0.0
  0
VERTEX
  5
431
  8
A-FRAME
 10
43.24747097037137
 20
15.51226774409936
 30
0.0
  0
VERTEX
  5
432
  8
A-FRAME
 10
43.23116112615563
 20
15.49775919865147
 30
0.0
  0
VERTEX
  5
433
  8
A-FRAME
 10
43.21413154691524
 20
15.48326389623407
 30
0.0
  0
VERTEX
  5
434
  8
A-FRAME
 10
43.19638290494883
 20
15.46878240909685
 30
0.0
  0
VERTEX
  5
435
  8
A-FRAME
 10
43.17791590094237
 20
15.45431530894415
 30
0.0
  0
VERTEX
  5
436
  8
A-FRAME
 10
43.15873126394159
 20
15.43986316691229
 30
0.0
  0
VERTEX
  5
437
  8
A-FRAME
 10
43.13882975132304
 20
15.42542655354712
 30
0.0
  0
VERTEX
  5
438
  8
A-FRAME
 10
43.11821214876443
 20
15.41100603878139
 30
0.0
  0
VERTEX
  5
439
  8
A-FRAME
 10
43.09687927021335
 20
15.39660219191235
 30
0.0
  0
VERTEX
  5
43A
  8
A-FRAME
 10
43.07483195785539
 20
15.38221558157919
 30
0.0
  0
VERTEX
  5
43B
  8
A-FRAME
 10
43.05207108208066
 20
15.36784677574068
 30
0.0
  0
VERTEX
  5
43C
  8
A-FRAME
 10
43.0285975414495
 20
15.35349634165265
 30
0.0
  0
VERTEX
  5
43D
  8
A-FRAME
 10
43.00441226265718
 20
15.33916484584567
 30
0.0
  0
VERTEX
  5
43E
  8
A-FRAME
 10
42.97951620049706
 20
15.32485285410267
 30
0.0
  0
VERTEX
  5
43F
  8
A-FRAME
 10
42.95391033782305
 20
15.31056093143654
 30
0.0
  0
VERTEX
  5
440
  8
A-FRAME
 10
42.92759568551078
 20
15.29628964206796
 30
0.0
  0
VERTEX
  5
441
  8
A-FRAME
 10
42.90057328241765
 20
15.28203954940297
 30
0.0
  0
VERTEX
  5
442
  8
A-FRAME
 10
42.87284419534187
 20
15.26781121601084
 30
0.0
  0
VERTEX
  5
443
  8
A-FRAME
 10
42.84440951898033
 20
15.25360520360181
 30
0.0
  0
VERTEX
  5
444
  8
A-FRAME
 10
42.81527037588531
 20
15.23942207300492
 30
0.0
  0
VERTEX
  5
445
  8
A-FRAME
 10
42.78542791642037
 20
15.22526238414588
 30
0.0
  0
VERTEX
  5
446
  8
A-FRAME
 10
42.75488331871462
 20
15.21112669602496
 30
0.0
  0
VERTEX
  5
447
  8
A-FRAME
 10
42.72363778861656
 20
15.19701556669493
 30
0.0
  0
VERTEX
  5
448
  8
A-FRAME
 10
42.69169255964619
 20
15.18292955323901
 30
0.0
  0
VERTEX
  5
449
  8
A-FRAME
 10
42.65904889294637
 20
15.1688692117489
 30
0.0
  0
VERTEX
  5
44A
  8
A-FRAME
 10
42.62570807723328
 20
15.15483509730278
 30
0.0
  0
VERTEX
  5
44B
  8
A-FRAME
 10
42.59167142874522
 20
15.14082776394349
 30
0.0
  0
VERTEX
  5
44C
  8
A-FRAME
 10
42.55694029119074
 20
15.12684776465656
 30
0.0
  0
VERTEX
  5
44D
  8
A-FRAME
 10
42.5215160356957
 20
15.1128956513484
 30
0.0
  0
VERTEX
  5
44E
  8
A-FRAME
 10
42.48540006074907
 20
15.09897197482459
 30
0.0
  0
VERTEX
  5
44F
  8
A-FRAME
 10
42.44859379214769
 20
15.085077284768
 30
0.0
  0
VERTEX
  5
450
  8
A-FRAME
 10
42.41109868294002
 20
15.07121212971724
 30
0.0
  0
VERTEX
  5
451
  8
A-FRAME
 10
42.37291621336878
 20
15.05737705704485
 30
0.0
  0
VERTEX
  5
452
  8
A-FRAME
 10
42.33404789081246
 20
15.04357261293584
 30
0.0
  0
VERTEX
  5
453
  8
A-FRAME
 10
42.29449524972593
 20
15.02979934236602
 30
0.0
  0
VERTEX
  5
454
  8
A-FRAME
 10
42.25425985157968
 20
15.01605778908054
 30
0.0
  0
VERTEX
  5
455
  8
A-FRAME
 10
42.21334328479836
 20
15.00234849557236
 30
0.0
  0
VERTEX
  5
456
  8
A-FRAME
 10
42.17174716469798
 20
14.98867200306094
 30
0.0
  0
VERTEX
  5
457
  8
A-FRAME
 10
42.1294731334221
 20
14.97502885147078
 30
0.0
  0
VERTEX
  5
458
  8
A-FRAME
 10
42.08652285987714
 20
14.96141957941014
 30
0.0
  0
VERTEX
  5
459
  8
A-FRAME
 10
42.0428980396663
 20
14.9478447241498
 30
0.0
  0
VERTEX
  5
45A
  8
A-FRAME
 10
41.99860039502285
 20
14.93430482160177
 30
0.0
  0
VERTEX
  5
45B
  8
A-FRAME
 10
41.95363167474191
 20
14.92080040629824
 30
0.0
  0
VERTEX
  5
45C
  8
A-FRAME
 10
41.90799365411156
 20
14.90733201137039
 30
0.0
  0
VERTEX
  5
45D
  8
A-FRAME
 10
41.86168813484269
 20
14.8939001685274
 30
0.0
  0
VERTEX
  5
45E
  8
A-FRAME
 10
41.81471694499797
 20
14.88050540803543
 30
0.0
  0
VERTEX
  5
45F
  8
A-FRAME
 10
41.76708193891949
 20
14.86714825869668
 30
0.0
  0
VERTEX
  5
460
  8
A-FRAME
 10
41.71878499715578
 20
14.85382924782852
 30
0.0
  0
VERTEX
  5
461
  8
A-FRAME
 10
41.66982802638735
 20
14.84054890124272
 30
0.0
  0
VERTEX
  5
462
  8
A-FRAME
 10
41.62021295935163
 20
14.82730774322461
 30
0.0
  0
VERTEX
  5
463
  8
A-FRAME
 10
41.56994175476646
 20
14.81410629651244
 30
0.0
  0
VERTEX
  5
464
  8
A-FRAME
 10
41.51901639725294
 20
14.80094508227673
 30
0.0
  0
VERTEX
  5
465
  8
A-FRAME
 10
41.467438897257
 20
14.78782462009966
 30
0.0
  0
VERTEX
  5
466
  8
A-FRAME
 10
41.41521129097001
 20
14.77474542795464
 30
0.0
  0
VERTEX
  5
467
  8
A-FRAME
 10
41.36233564024846
 20
14.76170802218575
 30
0.0
  0
VERTEX
  5
468
  8
A-FRAME
 10
41.30881403253244
 20
14.74871291748745
 30
0.0
  0
VERTEX
  5
469
  8
A-FRAME
 10
41.25464858076347
 20
14.73576062688426
 30
0.0
  0
VERTEX
  5
46A
  8
A-FRAME
 10
41.1998414233008
 20
14.7228516617104
 30
0.0
  0
VERTEX
  5
46B
  8
A-FRAME
 10
41.14439472383711
 20
14.70998653158972
 30
0.0
  0
VERTEX
  5
46C
  8
A-FRAME
 10
41.08831067131324
 20
14.69716574441552
 30
0.0
  0
VERTEX
  5
46D
  8
A-FRAME
 10
41.03159147983149
 20
14.68438980633054
 30
0.0
  0
VERTEX
  5
46E
  8
A-FRAME
 10
40.97423938856845
 20
14.67165922170693
 30
0.0
  0
VERTEX
  5
46F
  8
A-FRAME
 10
40.91625666168646
 20
14.65897449312638
 30
0.0
  0
VERTEX
  5
470
  8
A-FRAME
 10
40.85764558824434
 20
14.64633612136024
 30
0.0
  0
VERTEX
  5
471
  8
A-FRAME
 10
40.79840848210686
 20
14.63374460534981
 30
0.0
  0
VERTEX
  5
472
  8
A-FRAME
 10
40.73854768185359
 20
14.62120044218657
 30
0.0
  0
VERTEX
  5
473
  8
A-FRAME
 10
40.67806555068636
 20
14.6087041270926
 30
0.0
  0
VERTEX
  5
474
  8
A-FRAME
 10
40.61696447633621
 20
14.59625615340102
 30
0.0
  0
VERTEX
  5
475
  8
A-FRAME
 10
40.55524687096887
 20
14.58385701253652
 30
0.0
  0
VERTEX
  5
476
  8
A-FRAME
 10
40.49291517108978
 20
14.57150719399596
 30
0.0
  0
VERTEX
  5
477
  8
A-FRAME
 10
40.42997183744774
 20
14.55920718532901
 30
0.0
  0
VERTEX
  5
478
  8
A-FRAME
 10
40.36641935493766
 20
14.54695747211898
 30
0.0
  0
VERTEX
  5
479
  8
A-FRAME
 10
40.30226023250289
 20
14.53475853796354
 30
0.0
  0
VERTEX
  5
47A
  8
A-FRAME
 10
40.23749700303561
 20
14.52261086445574
 30
0.0
  0
VERTEX
  5
47B
  8
A-FRAME
 10
40.17213222327733
 20
14.51051493116493
 30
0.0
  0
VERTEX
  5
47C
  8
A-FRAME
 10
40.1061684737175
 20
14.49847121561786
 30
0.0
  0
VERTEX
  5
47D
  8
A-FRAME
 10
40.03960835849215
 20
14.48648019327976
 30
0.0
  0
VERTEX
  5
47E
  8
A-FRAME
 10
39.97245450528051
 20
14.47454233753569
 30
0.0
  0
VERTEX
  5
47F
  8
A-FRAME
 10
39.90470956520187
 20
14.46265811967174
 30
0.0
  0
VERTEX
  5
480
  8
A-FRAME
 10
39.83637621271033
 20
14.45082800885649
 30
0.0
  0
VERTEX
  5
481
  8
A-FRAME
 10
39.76745714548973
 20
14.43905247212245
 30
0.0
  0
VERTEX
  5
482
  8
A-FRAME
 10
39.69795508434684
 20
14.42733197434765
 30
0.0
  0
VERTEX
  5
483
  8
A-FRAME
 10
39.62787277310395
 20
14.4156669782373
 30
0.0
  0
VERTEX
  5
484
  8
A-FRAME
 10
39.5572129784908
 20
14.40405794430542
 30
0.0
  0
VERTEX
  5
485
  8
A-FRAME
 10
39.48597849003501
 20
14.39250533085684
 30
0.0
  0
VERTEX
  5
486
  8
A-FRAME
 10
39.41417211995226
 20
14.38100959396894
 30
0.0
  0
VERTEX
  5
487
  8
A-FRAME
 10
39.34179670303504
 20
14.36957118747371
 30
0.0
  0
VERTEX
  5
488
  8
A-FRAME
 10
39.26885509654096
 20
14.35819056293988
 30
0.0
  0
VERTEX
  5
489
  8
A-FRAME
 10
39.19535018007973
 20
14.34686816965501
 30
0.0
  0
VERTEX
  5
48A
  8
A-FRAME
 10
39.12128485549955
 20
14.33560445460779
 30
0.0
  0
VERTEX
  5
48B
  8
A-FRAME
 10
39.04666204677261
 20
14.32439986247043
 30
0.0
  0
VERTEX
  5
48C
  8
A-FRAME
 10
38.97148469987965
 20
14.31325483558101
 30
0.0
  0
VERTEX
  5
48D
  8
A-FRAME
 10
38.8957557826936
 20
14.30216981392613
 30
0.0
  0
VERTEX
  5
48E
  8
A-FRAME
 10
38.81947828486244
 20
14.29114523512347
 30
0.0
  0
VERTEX
  5
48F
  8
A-FRAME
 10
38.74265521769119
 20
14.28018153440448
 30
0.0
  0
VERTEX
  5
490
  8
A-FRAME
 10
38.66528961402298
 20
14.26927914459734
 30
0.0
  0
VERTEX
  5
491
  8
A-FRAME
 10
38.58738452811939
 20
14.25843849610973
 30
0.0
  0
VERTEX
  5
492
  8
A-FRAME
 10
38.5089430355398
 20
14.24766001691185
 30
0.0
  0
VERTEX
  5
493
  8
A-FRAME
 10
38.42996823302005
 20
14.23694413251964
 30
0.0
  0
VERTEX
  5
494
  8
A-FRAME
 10
38.35046323835006
 20
14.22629126597785
 30
0.0
  0
VERTEX
  5
495
  8
A-FRAME
 10
38.27043119025093
 20
14.21570183784342
 30
0.0
  0
VERTEX
  5
496
  8
A-FRAME
 10
38.18987524825087
 20
14.20517626616883
 30
0.0
  0
VERTEX
  5
497
  8
A-FRAME
 10
38.1087985925605
 20
14.19471496648564
 30
0.0
  0
VERTEX
  5
498
  8
A-FRAME
 10
38.02720442394747
 20
14.18431835178804
 30
0.0
  0
VERTEX
  5
499
  8
A-FRAME
 10
37.94509596360977
 20
14.17398683251659
 30
0.0
  0
VERTEX
  5
49A
  8
A-FRAME
 10
37.86247645304877
 20
14.16372081654196
 30
0.0
  0
VERTEX
  5
49B
  8
A-FRAME
 10
37.77934915394138
 20
14.15352070914889
 30
0.0
  0
VERTEX
  5
49C
  8
A-FRAME
 10
37.69571734801097
 20
14.14338691302017
 30
0.0
  0
VERTEX
  5
49D
  8
A-FRAME
 10
37.61158433689806
 20
14.13331982822069
 30
0.0
  0
VERTEX
  5
49E
  8
A-FRAME
 10
37.52695344202989
 20
14.12331985218174
 30
0.0
  0
VERTEX
  5
49F
  8
A-FRAME
 10
37.44182800448922
 20
14.11338737968525
 30
0.0
  0
VERTEX
  5
4A0
  8
A-FRAME
 10
37.35621138488264
 20
14.10352280284821
 30
0.0
  0
VERTEX
  5
4A1
  8
A-FRAME
 10
37.27010696320762
 20
14.09372651110726
 30
0.0
  0
VERTEX
  5
4A2
  8
A-FRAME
 10
37.18351813871936
 20
14.08399889120318
 30
0.0
  0
VERTEX
  5
4A3
  8
A-FRAME
 10
37.09644832979633
 20
14.07434032716578
 30
0.0
  0
VERTEX
  5
4A4
  8
A-FRAME
 10
37.00890097380555
 20
14.06475120029862
 30
0.0
  0
VERTEX
  5
4A5
  8
A-FRAME
 10
36.92087952696667
 20
14.05523188916401
 30
0.0
  0
VERTEX
  5
4A6
  8
A-FRAME
 10
36.83238746421573
 20
14.04578276956804
 30
0.0
  0
VERTEX
  5
4A7
  8
A-FRAME
 10
36.74342827906786
 20
14.03640421454579
 30
0.0
  0
VERTEX
  5
4A8
  8
A-FRAME
 10
36.65400548347932
 20
14.02709659434655
 30
0.0
  0
VERTEX
  5
4A9
  8
A-FRAME
 10
36.56412260770902
 20
14.01786027641922
 30
0.0
  0
VERTEX
  5
4AA
  8
A-FRAME
 10
36.47378320017896
 20
14.00869562539783
 30
0.0
  0
VERTEX
  5
4AB
  8
A-FRAME
 10
36.38299082733425
 20
13.99960300308709
 30
0.0
  0
VERTEX
  5
4AC
  8
A-FRAME
 10
36.29174907350233
 20
13.99058276844819
 30
0.0
  0
VERTEX
  5
4AD
  8
A-FRAME
 10
36.20006154075142
 20
13.98163527758451
 30
0.0
  0
VERTEX
  5
4AE
  8
A-FRAME
 10
36.10793184874829
 20
13.97276088372771
 30
0.0
  0
VERTEX
  5
4AF
  8
A-FRAME
 10
36.01536363461547
 20
13.96395993722363
 30
0.0
  0
VERTEX
  5
4B0
  8
A-FRAME
 10
35.92236055278751
 20
13.95523278551859
 30
0.0
  0
VERTEX
  5
4B1
  8
A-FRAME
 10
35.82892627486683
 20
13.94657977314558
 30
0.0
  0
VERTEX
  5
4B2
  8
A-FRAME
 10
35.73506448947876
 20
13.93800124171073
 30
0.0
  0
VERTEX
  5
4B3
  8
A-FRAME
 10
35.64077890212589
 20
13.92949752987975
 30
0.0
  0
VERTEX
  5
4B4
  8
A-FRAME
 10
35.54607323504173
 20
13.92106897336464
 30
0.0
  0
VERTEX
  5
4B5
  8
A-FRAME
 10
35.45095122704384
 20
13.91271590491038
 30
0.0
  0
VERTEX
  5
4B6
  8
A-FRAME
 10
35.35541663338627
 20
13.9044386542818
 30
0.0
  0
VERTEX
  5
4B7
  8
A-FRAME
 10
35.2594732256112
 20
13.89623754825058
 30
0.0
  0
VERTEX
  5
4B8
  8
A-FRAME
 10
35.16312479140002
 20
13.88811291058236
 30
0.0
  0
VERTEX
  5
4B9
  8
A-FRAME
 10
35.06637513442399
 20
13.8800650620239
 30
0.0
  0
VERTEX
  5
4BA
  8
A-FRAME
 10
34.96922807419391
 20
13.8720943202905
 30
0.0
  0
VERTEX
  5
4BB
  8
A-FRAME
 10
34.87168744590936
 20
13.86420100005339
 30
0.0
  0
VERTEX
  5
4BC
  8
A-FRAME
 10
34.77375710030731
 20
13.85638541292733
 30
0.0
  0
VERTEX
  5
4BD
  8
A-FRAME
 10
34.67544090351014
 20
13.84864786745833
 30
0.0
  0
VERTEX
  5
4BE
  8
A-FRAME
 10
34.57674273687296
 20
13.84098866911144
 30
0.0
  0
VERTEX
  5
4BF
  8
A-FRAME
 10
34.47766649683039
 20
13.83340812025867
 30
0.0
  0
VERTEX
  5
4C0
  8
A-FRAME
 10
34.37821609474273
 20
13.82590652016713
 30
0.0
  0
VERTEX
  5
4C1
  8
A-FRAME
 10
34.27839545674158
 20
13.81848416498714
 30
0.0
  0
VERTEX
  5
4C2
  8
A-FRAME
 10
34.1782085235748
 20
13.81114134774058
 30
0.0
  0
VERTEX
  5
4C3
  8
A-FRAME
 10
34.07765925045095
 20
13.8038783583093
 30
0.0
  0
VERTEX
  5
4C4
  8
A-FRAME
 10
33.97675160688318
 20
13.79669548342368
 30
0.0
  0
VERTEX
  5
4C5
  8
A-FRAME
 10
33.8754895765325
 20
13.78959300665132
 30
0.0
  0
VERTEX
  5
4C6
  8
A-FRAME
 10
33.77387715705045
 20
13.78257120838585
 30
0.0
  0
VERTEX
  5
4C7
  8
A-FRAME
 10
33.67191835992135
 20
13.77563036583584
 30
0.0
  0
VERTEX
  5
4C8
  8
A-FRAME
 10
33.56961721030399
 20
13.76877075301387
 30
0.0
  0
VERTEX
  5
4C9
  8
A-FRAME
 10
33.46697774687253
 20
13.76199264072571
 30
0.0
  0
VERTEX
  5
4CA
  8
A-FRAME
 10
33.36400402165722
 20
13.75529629655962
 30
0.0
  0
VERTEX
  5
4CB
  8
A-FRAME
 10
33.2607000998845
 20
13.74868198487581
 30
0.0
  0
VERTEX
  5
4CC
  8
A-FRAME
 10
33.15707005981623
 20
13.74214996679597
 30
0.0
  0
VERTEX
  5
4CD
  8
A-FRAME
 10
33.05311799258902
 20
13.73570050019299
 30
0.0
  0
VERTEX
  5
4CE
  8
A-FRAME
 10
32.94884800205243
 20
13.72933383968079
 30
0.0
  0
VERTEX
  5
4CF
  8
A-FRAME
 10
32.8442642046072
 20
13.72305023660419
 30
0.0
  0
VERTEX
  5
4D0
  8
A-FRAME
 10
32.73937072904252
 20
13.71684993902912
 30
0.0
  0
VERTEX
  5
4D1
  8
A-FRAME
 10
32.63417171637325
 20
13.71073319173267
 30
0.0
  0
VERTEX
  5
4D2
  8
A-FRAME
 10
32.52867131967623
 20
13.70470023619358
 30
0.0
  0
VERTEX
  5
4D3
  8
A-FRAME
 10
32.42287370392656
 20
13.69875131058259
 30
0.0
  0
VERTEX
  5
4D4
  8
A-FRAME
 10
32.31678304583286
 20
13.69288664975311
 30
0.0
  0
VERTEX
  5
4D5
  8
A-FRAME
 10
32.2104035336727
 20
13.68710648523189
 30
0.0
  0
VERTEX
  5
4D6
  8
A-FRAME
 10
32.10373936712706
 20
13.68141104520994
 30
0.0
  0
VERTEX
  5
4D7
  8
A-FRAME
 10
31.99679475711462
 20
13.67580055453347
 30
0.0
  0
VERTEX
  5
4D8
  8
A-FRAME
 10
31.88957392562544
 20
13.67027523469507
 30
0.0
  0
VERTEX
  5
4D9
  8
A-FRAME
 10
31.78208110555434
 20
13.66483530382488
 30
0.0
  0
VERTEX
  5
4DA
  8
A-FRAME
 10
31.67432054053385
 20
13.65948097668206
 30
0.0
  0
VERTEX
  5
4DB
  8
A-FRAME
 10
31.56629648476652
 20
13.65421246464629
 30
0.0
  0
VERTEX
  5
4DC
  8
A-FRAME
 10
31.45801320285715
 20
13.64902997570939
 30
0.0
  0
VERTEX
  5
4DD
  8
A-FRAME
 10
31.34947496964422
 20
13.64393371446717
 30
0.0
  0
VERTEX
  5
4DE
  8
A-FRAME
 10
31.2406860700314
 20
13.63892388211127
 30
0.0
  0
VERTEX
  5
4DF
  8
A-FRAME
 10
31.13165079881815
 20
13.63400067642131
 30
0.0
  0
VERTEX
  5
4E0
  8
A-FRAME
 10
31.02237346053026
 20
13.62916429175702
 30
0.0
  0
VERTEX
  5
4E1
  8
A-FRAME
 10
30.91285836924996
 20
13.62441491905058
 30
0.0
  0
VERTEX
  5
4E2
  8
A-FRAME
 10
30.80310984844554
 20
13.61975274579909
 30
0.0
  0
VERTEX
  5
4E3
  8
A-FRAME
 10
30.69313223080064
 20
13.61517795605718
 30
0.0
  0
VERTEX
  5
4E4
  8
A-FRAME
 10
30.58292985804333
 20
13.6106907304297
 30
0.0
  0
VERTEX
  5
4E5
  8
A-FRAME
 10
30.47250708077457
 20
13.60629124606465
 30
0.0
  0
VERTEX
  5
4E6
  8
A-FRAME
 10
30.36186825829655
 20
13.60197967664613
 30
0.0
  0
VERTEX
  5
4E7
  8
A-FRAME
 10
30.25101775844051
 20
13.59775619238752
 30
0.0
  0
VERTEX
  5
4E8
  8
A-FRAME
 10
30.13995995739441
 20
13.59362096002474
 30
0.0
  0
VERTEX
  5
4E9
  8
A-FRAME
 10
30.02869923953007
 20
13.5895741428097
 30
0.0
  0
VERTEX
  5
4EA
  8
A-FRAME
 10
29.91723999723009
 20
13.5856159005038
 30
0.0
  0
VERTEX
  5
4EB
  8
A-FRAME
 10
29.80558663071455
 20
13.58174638937167
 30
0.0
  0
VERTEX
  5
4EC
  8
A-FRAME
 10
29.69374354786714
 20
13.577965762175
 30
0.0
  0
VERTEX
  5
4ED
  8
A-FRAME
 10
29.5817151640613
 20
13.57427416816646
 30
0.0
  0
VERTEX
  5
4EE
  8
A-FRAME
 10
29.46950590198577
 20
13.57067175308386
 30
0.0
  0
VERTEX
  5
4EF
  8
A-FRAME
 10
29.3571201914701
 20
13.56715865914438
 30
0.0
  0
VERTEX
  5
4F0
  8
A-FRAME
 10
29.24456246930971
 20
13.56373502503896
 30
0.0
  0
VERTEX
  5
4F1
  8
A-FRAME
 10
29.13183717909071
 20
13.56040098592681
 30
0.0
  0
VERTEX
  5
4F2
  8
A-FRAME
 10
29.01894877101457
 20
13.55715667343009
 30
0.0
  0
VERTEX
  5
4F3
  8
A-FRAME
 10
28.90590170172235
 20
13.5540022156287
 30
0.0
  0
VERTEX
  5
4F4
  8
A-FRAME
 10
28.79270043411877
 20
13.55093773705523
 30
0.0
  0
VERTEX
  5
4F5
  8
A-FRAME
 10
28.67934943719602
 20
13.54796335869004
 30
0.0
  0
VERTEX
  5
4F6
  8
A-FRAME
 10
28.56585318585742
 20
13.54507919795651
 30
0.0
  0
VERTEX
  5
4F7
  8
A-FRAME
 10
28.4522161607406
 20
13.54228536871635
 30
0.0
  0
VERTEX
  5
4F8
  8
A-FRAME
 10
28.33844284804072
 20
13.53958198126516
 30
0.0
  0
VERTEX
  5
4F9
  8
A-FRAME
 10
28.22453773933338
 20
13.53696914232807
 30
0.0
  0
VERTEX
  5
4FA
  8
A-FRAME
 10
28.11050533139725
 20
13.53444695505546
 30
0.0
  0
VERTEX
  5
4FB
  8
A-FRAME
 10
27.9963501260365
 20
13.53201551901897
 30
0.0
  0
VERTEX
  5
4FC
  8
A-FRAME
 10
27.88207662990321
 20
13.52967493020754
 30
0.0
  0
VERTEX
  5
4FD
  8
A-FRAME
 10
27.76768935431932
 20
13.52742528102359
 30
0.0
  0
VERTEX
  5
4FE
  8
A-FRAME
 10
27.6531928150986
 20
13.52526666027945
 30
0.0
  0
VERTEX
  5
4FF
  8
A-FRAME
 10
27.53859153236839
 20
13.52319915319374
 30
0.0
  0
VERTEX
  5
500
  8
A-FRAME
 10
27.42389003039108
 20
13.52122284138812
 30
0.0
  0
VERTEX
  5
501
  8
A-FRAME
 10
27.3090928373856
 20
13.51933780288399
 30
0.0
  0
VERTEX
  5
502
  8
A-FRAME
 10
27.19420448534854
 20
13.51754411209944
 30
0.0
  0
VERTEX
  5
503
  8
A-FRAME
 10
27.07922950987532
 20
13.51584183984631
 30
0.0
  0
VERTEX
  5
504
  8
A-FRAME
 10
26.96417244998111
 20
13.51423105332739
 30
0.0
  0
VERTEX
  5
505
  8
A-FRAME
 10
26.84903784792162
 20
13.51271181613378
 30
0.0
  0
VERTEX
  5
506
  8
A-FRAME
 10
26.73383024901381
 20
13.51128418824236
 30
0.0
  0
VERTEX
  5
507
  8
A-FRAME
 10
26.61855420145639
 20
13.50994822601344
 30
0.0
  0
VERTEX
  5
508
  8
A-FRAME
 10
26.50321425615036
 20
13.50870398218852
 30
0.0
  0
VERTEX
  5
509
  8
A-FRAME
 10
26.38781496651927
 20
13.50755150588821
 30
0.0
  0
VERTEX
  5
50A
  8
A-FRAME
 10
26.27236088832946
 20
13.50649084261031
 30
0.0
  0
VERTEX
  5
50B
  8
A-FRAME
 10
26.15685657951025
 20
13.50552203422798
 30
0.0
  0
VERTEX
  5
50C
  8
A-FRAME
 10
26.04130659997399
 20
13.50464511898812
 30
0.0
  0
VERTEX
  5
50D
  8
A-FRAME
 10
25.925715511436
 20
13.50386013150985
 30
0.0
  0
VERTEX
  5
50E
  8
A-FRAME
 10
25.81008787723455
 20
13.50316710278312
 30
0.0
  0
VERTEX
  5
50F
  8
A-FRAME
 10
25.69442826215066
 20
13.50256606016751
 30
0.0
  0
VERTEX
  5
510
  8
A-FRAME
 10
25.57874123222787
 20
13.50205702739118
 30
0.0
  0
VERTEX
  5
511
  8
A-FRAME
 10
25.46303135459203
 20
13.50164002454985
 30
0.0
  0
VERTEX
  5
512
  8
A-FRAME
 10
25.34730319727099
 20
13.50131506810609
 30
0.0
  0
VERTEX
  5
513
  8
A-FRAME
 10
25.23156132901427
 20
13.50108217088862
 30
0.0
  0
VERTEX
  5
514
  8
A-FRAME
 10
25.1158103191126
 20
13.50094134209182
 30
0.0
  0
VERTEX
  5
515
  8
A-FRAME
 10
25.00005473721769
 20
13.50089258727538
 30
0.0
  0
VERTEX
  5
516
  8
A-FRAME
 10
24.88429915316168
 20
13.50093590836405
 30
0.0
  0
VERTEX
  5
517
  8
A-FRAME
 10
24.76854813677686
 20
13.50107130364758
 30
0.0
  0
VERTEX
  5
518
  8
A-FRAME
 10
24.65280625771512
 20
13.5012987677808
 30
0.0
  0
VERTEX
  5
519
  8
A-FRAME
 10
24.53707808526768
 20
13.50161829178383
 30
0.0
  0
VERTEX
  5
51A
  8
A-FRAME
 10
24.42136818818465
 20
13.50202986304238
 30
0.0
  0
VERTEX
  5
51B
  8
A-FRAME
 10
24.30568113449462
 20
13.50253346530836
 30
0.0
  0
VERTEX
  5
51C
  8
A-FRAME
 10
24.19002149132438
 20
13.50312907870038
 30
0.0
  0
VERTEX
  5
51D
  8
A-FRAME
 10
24.07439382471859
 20
13.50381667970466
 30
0.0
  0
VERTEX
  5
51E
  8
A-FRAME
 10
23.95880269945954
 20
13.50459624117589
 30
0.0
  0
VERTEX
  5
51F
  8
A-FRAME
 10
23.84325267888697
 20
13.50546773233832
 30
0.0
  0
VERTEX
  5
520
  8
A-FRAME
 10
23.7277483247178
 20
13.50643111878697
 30
0.0
  0
VERTEX
  5
521
  8
A-FRAME
 10
23.6122941968662
 20
13.50748636248897
 30
0.0
  0
VERTEX
  5
522
  8
A-FRAME
 10
23.4968948532634
 20
13.50863342178513
 30
0.0
  0
VERTEX
  5
523
  8
A-FRAME
 10
23.38155484967792
 20
13.50987225139151
 30
0.0
  0
VERTEX
  5
524
  8
A-FRAME
 10
23.26627873953558
 20
13.51120280240124
 30
0.0
  0
VERTEX
  5
525
  8
A-FRAME
 10
23.15107107373986
 20
13.51262502228644
 30
0.0
  0
VERTEX
  5
526
  8
A-FRAME
 10
23.03593640049212
 20
13.5141388549003
 30
0.0
  0
VERTEX
  5
527
  8
A-FRAME
 10
22.92087926511212
 20
13.51574424047931
 30
0.0
  0
VERTEX
  5
528
  8
A-FRAME
 10
22.80590420985856
 20
13.51744111564559
 30
0.0
  0
VERTEX
  5
529
  8
A-FRAME
 10
22.69101577374973
 20
13.51922941340941
 30
0.0
  0
VERTEX
  5
52A
  8
A-FRAME
 10
22.57621849238439
 20
13.52110906317185
 30
0.0
  0
VERTEX
  5
52B
  8
A-FRAME
 10
22.46151689776265
 20
13.52307999072753
 30
0.0
  0
VERTEX
  5
52C
  8
A-FRAME
 10
22.34691551810705
 20
13.52514211826765
 30
0.0
  0
VERTEX
  5
52D
  8
A-FRAME
 10
22.23241887768382
 20
13.5272953643829
 30
0.0
  0
VERTEX
  5
52E
  8
A-FRAME
 10
22.11803149662429
 20
13.52953964406682
 30
0.0
  0
VERTEX
  5
52F
  8
A-FRAME
 10
22.00375789074642
 20
13.53187486871912
 30
0.0
  0
VERTEX
  5
530
  8
A-FRAME
 10
21.88960257137645
 20
13.53430094614909
 30
0.0
  0
VERTEX
  5
531
  8
A-FRAME
 10
21.77557004517098
 20
13.53681778057937
 30
0.0
  0
VERTEX
  5
532
  8
A-FRAME
 10
21.66166481393885
 20
13.53942527264965
 30
0.0
  0
VERTEX
  5
533
  8
A-FRAME
 10
21.54789137446357
 20
13.5421233194206
 30
0.0
  0
VERTEX
  5
534
  8
A-FRAME
 10
21.43425421832572
 20
13.54491181437794
 30
0.0
  0
VERTEX
  5
535
  8
A-FRAME
 10
21.32075783172564
 20
13.54779064743668
 30
0.0
  0
VERTEX
  5
536
  8
A-FRAME
 10
21.20740669530632
 20
13.55075970494542
 30
0.0
  0
VERTEX
  5
537
  8
A-FRAME
 10
21.0942052839766
 20
13.55381886969085
 30
0.0
  0
VERTEX
  5
538
  8
A-FRAME
 10
20.98115806673428
 20
13.55696802090239
 30
0.0
  0
VERTEX
  5
539
  8
A-FRAME
 10
20.86826950648999
 20
13.56020703425692
 30
0.0
  0
VERTEX
  5
53A
  8
A-FRAME
 10
20.75554405989076
 20
13.56353578188377
 30
0.0
  0
VERTEX
  5
53B
  8
A-FRAME
 10
20.64298617714424
 20
13.56695413236966
 30
0.0
  0
VERTEX
  5
53C
  8
A-FRAME
 10
20.53060030184288
 20
13.57046195076398
 30
0.0
  0
VERTEX
  5
53D
  8
A-FRAME
 10
20.41839087078862
 20
13.57405909858406
 30
0.0
  0
VERTEX
  5
53E
  8
A-FRAME
 10
20.30636231381763
 20
13.57774543382067
 30
0.0
  0
VERTEX
  5
53F
  8
A-FRAME
 10
20.19451905362558
 20
13.58152081094359
 30
0.0
  0
VERTEX
  5
540
  8
A-FRAME
 10
20.08286550559281
 20
13.58538508090741
 30
0.0
  0
VERTEX
  5
541
  8
A-FRAME
 10
19.97140607761026
 20
13.58933809115737
 30
0.0
  0
VERTEX
  5
542
  8
A-FRAME
 10
19.86014516990526
 20
13.59337968563538
 30
0.0
  0
VERTEX
  5
543
  8
A-FRAME
 10
19.74908717486798
 20
13.59750970478623
 30
0.0
  0
VERTEX
  5
544
  8
A-FRAME
 10
19.63823647687786
 20
13.60172798556382
 30
0.0
  0
VERTEX
  5
545
  8
A-FRAME
 10
19.52759745213068
 20
13.60603436143765
 30
0.0
  0
VERTEX
  5
546
  8
A-FRAME
 10
19.41717446846569
 20
13.61042866239938
 30
0.0
  0
VERTEX
  5
547
  8
A-FRAME
 10
19.3069718851932
 20
13.61491071496953
 30
0.0
  0
VERTEX
  5
548
  8
A-FRAME
 10
19.19699405292246
 20
13.61948034220434
 30
0.0
  0
VERTEX
  5
549
  8
A-FRAME
 10
19.08724531339007
 20
13.62413736370275
 30
0.0
  0
VERTEX
  5
54A
  8
A-FRAME
 10
18.97772999928828
 20
13.62888159561352
 30
0.0
  0
VERTEX
  5
54B
  8
A-FRAME
 10
18.86845243409418
 20
13.63371285064251
 30
0.0
  0
VERTEX
  5
54C
  8
A-FRAME
 10
18.75941693189896
 20
13.63863093806003
 30
0.0
  0
VERTEX
  5
54D
  8
A-FRAME
 10
18.65062779723749
 20
13.64363566370842
 30
0.0
  0
VERTEX
  5
54E
  8
A-FRAME
 10
18.54208932491859
 20
13.64872683000967
 30
0.0
  0
VERTEX
  5
54F
  8
A-FRAME
 10
18.43380579985527
 20
13.65390423597326
 30
0.0
  0
VERTEX
  5
550
  8
A-FRAME
 10
18.3257814968957
 20
13.65916767720408
 30
0.0
  0
VERTEX
  5
551
  8
A-FRAME
 10
18.21802068065436
 20
13.66451694591045
 30
0.0
  0
VERTEX
  5
552
  8
A-FRAME
 10
18.1105276053438
 20
13.66995183091244
 30
0.0
  0
VERTEX
  5
553
  8
A-FRAME
 10
18.00330651460657
 20
13.67547211765007
 30
0.0
  0
VERTEX
  5
554
  8
A-FRAME
 10
17.89636164134772
 20
13.68107758819188
 30
0.0
  0
VERTEX
  5
555
  8
A-FRAME
 10
17.78969720756774
 20
13.68676802124348
 30
0.0
  0
VERTEX
  5
556
  8
A-FRAME
 10
17.68331742419585
 20
13.69254319215633
 30
0.0
  0
VERTEX
  5
557
  8
A-FRAME
 10
17.57722649092372
 20
13.69840287293657
 30
0.0
  0
VERTEX
  5
558
  8
A-FRAME
 10
17.47142859603974
 20
13.70434683225403
 30
0.0
  0
VERTEX
  5
559
  8
A-FRAME
 10
17.36592791626367
 20
13.71037483545139
 30
0.0
  0
VERTEX
  5
55A
  8
A-FRAME
 10
17.26072861658169
 20
13.71648664455337
 30
0.0
  0
VERTEX
  5
55B
  8
A-FRAME
 10
17.155834850082
 20
13.72268201827625
 30
0.0
  0
VERTEX
  5
55C
  8
A-FRAME
 10
17.05125075779093
 20
13.72896071203726
 30
0.0
  0
VERTEX
  5
55D
  8
A-FRAME
 10
16.94698046850935
 20
13.73532247796433
 30
0.0
  0
VERTEX
  5
55E
  8
A-FRAME
 10
16.84302809864973
 20
13.74176706490585
 30
0.0
  0
VERTEX
  5
55F
  8
A-FRAME
 10
16.73939775207366
 20
13.74829421844052
 30
0.0
  0
VERTEX
  5
560
  8
A-FRAME
 10
16.63609351992976
 20
13.75490368088754
 30
0.0
  0
VERTEX
  5
561
  8
A-FRAME
 10
16.53311948049223
 20
13.76159519131662
 30
0.0
  0
VERTEX
  5
562
  8
A-FRAME
 10
16.43047969899985
 20
13.7683684855584
 30
0.0
  0
VERTEX
  5
563
  8
A-FRAME
 10
16.32817822749542
 20
13.77522329621482
 30
0.0
  0
VERTEX
  5
564
  8
A-FRAME
 10
16.22621910466588
 20
13.78215935266968
 30
0.0
  0
VERTEX
  5
565
  8
A-FRAME
 10
16.12460635568283
 20
13.78917638109937
 30
0.0
  0
VERTEX
  5
566
  8
A-FRAME
 10
16.02334399204359
 20
13.79627410448361
 30
0.0
  0
VERTEX
  5
567
  8
A-FRAME
 10
15.92243601141288
 20
13.80345224261642
 30
0.0
  0
VERTEX
  5
568
  8
A-FRAME
 10
15.821886397465
 20
13.81071051211723
 30
0.0
  0
VERTEX
  5
569
  8
A-FRAME
 10
15.72169911972658
 20
13.81804862644196
 30
0.0
  0
VERTEX
  5
56A
  8
A-FRAME
 10
15.62187813341973
 20
13.82546629589443
 30
0.0
  0
VERTEX
  5
56B
  8
A-FRAME
 10
15.52242737930612
 20
13.83296322763775
 30
0.0
  0
VERTEX
  5
56C
  8
A-FRAME
 10
15.42335078353122
 20
13.8405391257059
 30
0.0
  0
VERTEX
  5
56D
  8
A-FRAME
 10
15.32465225746936
 20
13.84819369101539
 30
0.0
  0
VERTEX
  5
56E
  8
A-FRAME
 10
15.22633569756941
 20
13.85592662137709
 30
0.0
  0
VERTEX
  5
56F
  8
A-FRAME
 10
15.12840498520075
 20
13.86373761150814
 30
0.0
  0
VERTEX
  5
570
  8
A-FRAME
 10
15.03086398650024
 20
13.87162635304404
 30
0.0
  0
VERTEX
  5
571
  8
A-FRAME
 10
14.93371655221948
 20
13.87959253455077
 30
0.0
  0
VERTEX
  5
572
  8
A-FRAME
 10
14.83696651757289
 20
13.88763584153714
 30
0.0
  0
VERTEX
  5
573
  8
A-FRAME
 10
14.74061770208609
 20
13.89575595646714
 30
0.0
  0
VERTEX
  5
574
  8
A-FRAME
 10
14.64467390944538
 20
13.90395255877256
 30
0.0
  0
VERTEX
  5
575
  8
A-FRAME
 10
14.54913892734745
 20
13.91222532486555
 30
0.0
  0
VERTEX
  5
576
  8
A-FRAME
 10
14.45401652734975
 20
13.92057392815149
 30
0.0
  0
VERTEX
  5
577
  8
A-FRAME
 10
14.35931046472178
 20
13.92899803904182
 30
0.0
  0
VERTEX
  5
578
  8
A-FRAME
 10
14.26502447829674
 20
13.93749732496705
 30
0.0
  0
VERTEX
  5
579
  8
A-FRAME
 10
14.17116229032392
 20
13.94607145038993
 30
0.0
  0
VERTEX
  5
57A
  8
A-FRAME
 10
14.07772760632178
 20
13.95472007681867
 30
0.0
  0
VERTEX
  5
57B
  8
A-FRAME
 10
13.98472411493165
 20
13.96344286282032
 30
0.0
  0
VERTEX
  5
57C
  8
A-FRAME
 10
13.89215548777216
 20
13.9722394640342
 30
0.0
  0
VERTEX
  5
57D
  8
A-FRAME
 10
13.80002537929417
 20
13.98110953318558
 30
0.0
  0
VERTEX
  5
57E
  8
A-FRAME
 10
13.70833742663661
 20
13.99005272009931
 30
0.0
  0
VERTEX
  5
57F
  8
A-FRAME
 10
13.61709524948289
 20
13.99906867171367
 30
0.0
  0
VERTEX
  5
580
  8
A-FRAME
 10
13.52630244991791
 20
14.00815703209435
 30
0.0
  0
VERTEX
  5
581
  8
A-FRAME
 10
13.43596261228592
 20
14.01731744244844
 30
0.0
  0
VERTEX
  5
582
  8
A-FRAME
 10
13.34607930304906
 20
14.0265495411386
 30
0.0
  0
VERTEX
  5
583
  8
A-FRAME
 10
13.25665607064645
 20
14.03585296369742
 30
0.0
  0
VERTEX
  5
584
  8
A-FRAME
 10
13.16769644535418
 20
14.04522734284167
 30
0.0
  0
VERTEX
  5
585
  8
A-FRAME
 10
13.07920393914596
 20
14.05467230848694
 30
0.0
  0
VERTEX
  5
586
  8
A-FRAME
 10
12.99118204555439
 20
14.06418748776214
 30
0.0
  0
VERTEX
  5
587
  8
A-FRAME
 10
12.9036342395331
 20
14.0737725050243
 30
0.0
  0
VERTEX
  5
588
  8
A-FRAME
 10
12.81656397731961
 20
14.08342698187334
 30
0.0
  0
VERTEX
  5
589
  8
A-FRAME
 10
12.72997469629874
 20
14.09315053716706
 30
0.0
  0
VERTEX
  5
58A
  8
A-FRAME
 10
12.64386981486707
 20
14.10294278703613
 30
0.0
  0
VERTEX
  5
58B
  8
A-FRAME
 10
12.55825273229787
 20
14.11280334489929
 30
0.0
  0
VERTEX
  5
58C
  8
A-FRAME
 10
12.47312682860695
 20
14.12273182147863
 30
0.0
  0
VERTEX
  5
58D
  8
A-FRAME
 10
12.38849546441925
 20
14.13272782481484
 30
0.0
  0
VERTEX
  5
58E
  8
A-FRAME
 10
12.3043619808361
 20
14.14279096028288
 30
0.0
  0
VERTEX
  5
58F
  8
A-FRAME
 10
12.22072969930339
 20
14.15292083060736
 30
0.0
  0
VERTEX
  5
590
  8
A-FRAME
 10
12.13760192148036
 20
14.16311703587836
 30
0.0
  0
VERTEX
  5
591
  8
A-FRAME
 10
12.05498192910941
 20
14.17337917356715
 30
0.0
  0
VERTEX
  5
592
  8
A-FRAME
 10
11.97287298388626
 20
14.18370683854209
 30
0.0
  0
VERTEX
  5
593
  8
A-FRAME
 10
11.89127832733157
 20
14.19409962308468
 30
0.0
  0
VERTEX
  5
594
  8
A-FRAME
 10
11.81020118066264
 20
14.20455711690556
 30
0.0
  0
VERTEX
  5
595
  8
A-FRAME
 10
11.7296447446664
 20
14.21507890716079
 30
0.0
  0
VERTEX
  5
596
  8
A-FRAME
 10
11.64961219957298
 20
14.2256645784681
 30
0.0
  0
VERTEX
  5
597
  8
A-FRAME
 10
11.57010670493024
 20
14.23631371292331
 30
0.0
  0
VERTEX
  5
598
  8
A-FRAME
 10
11.49113139947898
 20
14.24702589011683
 30
0.0
  0
VERTEX
  5
599
  8
A-FRAME
 10
11.41268940102904
 20
14.25780068715027
 30
0.0
  0
VERTEX
  5
59A
  8
A-FRAME
 10
11.33478380633618
 20
14.26863767865305
 30
0.0
  0
VERTEX
  5
59B
  8
A-FRAME
 10
11.25741769097989
 20
14.27953643679933
 30
0.0
  0
VERTEX
  5
59C
  8
A-FRAME
 10
11.18059410924195
 20
14.29049653132478
 30
0.0
  0
VERTEX
  5
59D
  8
A-FRAME
 10
11.1043160939858
 20
14.30151752954366
 30
0.0
  0
VERTEX
  5
59E
  8
A-FRAME
 10
11.02858665653688
 20
14.31259899636582
 30
0.0
  0
VERTEX
  5
59F
  8
A-FRAME
 10
10.95340878656372
 20
14.32374049431392
 30
0.0
  0
VERTEX
  5
5A0
  8
A-FRAME
 10
10.8787854519599
 20
14.3349415835407
 30
0.0
  0
VERTEX
  5
5A1
  8
A-FRAME
 10
10.80471959872689
 20
14.34620182184633
 30
0.0
  0
VERTEX
  5
5A2
  8
A-FRAME
 10
10.73121415085774
 20
14.3575207646959
 30
0.0
  0
VERTEX
  5
5A3
  8
A-FRAME
 10
10.6582720102217
 20
14.36889796523691
 30
0.0
  0
VERTEX
  5
5A4
  8
A-FRAME
 10
10.58589605644957
 20
14.38033297431698
 30
0.0
  0
VERTEX
  5
5A5
  8
A-FRAME
 10
10.51408914682009
 20
14.39182534050151
 30
0.0
  0
VERTEX
  5
5A6
  8
A-FRAME
 10
10.44285411614708
 20
14.40337461009158
 30
0.0
  0
VERTEX
  5
5A7
  8
A-FRAME
 10
10.37219377666757
 20
14.4149803271418
 30
0.0
  0
VERTEX
  5
5A8
  8
A-FRAME
 10
10.30211091793081
 20
14.42664203347832
 30
0.0
  0
VERTEX
  5
5A9
  8
A-FRAME
 10
10.232608306688
 20
14.43835926871696
 30
0.0
  0
VERTEX
  5
5AA
  8
A-FRAME
 10
10.16368868678328
 20
14.45013157028132
 30
0.0
  0
VERTEX
  5
5AB
  8
A-FRAME
 10
10.09535477904524
 20
14.4619584734211
 30
0.0
  0
VERTEX
  5
5AC
  8
A-FRAME
 10
10.02760928117951
 20
14.4738395112304
 30
0.0
  0
VERTEX
  5
5AD
  8
A-FRAME
 10
9.960454867662374
 20
14.48577421466622
 30
0.0
  0
VERTEX
  5
5AE
  8
A-FRAME
 10
9.893894189635088
 20
14.49776211256688
 30
0.0
  0
VERTEX
  5
5AF
  8
A-FRAME
 10
9.827929874799242
 20
14.50980273167071
 30
0.0
  0
VERTEX
  5
5B0
  8
A-FRAME
 10
9.762564527313042
 20
14.52189559663468
 30
0.0
  0
VERTEX
  5
5B1
  8
A-FRAME
 10
9.69780072768847
 20
14.53404023005319
 30
0.0
  0
VERTEX
  5
5B2
  8
A-FRAME
 10
9.633641032689457
 20
14.54623615247689
 30
0.0
  0
VERTEX
  5
5B3
  8
A-FRAME
 10
9.570087975230901
 20
14.55848288243167
 30
0.0
  0
VERTEX
  5
5B4
  8
A-FRAME
 10
9.507144064278695
 20
14.57077993643759
 30
0.0
  0
VERTEX
  5
5B5
  8
A-FRAME
 10
9.444811784750645
 20
14.58312682902802
 30
0.0
  0
VERTEX
  5
5B6
  8
A-FRAME
 10
9.383093597418448
 20
14.59552307276877
 30
0.0
  0
VERTEX
  5
5B7
  8
A-FRAME
 10
9.321991938810424
 20
14.60796817827738
 30
0.0
  0
VERTEX
  5
5B8
  8
A-FRAME
 10
9.261509221115464
 20
14.62046165424237
 30
0.0
  0
VERTEX
  5
5B9
  8
A-FRAME
 10
9.201647832087684
 20
14.63300300744272
 30
0.0
  0
VERTEX
  5
5BA
  8
A-FRAME
 10
9.142410134952225
 20
14.64559174276727
 30
0.0
  0
VERTEX
  5
5BB
  8
A-FRAME
 10
9.083798468311958
 20
14.65822736323433
 30
0.0
  0
VERTEX
  5
5BC
  8
A-FRAME
 10
9.025815146055091
 20
14.6709093700112
 30
0.0
  0
VERTEX
  5
5BD
  8
A-FRAME
 10
8.968462457263914
 20
14.68363726243399
 30
0.0
  0
VERTEX
  5
5BE
  8
A-FRAME
 10
8.911742666124407
 20
14.6964105380273
 30
0.0
  0
VERTEX
  5
5BF
  8
A-FRAME
 10
8.855658011836748
 20
14.70922869252407
 30
0.0
  0
VERTEX
  5
5C0
  8
A-FRAME
 10
8.800210708527107
 20
14.72209121988553
 30
0.0
  0
VERTEX
  5
5C1
  8
A-FRAME
 10
8.745402945160027
 20
14.7349976123211
 30
0.0
  0
VERTEX
  5
5C2
  8
A-FRAME
 10
8.691236885452238
 20
14.74794736030852
 30
0.0
  0
VERTEX
  5
5C3
  8
A-FRAME
 10
8.637714667786955
 20
14.76093995261392
 30
0.0
  0
VERTEX
  5
5C4
  8
A-FRAME
 10
8.58483840512972
 20
14.77397487631198
 30
0.0
  0
VERTEX
  5
5C5
  8
A-FRAME
 10
8.532610184944826
 20
14.78705161680625
 30
0.0
  0
VERTEX
  5
5C6
  8
A-FRAME
 10
8.48103206911301
 20
14.8001696578494
 30
0.0
  0
VERTEX
  5
5C7
  8
A-FRAME
 10
8.430106093849918
 20
14.81332848156363
 30
0.0
  0
VERTEX
  5
5C8
  8
A-FRAME
 10
8.3798342696259
 20
14.82652756846112
 30
0.0
  0
VERTEX
  5
5C9
  8
A-FRAME
 10
8.330218581086488
 20
14.83976639746451
 30
0.0
  0
VERTEX
  5
5CA
  8
A-FRAME
 10
8.2812609869741
 20
14.8530444459275
 30
0.0
  0
VERTEX
  5
5CB
  8
A-FRAME
 10
8.23296342005074
 20
14.86636118965547
 30
0.0
  0
VERTEX
  5
5CC
  8
A-FRAME
 10
8.18532778702161
 20
14.87971610292619
 30
0.0
  0
VERTEX
  5
5CD
  8
A-FRAME
 10
8.138355968459987
 20
14.89310865851054
 30
0.0
  0
VERTEX
  5
5CE
  8
A-FRAME
 10
8.092049818732793
 20
14.90653832769338
 30
0.0
  0
VERTEX
  5
5CF
  8
A-FRAME
 10
8.046411165927577
 20
14.92000458029433
 30
0.0
  0
VERTEX
  5
5D0
  8
A-FRAME
 10
8.001441811780172
 20
14.93350688468882
 30
0.0
  0
VERTEX
  5
5D1
  8
A-FRAME
 10
7.95714353160368
 20
14.94704470782899
 30
0.0
  0
VERTEX
  5
5D2
  8
A-FRAME
 10
7.913518074218377
 20
14.96061751526475
 30
0.0
  0
VERTEX
  5
5D3
  8
A-FRAME
 10
7.870567161882587
 20
14.97422477116492
 30
0.0
  0
VERTEX
  5
5D4
  8
A-FRAME
 10
7.828292490224822
 20
14.98786593833833
 30
0.0
  0
VERTEX
  5
5D5
  8
A-FRAME
 10
7.786695728176721
 20
15.00154047825505
 30
0.0
  0
VERTEX
  5
5D6
  8
A-FRAME
 10
7.745778517907215
 20
15.01524785106766
 30
0.0
  0
VERTEX
  5
5D7
  8
A-FRAME
 10
7.70554247475771
 20
15.02898751563256
 30
0.0
  0
VERTEX
  5
5D8
  8
A-FRAME
 10
7.66598918717828
 20
15.04275892953132
 30
0.0
  0
VERTEX
  5
5D9
  8
A-FRAME
 10
7.62712021666503
 20
15.0565615490921
 30
0.0
  0
VERTEX
  5
5DA
  8
A-FRAME
 10
7.588937097698324
 20
15.0703948294111
 30
0.0
  0
VERTEX
  5
5DB
  8
A-FRAME
 10
7.551441337682316
 20
15.08425822437411
 30
0.0
  0
VERTEX
  5
5DC
  8
A-FRAME
 10
7.514634416885446
 20
15.09815118667803
 30
0.0
  0
VERTEX
  5
5DD
  8
A-FRAME
 10
7.478517788381904
 20
15.11207316785251
 30
0.0
  0
VERTEX
  5
5DE
  8
A-FRAME
 10
7.443092877994342
 20
15.12602361828155
 30
0.0
  0
VERTEX
  5
5DF
  8
A-FRAME
 10
7.408361084237544
 20
15.14000198722527
 30
0.0
  0
VERTEX
  5
5E0
  8
A-FRAME
 10
7.374323778263292
 20
15.15400772284159
 30
0.0
  0
VERTEX
  5
5E1
  8
A-FRAME
 10
7.340982303806118
 20
15.16804027220807
 30
0.0
  0
VERTEX
  5
5E2
  8
A-FRAME
 10
7.308337977130353
 20
15.18209908134365
 30
0.0
  0
VERTEX
  5
5E3
  8
A-FRAME
 10
7.276392086978145
 20
15.19618359523065
 30
0.0
  0
VERTEX
  5
5E4
  8
A-FRAME
 10
7.24514589451849
 20
15.21029325783657
 30
0.0
  0
VERTEX
  5
5E5
  8
A-FRAME
 10
7.214600633297582
 20
15.22442751213609
 30
0.0
  0
VERTEX
  5
5E6
  8
A-FRAME
 10
7.184757509190046
 20
15.23858580013305
 30
0.0
  0
VERTEX
  5
5E7
  8
A-FRAME
 10
7.155617700351304
 20
15.25276756288249
 30
0.0
  0
VERTEX
  5
5E8
  8
A-FRAME
 10
7.127182357171133
 20
15.26697224051268
 30
0.0
  0
VERTEX
  5
5E9
  8
A-FRAME
 10
7.099452602228173
 20
15.28119927224729
 30
0.0
  0
VERTEX
  5
5EA
  8
A-FRAME
 10
7.072429530245689
 20
15.29544809642745
 30
0.0
  0
VERTEX
  5
5EB
  8
A-FRAME
 10
7.046114208048262
 20
15.309718150534
 30
0.0
  0
VERTEX
  5
5EC
  8
A-FRAME
 10
7.020507674519767
 20
15.32400887120962
 30
0.0
  0
VERTEX
  5
5ED
  8
A-FRAME
 10
6.995610940562333
 20
15.33831969428114
 30
0.0
  0
VERTEX
  5
5EE
  8
A-FRAME
 10
6.971424989056342
 20
15.35265005478176
 30
0.0
  0
VERTEX
  5
5EF
  8
A-FRAME
 10
6.947950774821745
 20
15.3669993869734
 30
0.0
  0
VERTEX
  5
5F0
  8
A-FRAME
 10
6.925189224580382
 20
15.38136712436897
 30
0.0
  0
VERTEX
  5
5F1
  8
A-FRAME
 10
6.903141236919236
 20
15.39575269975481
 30
0.0
  0
VERTEX
  5
5F2
  8
A-FRAME
 10
6.881807682255111
 20
15.41015554521306
 30
0.0
  0
VERTEX
  5
5F3
  8
A-FRAME
 10
6.861189402800211
 20
15.42457509214401
 30
0.0
  0
VERTEX
  5
5F4
  8
A-FRAME
 10
6.841287212528943
 20
15.43901077128865
 30
0.0
  0
VERTEX
  5
5F5
  8
A-FRAME
 10
6.82210189714564
 20
15.45346201275108
 30
0.0
  0
VERTEX
  5
5F6
  8
A-FRAME
 10
6.803634214053769
 20
15.46792824602105
 30
0.0
  0
VERTEX
  5
5F7
  8
A-FRAME
 10
6.785884892325772
 20
15.48240889999641
 30
0.0
  0
VERTEX
  5
5F8
  8
A-FRAME
 10
6.76885463267455
 20
15.49690340300575
 30
0.0
  0
VERTEX
  5
5F9
  8
A-FRAME
 10
6.752544107425532
 20
15.51141118283093
 30
0.0
  0
VERTEX
  5
5FA
  8
A-FRAME
 10
6.736953960490357
 20
15.52593166672962
 30
0.0
  0
VERTEX
  5
5FB
  8
A-FRAME
 10
6.722084807341314
 20
15.54046428145798
 30
0.0
  0
VERTEX
  5
5FC
  8
A-FRAME
 10
6.707937234987138
 20
15.55500845329327
 30
0.0
  0
VERTEX
  5
5FD
  8
A-FRAME
 10
6.694511801949741
 20
15.56956360805649
 30
0.0
  0
VERTEX
  5
5FE
  8
A-FRAME
 10
6.681809038242218
 20
15.58412917113506
 30
0.0
  0
VERTEX
  5
5FF
  8
A-FRAME
 10
6.669829445347954
 20
15.59870456750547
 30
0.0
  0
VERTEX
  5
600
  8
A-FRAME
 10
6.658573496200749
 20
15.61328922175604
 30
0.0
  0
VERTEX
  5
601
  8
A-FRAME
 10
6.648041635166219
 20
15.62788255810959
 30
0.0
  0
VERTEX
  5
602
  8
A-FRAME
 10
6.638234278024175
 20
15.6424840004462
 30
0.0
  0
VERTEX
  5
603
  8
A-FRAME
 10
6.62915181195233
 20
15.65709297232591
 30
0.0
  0
VERTEX
  5
604
  8
A-FRAME
 10
6.620794595510841
 20
15.67170889701154
 30
0.0
  0
VERTEX
  5
605
  8
A-FRAME
 10
6.613162958628326
 20
15.68633119749141
 30
0.0
  0
VERTEX
  5
606
  8
A-FRAME
 10
6.60625720258874
 20
15.70095929650212
 30
0.0
  0
VERTEX
  5
607
  8
A-FRAME
 10
6.600077600019528
 20
15.71559261655139
 30
0.0
  0
VERTEX
  5
608
  8
A-FRAME
 10
6.594624394880778
 20
15.73023057994077
 30
0.0
  0
VERTEX
  5
609
  8
A-FRAME
 10
6.589897802455734
 20
15.74487260878856
 30
0.0
  0
VERTEX
  5
60A
  8
A-FRAME
 10
6.585898009342142
 20
15.7595181250525
 30
0.0
  0
VERTEX
  5
60B
  8
A-FRAME
 10
6.582625173444999
 20
15.77416655055272
 30
0.0
  0
VERTEX
  5
60C
  8
A-FRAME
 10
6.58007942397025
 20
15.78881730699445
 30
0.0
  0
VERTEX
  5
60D
  8
A-FRAME
 10
6.578260861419739
 20
15.8034698159909
 30
0.0
  0
VERTEX
  5
60E
  8
A-FRAME
 10
6.577169557587208
 20
15.81812349908612
 30
0.0
  0
SEQEND
  5
60F
  8
A-FRAME
  0
POLYLINE
  5
43
  8
A-FRAME
 66
     1
 10
0.0
 20
0.0
 30
0.0
 70
     1
  0
VERTEX
  5
610
  8
A-FRAME
 10
6.576805555555433
 20
7.832777777777778
 30
0.0
  0
VERTEX
  5
611
  8
A-FRAME
 10
6.396605495876878
 20
7.871112931586369
 30
0.0
  0
VERTEX
  5
612
  8
A-FRAME
 10
6.235738932291492
 20
7.905657159288129
 30
0.0
  0
VERTEX
  5
613
  8
A-FRAME
 10
5.977282986111279
 20
7.96185543402771
 30
0.0
  0
VERTEX
  5
614
  8
A-FRAME
 10
5.811991102430513
 20
7.998337797308979
 30
0.0
  0
VERTEX
  5
615
  8
A-FRAME
 10
5.750416666666746
 20
8.012069444444359
 30
0.0
  0
VERTEX
  5
616
  8
A-FRAME
 10
4.421472222222286
 20
8.012069444444359
 30
0.0
  0
VERTEX
  5
617
  8
A-FRAME
 10
3.849791666666528
 20
5.077763888888853
 30
0.0
  0
VERTEX
  5
618
  8
A-FRAME
 10
3.004319444444258
 20
5.077763888888853
 30
0.0
  0
VERTEX
  5
619
  8
A-FRAME
 10
3.002792050301652
 20
5.07715444534881
 30
0.0
  0
VERTEX
  5
61A
  8
A-FRAME
 10
2.999619352989152
 20
5.076552537345833
 30
0.0
  0
VERTEX
  5
61B
  8
A-FRAME
 10
2.988524725172278
 20
5.075245879279237
 30
0.0
  0
VERTEX
  5
61C
  8
A-FRAME
 10
2.948645270996161
 20
5.071343054199131
 30
0.0
  0
VERTEX
  5
61D
  8
A-FRAME
 10
2.920607149908387
 20
5.068245092497932
 30
0.0
  0
VERTEX
  5
61E
  8
A-FRAME
 10
2.887667903001779
 20
5.0640482348972
 30
0.0
  0
VERTEX
  5
61F
  8
A-FRAME
 10
2.850200882911837
 20
5.058501584053033
 30
0.0
  0
VERTEX
  5
620
  8
A-FRAME
 10
2.808579442274089
 20
5.051354242621528
 30
0.0
  0
VERTEX
  5
621
  8
A-FRAME
 10
2.76317693372493
 20
5.042355313258668
 30
0.0
  0
VERTEX
  5
622
  8
A-FRAME
 10
2.739174451682169
 20
5.03708309768308
 30
0.0
  0
VERTEX
  5
623
  8
A-FRAME
 10
2.714366709899879
 20
5.031253898620548
 30
0.0
  0
VERTEX
  5
624
  8
A-FRAME
 10
2.688800377457477
 20
5.024836353903311
 30
0.0
  0
VERTEX
  5
625
  8
A-FRAME
 10
2.66252212343443
 20
5.017799101363266
 30
0.0
  0
VERTEX
  5
626
  8
A-FRAME
 10
2.635578616910147
 20
5.010110778832427
 30
0.0
  0
VERTEX
  5
627
  8
A-FRAME
 10
2.608016526964088
 20
5.001740024142805
 30
0.0
  0
VERTEX
  5
628
  8
A-FRAME
 10
2.579882522675691
 20
4.992655475126298
 30
0.0
  0
VERTEX
  5
629
  8
A-FRAME
 10
2.551223273124828
 20
4.982825769615147
 30
0.0
  0
VERTEX
  5
62A
  8
A-FRAME
 10
2.522085447390511
 20
4.972219545441133
 30
0.0
  0
VERTEX
  5
62B
  8
A-FRAME
 10
2.49251571455215
 20
4.960805440436388
 30
0.0
  0
VERTEX
  5
62C
  8
A-FRAME
 10
2.462560743689659
 20
4.948552092432919
 30
0.0
  0
VERTEX
  5
62D
  8
A-FRAME
 10
2.432267203882022
 20
4.93542813926274
 30
0.0
  0
VERTEX
  5
62E
  8
A-FRAME
 10
2.40168176420911
 20
4.921402218757748
 30
0.0
  0
VERTEX
  5
62F
  8
A-FRAME
 10
2.370851093749929
 20
4.906442968749955
 30
0.0
  0
VERTEX
  5
630
  8
A-FRAME
 10
2.339821861584356
 20
4.890519027071491
 30
0.0
  0
VERTEX
  5
631
  8
A-FRAME
 10
2.308640736791853
 20
4.873599031554249
 30
0.0
  0
VERTEX
  5
632
  8
A-FRAME
 10
2.27735438845138
 20
4.855651620030358
 30
0.0
  0
VERTEX
  5
633
  8
A-FRAME
 10
2.246009485643301
 20
4.836645430331714
 30
0.0
  0
VERTEX
  5
634
  8
A-FRAME
 10
2.214652697446121
 20
4.816549100290329
 30
0.0
  0
VERTEX
  5
635
  8
A-FRAME
 10
2.183330692939757
 20
4.795331267738334
 30
0.0
  0
VERTEX
  5
636
  8
A-FRAME
 10
2.152090141203638
 20
4.772960570507507
 30
0.0
  0
VERTEX
  5
637
  8
A-FRAME
 10
2.120977711317211
 20
4.749405646430091
 30
0.0
  0
VERTEX
  5
638
  8
A-FRAME
 10
2.090040072359892
 20
4.724635133337983
 30
0.0
  0
VERTEX
  5
639
  8
A-FRAME
 10
2.059323893411596
 20
4.698617669063083
 30
0.0
  0
VERTEX
  5
63A
  8
A-FRAME
 10
2.028875843550852
 20
4.671321891437628
 30
0.0
  0
VERTEX
  5
63B
  8
A-FRAME
 10
1.998742591857992
 20
4.642716438293405
 30
0.0
  0
VERTEX
  5
63C
  8
A-FRAME
 10
1.983808599411526
 20
4.627912782724366
 30
0.0
  0
VERTEX
  5
63D
  8
A-FRAME
 10
1.968970807412001
 20
4.612769947462539
 30
0.0
  0
VERTEX
  5
63E
  8
A-FRAME
 10
1.95423504949394
 20
4.597284012237196
 30
0.0
  0
VERTEX
  5
63F
  8
A-FRAME
 10
1.939607159292331
 20
4.581451056777041
 30
0.0
  0
VERTEX
  5
640
  8
A-FRAME
 10
1.925092970442622
 20
4.565267160811345
 30
0.0
  0
VERTEX
  5
641
  8
A-FRAME
 10
1.910698316578868
 20
4.548728404068925
 30
0.0
  0
VERTEX
  5
642
  8
A-FRAME
 10
1.896429031336533
 20
4.531830866278824
 30
0.0
  0
VERTEX
  5
643
  8
A-FRAME
 10
1.882290948350603
 20
4.514570627170087
 30
0.0
  0
VERTEX
  5
644
  8
A-FRAME
 10
1.868289901256043
 20
4.496943766471757
 30
0.0
  0
VERTEX
  5
645
  8
A-FRAME
 10
1.854431723687407
 20
4.478946363912655
 30
0.0
  0
VERTEX
  5
646
  8
A-FRAME
 10
1.840722249279667
 20
4.460574499221934
 30
0.0
  0
VERTEX
  5
647
  8
A-FRAME
 10
1.827167311668292
 20
4.441824252128526
 30
0.0
  0
VERTEX
  5
648
  8
A-FRAME
 10
1.813772744487773
 20
4.42269170236159
 30
0.0
  0
VERTEX
  5
649
  8
A-FRAME
 10
1.800544381373117
 20
4.403172929649827
 30
0.0
  0
VERTEX
  5
64A
  8
A-FRAME
 10
1.787488055959331
 20
4.383264013722508
 30
0.0
  0
VERTEX
  5
64B
  8
A-FRAME
 10
1.774609601881361
 20
4.362961034308455
 30
0.0
  0
VERTEX
  5
64C
  8
A-FRAME
 10
1.761914852773772
 20
4.34226007113682
 30
0.0
  0
VERTEX
  5
64D
  8
A-FRAME
 10
1.74940964227198
 20
4.321157203936536
 30
0.0
  0
VERTEX
  5
64E
  8
A-FRAME
 10
1.737099804010542
 20
4.299648512436534
 30
0.0
  0
VERTEX
  5
64F
  8
A-FRAME
 10
1.724991171624881
 20
4.27773007636597
 30
0.0
  0
VERTEX
  5
650
  8
A-FRAME
 10
1.713089578749527
 20
4.255397975453661
 30
0.0
  0
VERTEX
  5
651
  8
A-FRAME
 10
1.701400859019481
 20
4.232648289428766
 30
0.0
  0
VERTEX
  5
652
  8
A-FRAME
 10
1.68993084606973
 20
4.209477098020216
 30
0.0
  0
VERTEX
  5
653
  8
A-FRAME
 10
1.67868537353524
 20
4.185880480956939
 30
0.0
  0
VERTEX
  5
654
  8
A-FRAME
 10
1.66767027505057
 20
4.161854517968095
 30
0.0
  0
VERTEX
  5
655
  8
A-FRAME
 10
1.656891384251589
 20
4.137395288782614
 30
0.0
  0
VERTEX
  5
656
  8
A-FRAME
 10
1.646354534771939
 20
4.112498873129425
 30
0.0
  0
VERTEX
  5
657
  8
A-FRAME
 10
1.636065560247511
 20
4.087161350737686
 30
0.0
  0
VERTEX
  5
658
  8
A-FRAME
 10
1.62603029431329
 20
4.061378801336218
 30
0.0
  0
VERTEX
  5
659
  8
A-FRAME
 10
1.616254570603362
 20
4.03514730465406
 30
0.0
  0
VERTEX
  5
65A
  8
A-FRAME
 10
1.6067442227536
 20
4.008462940420372
 30
0.0
  0
VERTEX
  5
65B
  8
A-FRAME
 10
1.59750508439811
 20
3.981321788363969
 30
0.0
  0
VERTEX
  5
65C
  8
A-FRAME
 10
1.588542989172312
 20
3.9537199282139
 30
0.0
  0
VERTEX
  5
65D
  8
A-FRAME
 10
1.579863770711187
 20
3.925653439699204
 30
0.0
  0
VERTEX
  5
65E
  8
A-FRAME
 10
1.571473262649301
 20
3.897118402548926
 30
0.0
  0
VERTEX
  5
65F
  8
A-FRAME
 10
1.563377298622067
 20
3.868110896491999
 30
0.0
  0
VERTEX
  5
660
  8
A-FRAME
 10
1.555581712264031
 20
3.83862700125735
 30
0.0
  0
VERTEX
  5
661
  8
A-FRAME
 10
1.548092337210607
 20
3.80866279657414
 30
0.0
  0
VERTEX
  5
662
  8
A-FRAME
 10
1.540915007095906
 20
3.778214362171298
 30
0.0
  0
VERTEX
  5
663
  8
A-FRAME
 10
1.534055555555371
 20
3.747277777777754
 30
0.0
  0
VERTEX
  5
664
  8
A-FRAME
 10
1.0
 20
1.0
 30
0.0
  0
VERTEX
  5
665
  8
A-FRAME
 10
2.54176388888891
 20
1.000027777777745
 30
0.0
  0
VERTEX
  5
666
  8
A-FRAME
 10
2.875777777777779
 20
2.718694444444395
 30
0.0
  0
VERTEX
  5
667
  8
A-FRAME
 10
3.598597222221999
 20
2.578416666666612
 30
0.0
  0
VERTEX
  5
668
  8
A-FRAME
 10
3.296249999999867
 20
1.000027777777745
 30
0.0
  0
VERTEX
  5
669
  8
A-FRAME
 10
6.576805555555433
 20
1.000027777777745
 30
0.0
  0
VERTEX
  5
66A
  8
A-FRAME
 10
46.70374999220939
 20
1.000892588103738
 30
0.0
  0
VERTEX
  5
66B
  8
A-FRAME
 10
46.40140276998726
 20
2.579281476992605
 30
0.0
  0
VERTEX
  5
66C
  8
A-FRAME
 10
47.12422221443148
 20
2.719559254770388
 30
0.0
  0
VERTEX
  5
66D
  8
A-FRAME
 10
47.45823610332035
 20
1.000892588103738
 30
0.0
  0
VERTEX
  5
66E
  8
A-FRAME
 10
48.99999999220926
 20
1.000864810325993
 30
0.0
  0
VERTEX
  5
66F
  8
A-FRAME
 10
48.46594443665389
 20
3.748142588103747
 30
0.0
  0
VERTEX
  5
670
  8
A-FRAME
 10
48.45908498511334
 20
3.779079172497291
 30
0.0
  0
VERTEX
  5
671
  8
A-FRAME
 10
48.45190765499864
 20
3.809527606900131
 30
0.0
  0
VERTEX
  5
672
  8
A-FRAME
 10
48.44441827994523
 20
3.839491811583343
 30
0.0
  0
VERTEX
  5
673
  8
A-FRAME
 10
48.43662269358719
 20
3.868975706817992
 30
0.0
  0
VERTEX
  5
674
  8
A-FRAME
 10
48.42852672955996
 20
3.897983212874919
 30
0.0
  0
VERTEX
  5
675
  8
A-FRAME
 10
48.42013622149806
 20
3.926518250025197
 30
0.0
  0
VERTEX
  5
676
  8
A-FRAME
 10
48.41145700303695
 20
3.954584738539891
 30
0.0
  0
VERTEX
  5
677
  8
A-FRAME
 10
48.40249490781114
 20
3.982186598689962
 30
0.0
  0
VERTEX
  5
678
  8
A-FRAME
 10
48.39325576945566
 20
4.009327750746365
 30
0.0
  0
VERTEX
  5
679
  8
A-FRAME
 10
48.3837454216059
 20
4.036012114980053
 30
0.0
  0
VERTEX
  5
67A
  8
A-FRAME
 10
48.37396969789597
 20
4.062243611662211
 30
0.0
  0
VERTEX
  5
67B
  8
A-FRAME
 10
48.36393443196175
 20
4.088026161063681
 30
0.0
  0
VERTEX
  5
67C
  8
A-FRAME
 10
48.35364545743732
 20
4.113363683455418
 30
0.0
  0
VERTEX
  5
67D
  8
A-FRAME
 10
48.34310860795767
 20
4.138260099108606
 30
0.0
  0
VERTEX
  5
67E
  8
A-FRAME
 10
48.33232971715869
 20
4.162719328294088
 30
0.0
  0
VERTEX
  5
67F
  8
A-FRAME
 10
48.32131461867402
 20
4.186745291282932
 30
0.0
  0
VERTEX
  5
680
  8
A-FRAME
 10
48.31006914613953
 20
4.210341908346209
 30
0.0
  0
VERTEX
  5
681
  8
A-FRAME
 10
48.29859913318978
 20
4.233513099754759
 30
0.0
  0
VERTEX
  5
682
  8
A-FRAME
 10
48.28691041345973
 20
4.256262785779654
 30
0.0
  0
VERTEX
  5
683
  8
A-FRAME
 10
48.27500882058438
 20
4.278594886691963
 30
0.0
  0
VERTEX
  5
684
  8
A-FRAME
 10
48.26290018819872
 20
4.300513322762527
 30
0.0
  0
VERTEX
  5
685
  8
A-FRAME
 10
48.25059034993728
 20
4.322022014262529
 30
0.0
  0
VERTEX
  5
686
  8
A-FRAME
 10
48.23808513943549
 20
4.343124881462813
 30
0.0
  0
VERTEX
  5
687
  8
A-FRAME
 10
48.22539039032788
 20
4.363825844634448
 30
0.0
  0
VERTEX
  5
688
  8
A-FRAME
 10
48.21251193624993
 20
4.384128824048503
 30
0.0
  0
VERTEX
  5
689
  8
A-FRAME
 10
48.19945561083613
 20
4.40403773997582
 30
0.0
  0
VERTEX
  5
68A
  8
A-FRAME
 10
48.18622724772148
 20
4.423556512687583
 30
0.0
  0
VERTEX
  5
68B
  8
A-FRAME
 10
48.17283268054097
 20
4.442689062454519
 30
0.0
  0
VERTEX
  5
68C
  8
A-FRAME
 10
48.15927774292958
 20
4.461439309547927
 30
0.0
  0
VERTEX
  5
68D
  8
A-FRAME
 10
48.14556826852185
 20
4.479811174238648
 30
0.0
  0
VERTEX
  5
68E
  8
A-FRAME
 10
48.13171009095321
 20
4.497808576797752
 30
0.0
  0
VERTEX
  5
68F
  8
A-FRAME
 10
48.11770904385866
 20
4.51543543749608
 30
0.0
  0
VERTEX
  5
690
  8
A-FRAME
 10
48.10357096087271
 20
4.532695676604817
 30
0.0
  0
VERTEX
  5
691
  8
A-FRAME
 10
48.08930167563039
 20
4.549593214394918
 30
0.0
  0
VERTEX
  5
692
  8
A-FRAME
 10
48.07490702176664
 20
4.566131971137338
 30
0.0
  0
VERTEX
  5
693
  8
A-FRAME
 10
48.06039283291692
 20
4.582315867103034
 30
0.0
  0
VERTEX
  5
694
  8
A-FRAME
 10
48.04576494271532
 20
4.598148822563189
 30
0.0
  0
VERTEX
  5
695
  8
A-FRAME
 10
48.03102918479726
 20
4.613634757788532
 30
0.0
  0
VERTEX
  5
696
  8
A-FRAME
 10
48.01619139279773
 20
4.628777593050359
 30
0.0
  0
VERTEX
  5
697
  8
A-FRAME
 10
48.00125740035127
 20
4.643581248619398
 30
0.0
  0
VERTEX
  5
698
  8
A-FRAME
 10
47.97112414865841
 20
4.672186701763621
 30
0.0
  0
VERTEX
  5
699
  8
A-FRAME
 10
47.94067609879766
 20
4.699482479389076
 30
0.0
  0
VERTEX
  5
69A
  8
A-FRAME
 10
47.90995991984936
 20
4.725499943663976
 30
0.0
  0
VERTEX
  5
69B
  8
A-FRAME
 10
47.87902228089205
 20
4.750270456756084
 30
0.0
  0
VERTEX
  5
69C
  8
A-FRAME
 10
47.84790985100562
 20
4.7738253808335
 30
0.0
  0
VERTEX
  5
69D
  8
A-FRAME
 10
47.8166692992695
 20
4.796196078064327
 30
0.0
  0
VERTEX
  5
69E
  8
A-FRAME
 10
47.78534729476313
 20
4.817413910616322
 30
0.0
  0
VERTEX
  5
69F
  8
A-FRAME
 10
47.75399050656596
 20
4.837510240657707
 30
0.0
  0
VERTEX
  5
6A0
  8
A-FRAME
 10
47.72264560375786
 20
4.856516430356351
 30
0.0
  0
VERTEX
  5
6A1
  8
A-FRAME
 10
47.6913592554174
 20
4.874463841880242
 30
0.0
  0
VERTEX
  5
6A2
  8
A-FRAME
 10
47.66017813062489
 20
4.891383837397484
 30
0.0
  0
VERTEX
  5
6A3
  8
A-FRAME
 10
47.62914889845933
 20
4.907307779075948
 30
0.0
  0
VERTEX
  5
6A4
  8
A-FRAME
 10
47.59831822800015
 20
4.922267029083741
 30
0.0
  0
VERTEX
  5
6A5
  8
A-FRAME
 10
47.56773278832724
 20
4.936292949588731
 30
0.0
  0
VERTEX
  5
6A6
  8
A-FRAME
 10
47.5374392485196
 20
4.949416902758912
 30
0.0
  0
VERTEX
  5
6A7
  8
A-FRAME
 10
47.50748427765711
 20
4.961670250762381
 30
0.0
  0
VERTEX
  5
6A8
  8
A-FRAME
 10
47.47791454481875
 20
4.973084355767126
 30
0.0
  0
VERTEX
  5
6A9
  8
A-FRAME
 10
47.44877671908443
 20
4.98369057994114
 30
0.0
  0
VERTEX
  5
6AA
  8
A-FRAME
 10
47.42011746953357
 20
4.993520285452291
 30
0.0
  0
VERTEX
  5
6AB
  8
A-FRAME
 10
47.39198346524517
 20
5.002604834468796
 30
0.0
  0
VERTEX
  5
6AC
  8
A-FRAME
 10
47.36442137529911
 20
5.01097558915842
 30
0.0
  0
VERTEX
  5
6AD
  8
A-FRAME
 10
47.33747786877482
 20
5.018663911689259
 30
0.0
  0
VERTEX
  5
6AE
  8
A-FRAME
 10
47.31119961475178
 20
5.025701164229304
 30
0.0
  0
VERTEX
  5
6AF
  8
A-FRAME
 10
47.28563328230938
 20
5.032118708946541
 30
0.0
  0
VERTEX
  5
6B0
  8
A-FRAME
 10
47.26082554052709
 20
5.037947908009073
 30
0.0
  0
VERTEX
  5
6B1
  8
A-FRAME
 10
47.23682305848433
 20
5.043220123584661
 30
0.0
  0
VERTEX
  5
6B2
  8
A-FRAME
 10
47.19142054993517
 20
5.052219052947521
 30
0.0
  0
VERTEX
  5
6B3
  8
A-FRAME
 10
47.14979910929741
 20
5.059366394379026
 30
0.0
  0
VERTEX
  5
6B4
  8
A-FRAME
 10
47.11233208920748
 20
5.064913045223193
 30
0.0
  0
VERTEX
  5
6B5
  8
A-FRAME
 10
47.07939284230087
 20
5.069109902823925
 30
0.0
  0
VERTEX
  5
6B6
  8
A-FRAME
 10
47.05135472121309
 20
5.072207864525124
 30
0.0
  0
VERTEX
  5
6B7
  8
A-FRAME
 10
47.01147526703698
 20
5.07611068960523
 30
0.0
  0
VERTEX
  5
6B8
  8
A-FRAME
 10
47.0003806392201
 20
5.077417347671826
 30
0.0
  0
VERTEX
  5
6B9
  8
A-FRAME
 10
46.99720794190761
 20
5.078019255674803
 30
0.0
  0
VERTEX
  5
6BA
  8
A-FRAME
 10
46.995680547765
 20
5.078628699214846
 30
0.0
  0
VERTEX
  5
6BB
  8
A-FRAME
 10
46.15020832554273
 20
5.078628699214846
 30
0.0
  0
VERTEX
  5
6BC
  8
A-FRAME
 10
45.57852776998697
 20
8.012934254770359
 30
0.0
  0
VERTEX
  5
6BD
  8
A-FRAME
 10
44.24958332554251
 20
8.012934254770359
 30
0.0
  0
VERTEX
  5
6BE
  8
A-FRAME
 10
44.18800888977875
 20
7.999202607634968
 30
0.0
  0
VERTEX
  5
6BF
  8
A-FRAME
 10
44.02271700609798
 20
7.962720244353699
 30
0.0
  0
VERTEX
  5
6C0
  8
A-FRAME
 10
43.76426105991776
 20
7.906521969614118
 30
0.0
  0
VERTEX
  5
6C1
  8
A-FRAME
 10
43.60339449633238
 20
7.871977741912358
 30
0.0
  0
VERTEX
  5
6C2
  8
A-FRAME
 10
43.42319443665375
 20
7.833642588103768
 30
0.0
  0
VERTEX
  5
6C3
  8
A-FRAME
 10
43.4228311225145
 20
7.818988292341485
 30
0.0
  0
VERTEX
  5
6C4
  8
A-FRAME
 10
43.42174050654739
 20
7.804334558035094
 30
0.0
  0
VERTEX
  5
6C5
  8
A-FRAME
 10
43.41992263180799
 20
7.789681963688933
 30
0.0
  0
VERTEX
  5
6C6
  8
A-FRAME
 10
43.4173775700629
 20
7.775031087762333
 30
0.0
  0
VERTEX
  5
6C7
  8
A-FRAME
 10
43.41410542178679
 20
7.760382508646794
 30
0.0
  0
VERTEX
  5
6C8
  8
A-FRAME
 10
43.41010631615848
 20
7.745736804643137
 30
0.0
  0
VERTEX
  5
6C9
  8
A-FRAME
 10
43.40538041105581
 20
7.731094553938673
 30
0.0
  0
VERTEX
  5
6CA
  8
A-FRAME
 10
43.39992789304939
 20
7.716456334584393
 30
0.0
  0
VERTEX
  5
6CB
  8
A-FRAME
 10
43.39374897739534
 20
7.701822724472132
 30
0.0
  0
VERTEX
  5
6CC
  8
A-FRAME
 10
43.38684390802666
 20
7.687194301311761
 30
0.0
  0
VERTEX
  5
6CD
  8
A-FRAME
 10
43.37921295754364
 20
7.672571642608377
 30
0.0
  0
VERTEX
  5
6CE
  8
A-FRAME
 10
43.37085642720317
 20
7.657955325639506
 30
0.0
  0
VERTEX
  5
6CF
  8
A-FRAME
 10
43.36177464690672
 20
7.643345927432319
 30
0.0
  0
VERTEX
  5
6D0
  8
A-FRAME
 10
43.35196797518748
 20
7.62874402474084
 30
0.0
  0
VERTEX
  5
6D1
  8
A-FRAME
 10
43.341436799196
 20
7.614150194023184
 30
0.0
  0
VERTEX
  5
6D2
  8
A-FRAME
 10
43.33018153468512
 20
7.599565011418798
 30
0.0
  0
VERTEX
  5
6D3
  8
A-FRAME
 10
43.3182026259934
 20
7.584989052725721
 30
0.0
  0
VERTEX
  5
6D4
  8
A-FRAME
 10
43.30550054602763
 20
7.570422893377843
 30
0.0
  0
VERTEX
  5
6D5
  8
A-FRAME
 10
43.2920757962442
 20
7.555867108422191
 30
0.0
  0
VERTEX
  5
6D6
  8
A-FRAME
 10
43.27792890662921
 20
7.541322272496235
 30
0.0
  0
VERTEX
  5
6D7
  8
A-FRAME
 10
43.26306043567767
 20
7.52678895980519
 30
0.0
  0
VERTEX
  5
6D8
  8
A-FRAME
 10
43.24747097037135
 20
7.512267744099358
 30
0.0
  0
VERTEX
  5
6D9
  8
A-FRAME
 10
43.23116112615563
 20
7.497759198651471
 30
0.0
  0
VERTEX
  5
6DA
  8
A-FRAME
 10
43.21413154691525
 20
7.483263896234057
 30
0.0
  0
VERTEX
  5
6DB
  8
A-FRAME
 10
43.19638290494883
 20
7.468782409096841
 30
0.0
  0
VERTEX
  5
6DC
  8
A-FRAME
 10
43.17791590094237
 20
7.454315308944135
 30
0.0
  0
VERTEX
  5
6DD
  8
A-FRAME
 10
43.15873126394157
 20
7.43986316691228
 30
0.0
  0
VERTEX
  5
6DE
  8
A-FRAME
 10
43.13882975132303
 20
7.425426553547103
 30
0.0
  0
VERTEX
  5
6DF
  8
A-FRAME
 10
43.11821214876441
 20
7.411006038781377
 30
0.0
  0
VERTEX
  5
6E0
  8
A-FRAME
 10
43.09687927021336
 20
7.396602191912331
 30
0.0
  0
VERTEX
  5
6E1
  8
A-FRAME
 10
43.07483195785538
 20
7.38221558157918
 30
0.0
  0
VERTEX
  5
6E2
  8
A-FRAME
 10
43.05207108208062
 20
7.367846775740665
 30
0.0
  0
VERTEX
  5
6E3
  8
A-FRAME
 10
43.02859754144949
 20
7.353496341652635
 30
0.0
  0
VERTEX
  5
6E4
  8
A-FRAME
 10
43.00441226265716
 20
7.339164845845657
 30
0.0
  0
VERTEX
  5
6E5
  8
A-FRAME
 10
42.97951620049705
 20
7.324852854102646
 30
0.0
  0
VERTEX
  5
6E6
  8
A-FRAME
 10
42.95391033782305
 20
7.310560931436532
 30
0.0
  0
VERTEX
  5
6E7
  8
A-FRAME
 10
42.92759568551077
 20
7.296289642067947
 30
0.0
  0
VERTEX
  5
6E8
  8
A-FRAME
 10
42.90057328241765
 20
7.282039549402963
 30
0.0
  0
VERTEX
  5
6E9
  8
A-FRAME
 10
42.87284419534186
 20
7.267811216010834
 30
0.0
  0
VERTEX
  5
6EA
  8
A-FRAME
 10
42.84440951898031
 20
7.253605203601799
 30
0.0
  0
VERTEX
  5
6EB
  8
A-FRAME
 10
42.8152703758853
 20
7.23942207300491
 30
0.0
  0
VERTEX
  5
6EC
  8
A-FRAME
 10
42.78542791642034
 20
7.22526238414587
 30
0.0
  0
VERTEX
  5
6ED
  8
A-FRAME
 10
42.75488331871461
 20
7.211126696024955
 30
0.0
  0
VERTEX
  5
6EE
  8
A-FRAME
 10
42.72363778861654
 20
7.197015566694926
 30
0.0
  0
VERTEX
  5
6EF
  8
A-FRAME
 10
42.69169255964614
 20
7.182929553239005
 30
0.0
  0
VERTEX
  5
6F0
  8
A-FRAME
 10
42.65904889294637
 20
7.168869211748886
 30
0.0
  0
VERTEX
  5
6F1
  8
A-FRAME
 10
42.62570807723329
 20
7.154835097302776
 30
0.0
  0
VERTEX
  5
6F2
  8
A-FRAME
 10
42.59167142874522
 20
7.140827763943484
 30
0.0
  0
VERTEX
  5
6F3
  8
A-FRAME
 10
42.55694029119073
 20
7.126847764656544
 30
0.0
  0
VERTEX
  5
6F4
  8
A-FRAME
 10
42.5215160356957
 20
7.112895651348392
 30
0.0
  0
VERTEX
  5
6F5
  8
A-FRAME
 10
42.48540006074906
 20
7.098971974824572
 30
0.0
  0
VERTEX
  5
6F6
  8
A-FRAME
 10
42.44859379214769
 20
7.085077284767991
 30
0.0
  0
VERTEX
  5
6F7
  8
A-FRAME
 10
42.41109868294001
 20
7.071212129717221
 30
0.0
  0
VERTEX
  5
6F8
  8
A-FRAME
 10
42.37291621336877
 20
7.057377057044842
 30
0.0
  0
VERTEX
  5
6F9
  8
A-FRAME
 10
42.33404789081245
 20
7.043572612935835
 30
0.0
  0
VERTEX
  5
6FA
  8
A-FRAME
 10
42.2944952497259
 20
7.029799342366015
 30
0.0
  0
VERTEX
  5
6FB
  8
A-FRAME
 10
42.25425985157965
 20
7.016057789080522
 30
0.0
  0
VERTEX
  5
6FC
  8
A-FRAME
 10
42.21334328479833
 20
7.002348495572349
 30
0.0
  0
VERTEX
  5
6FD
  8
A-FRAME
 10
42.17174716469795
 20
6.98867200306093
 30
0.0
  0
VERTEX
  5
6FE
  8
A-FRAME
 10
42.12947313342208
 20
6.975028851470773
 30
0.0
  0
VERTEX
  5
6FF
  8
A-FRAME
 10
42.08652285987711
 20
6.961419579410141
 30
0.0
  0
VERTEX
  5
700
  8
A-FRAME
 10
42.0428980396663
 20
6.947844724149789
 30
0.0
  0
VERTEX
  5
701
  8
A-FRAME
 10
41.99860039502283
 20
6.934304821601764
 30
0.0
  0
VERTEX
  5
702
  8
A-FRAME
 10
41.95363167474189
 20
6.92080040629823
 30
0.0
  0
VERTEX
  5
703
  8
A-FRAME
 10
41.90799365411154
 20
6.907332011370384
 30
0.0
  0
VERTEX
  5
704
  8
A-FRAME
 10
41.86168813484269
 20
6.893900168527393
 30
0.0
  0
VERTEX
  5
705
  8
A-FRAME
 10
41.81471694499796
 20
6.880505408035416
 30
0.0
  0
VERTEX
  5
706
  8
A-FRAME
 10
41.7670819389195
 20
6.867148258696659
 30
0.0
  0
VERTEX
  5
707
  8
A-FRAME
 10
41.71878499715577
 20
6.853829247828509
 30
0.0
  0
VERTEX
  5
708
  8
A-FRAME
 10
41.66982802638736
 20
6.840548901242709
 30
0.0
  0
VERTEX
  5
709
  8
A-FRAME
 10
41.62021295935161
 20
6.827307743224601
 30
0.0
  0
VERTEX
  5
70A
  8
A-FRAME
 10
41.56994175476645
 20
6.814106296512433
 30
0.0
  0
VERTEX
  5
70B
  8
A-FRAME
 10
41.51901639725293
 20
6.800945082276716
 30
0.0
  0
VERTEX
  5
70C
  8
A-FRAME
 10
41.46743889725699
 20
6.787824620099652
 30
0.0
  0
VERTEX
  5
70D
  8
A-FRAME
 10
41.41521129097
 20
6.77474542795462
 30
0.0
  0
VERTEX
  5
70E
  8
A-FRAME
 10
41.36233564024844
 20
6.761708022185736
 30
0.0
  0
VERTEX
  5
70F
  8
A-FRAME
 10
41.30881403253245
 20
6.748712917487453
 30
0.0
  0
VERTEX
  5
710
  8
A-FRAME
 10
41.25464858076347
 20
6.73576062688425
 30
0.0
  0
VERTEX
  5
711
  8
A-FRAME
 10
41.19984142330077
 20
6.722851661710388
 30
0.0
  0
VERTEX
  5
712
  8
A-FRAME
 10
41.1443947238371
 20
6.709986531589706
 30
0.0
  0
VERTEX
  5
713
  8
A-FRAME
 10
41.08831067131322
 20
6.697165744415511
 30
0.0
  0
VERTEX
  5
714
  8
A-FRAME
 10
41.03159147983148
 20
6.684389806330531
 30
0.0
  0
VERTEX
  5
715
  8
A-FRAME
 10
40.97423938856844
 20
6.671659221706923
 30
0.0
  0
VERTEX
  5
716
  8
A-FRAME
 10
40.91625666168646
 20
6.658974493126371
 30
0.0
  0
VERTEX
  5
717
  8
A-FRAME
 10
40.85764558824432
 20
6.646336121360239
 30
0.0
  0
VERTEX
  5
718
  8
A-FRAME
 10
40.79840848210686
 20
6.633744605349804
 30
0.0
  0
VERTEX
  5
719
  8
A-FRAME
 10
40.73854768185356
 20
6.621200442186559
 30
0.0
  0
VERTEX
  5
71A
  8
A-FRAME
 10
40.67806555068635
 20
6.608704127092587
 30
0.0
  0
VERTEX
  5
71B
  8
A-FRAME
 10
40.61696447633619
 20
6.596256153401008
 30
0.0
  0
VERTEX
  5
71C
  8
A-FRAME
 10
40.55524687096887
 20
6.583857012536511
 30
0.0
  0
VERTEX
  5
71D
  8
A-FRAME
 10
40.49291517108977
 20
6.571507193995945
 30
0.0
  0
VERTEX
  5
71E
  8
A-FRAME
 10
40.4299718374477
 20
6.559207185329003
 30
0.0
  0
VERTEX
  5
71F
  8
A-FRAME
 10
40.36641935493767
 20
6.546957472118962
 30
0.0
  0
VERTEX
  5
720
  8
A-FRAME
 10
40.30226023250287
 20
6.53475853796353
 30
0.0
  0
VERTEX
  5
721
  8
A-FRAME
 10
40.23749700303562
 20
6.522610864455734
 30
0.0
  0
VERTEX
  5
722
  8
A-FRAME
 10
40.17213222327731
 20
6.510514931164927
 30
0.0
  0
VERTEX
  5
723
  8
A-FRAME
 10
40.10616847371751
 20
6.498471215617844
 30
0.0
  0
VERTEX
  5
724
  8
A-FRAME
 10
40.03960835849212
 20
6.486480193279752
 30
0.0
  0
VERTEX
  5
725
  8
A-FRAME
 10
39.97245450528052
 20
6.474542337535677
 30
0.0
  0
VERTEX
  5
726
  8
A-FRAME
 10
39.90470956520185
 20
6.46265811967173
 30
0.0
  0
VERTEX
  5
727
  8
A-FRAME
 10
39.83637621271034
 20
6.450828008856478
 30
0.0
  0
VERTEX
  5
728
  8
A-FRAME
 10
39.76745714548974
 20
6.439052472122443
 30
0.0
  0
VERTEX
  5
729
  8
A-FRAME
 10
39.69795508434682
 20
6.42733197434765
 30
0.0
  0
VERTEX
  5
72A
  8
A-FRAME
 10
39.62787277310395
 20
6.415666978237283
 30
0.0
  0
VERTEX
  5
72B
  8
A-FRAME
 10
39.55721297849077
 20
6.404057944305418
 30
0.0
  0
VERTEX
  5
72C
  8
A-FRAME
 10
39.48597849003499
 20
6.392505330856828
 30
0.0
  0
VERTEX
  5
72D
  8
A-FRAME
 10
39.41417211995223
 20
6.381009593968919
 30
0.0
  0
VERTEX
  5
72E
  8
A-FRAME
 10
39.34179670303504
 20
6.369571187473699
 30
0.0
  0
VERTEX
  5
72F
  8
A-FRAME
 10
39.26885509654096
 20
6.358190562939866
 30
0.0
  0
VERTEX
  5
730
  8
A-FRAME
 10
39.1953501800797
 20
6.346868169654995
 30
0.0
  0
VERTEX
  5
731
  8
A-FRAME
 10
39.12128485549951
 20
6.335604454607781
 30
0.0
  0
VERTEX
  5
732
  8
A-FRAME
 10
39.04666204677258
 20
6.324399862470411
 30
0.0
  0
VERTEX
  5
733
  8
A-FRAME
 10
38.97148469987963
 20
6.313254835580995
 30
0.0
  0
VERTEX
  5
734
  8
A-FRAME
 10
38.89575578269359
 20
6.302169813926113
 30
0.0
  0
VERTEX
  5
735
  8
A-FRAME
 10
38.81947828486244
 20
6.291145235123439
 30
0.0
  0
VERTEX
  5
736
  8
A-FRAME
 10
38.74265521769119
 20
6.28018153440447
 30
0.0
  0
VERTEX
  5
737
  8
A-FRAME
 10
38.66528961402298
 20
6.269279144597329
 30
0.0
  0
VERTEX
  5
738
  8
A-FRAME
 10
38.58738452811938
 20
6.258438496109704
 30
0.0
  0
VERTEX
  5
739
  8
A-FRAME
 10
38.50894303553979
 20
6.247660016911835
 30
0.0
  0
VERTEX
  5
73A
  8
A-FRAME
 10
38.42996823302001
 20
6.236944132519625
 30
0.0
  0
VERTEX
  5
73B
  8
A-FRAME
 10
38.35046323835003
 20
6.226291265977839
 30
0.0
  0
VERTEX
  5
73C
  8
A-FRAME
 10
38.2704311902509
 20
6.215701837843408
 30
0.0
  0
VERTEX
  5
73D
  8
A-FRAME
 10
38.18987524825084
 20
6.205176266168825
 30
0.0
  0
VERTEX
  5
73E
  8
A-FRAME
 10
38.10879859256052
 20
6.194714966485636
 30
0.0
  0
VERTEX
  5
73F
  8
A-FRAME
 10
38.02720442394746
 20
6.184318351788038
 30
0.0
  0
VERTEX
  5
740
  8
A-FRAME
 10
37.94509596360975
 20
6.173986832516579
 30
0.0
  0
VERTEX
  5
741
  8
A-FRAME
 10
37.86247645304878
 20
6.16372081654195
 30
0.0
  0
VERTEX
  5
742
  8
A-FRAME
 10
37.77934915394138
 20
6.153520709148882
 30
0.0
  0
VERTEX
  5
743
  8
A-FRAME
 10
37.69571734801099
 20
6.143386913020151
 30
0.0
  0
VERTEX
  5
744
  8
A-FRAME
 10
37.61158433689808
 20
6.133319828220676
 30
0.0
  0
VERTEX
  5
745
  8
A-FRAME
 10
37.5269534420299
 20
6.123319852181726
 30
0.0
  0
VERTEX
  5
746
  8
A-FRAME
 10
37.44182800448925
 20
6.113387379685234
 30
0.0
  0
VERTEX
  5
747
  8
A-FRAME
 10
37.35621138488266
 20
6.103522802848206
 30
0.0
  0
VERTEX
  5
748
  8
A-FRAME
 10
37.27010696320765
 20
6.093726511107244
 30
0.0
  0
VERTEX
  5
749
  8
A-FRAME
 10
37.18351813871937
 20
6.083998891203175
 30
0.0
  0
VERTEX
  5
74A
  8
A-FRAME
 10
37.09644832979635
 20
6.074340327165771
 30
0.0
  0
VERTEX
  5
74B
  8
A-FRAME
 10
37.00890097380555
 20
6.064751200298607
 30
0.0
  0
VERTEX
  5
74C
  8
A-FRAME
 10
36.92087952696667
 20
6.055231889163991
 30
0.0
  0
VERTEX
  5
74D
  8
A-FRAME
 10
36.83238746421574
 20
6.045782769568028
 30
0.0
  0
VERTEX
  5
74E
  8
A-FRAME
 10
36.74342827906786
 20
6.036404214545778
 30
0.0
  0
VERTEX
  5
74F
  8
A-FRAME
 10
36.65400548347934
 20
6.027096594346535
 30
0.0
  0
VERTEX
  5
750
  8
A-FRAME
 10
36.56412260770903
 20
6.017860276419208
 30
0.0
  0
VERTEX
  5
751
  8
A-FRAME
 10
36.47378320017897
 20
6.008695625397813
 30
0.0
  0
VERTEX
  5
752
  8
A-FRAME
 10
36.38299082733427
 20
5.999603003087083
 30
0.0
  0
VERTEX
  5
753
  8
A-FRAME
 10
36.29174907350236
 20
5.990582768448174
 30
0.0
  0
VERTEX
  5
754
  8
A-FRAME
 10
36.20006154075143
 20
5.981635277584505
 30
0.0
  0
VERTEX
  5
755
  8
A-FRAME
 10
36.10793184874831
 20
5.972760883727695
 30
0.0
  0
VERTEX
  5
756
  8
A-FRAME
 10
36.01536363461547
 20
5.96395993722362
 30
0.0
  0
VERTEX
  5
757
  8
A-FRAME
 10
35.9223605527875
 20
5.955232785518575
 30
0.0
  0
VERTEX
  5
758
  8
A-FRAME
 10
35.82892627486684
 20
5.946579773145569
 30
0.0
  0
VERTEX
  5
759
  8
A-FRAME
 10
35.73506448947877
 20
5.938001241710714
 30
0.0
  0
VERTEX
  5
75A
  8
A-FRAME
 10
35.64077890212589
 20
5.92949752987974
 30
0.0
  0
VERTEX
  5
75B
  8
A-FRAME
 10
35.54607323504173
 20
5.921068973364632
 30
0.0
  0
VERTEX
  5
75C
  8
A-FRAME
 10
35.45095122704387
 20
5.912715904910364
 30
0.0
  0
VERTEX
  5
75D
  8
A-FRAME
 10
35.3554166333863
 20
5.904438654281783
 30
0.0
  0
VERTEX
  5
75E
  8
A-FRAME
 10
35.2594732256112
 20
5.896237548250568
 30
0.0
  0
VERTEX
  5
75F
  8
A-FRAME
 10
35.16312479140004
 20
5.888112910582342
 30
0.0
  0
VERTEX
  5
760
  8
A-FRAME
 10
35.06637513442401
 20
5.880065062023888
 30
0.0
  0
VERTEX
  5
761
  8
A-FRAME
 10
34.96922807419393
 20
5.872094320290488
 30
0.0
  0
VERTEX
  5
762
  8
A-FRAME
 10
34.87168744590937
 20
5.864201000053377
 30
0.0
  0
VERTEX
  5
763
  8
A-FRAME
 10
34.77375710030732
 20
5.856385412927322
 30
0.0
  0
VERTEX
  5
764
  8
A-FRAME
 10
34.67544090351015
 20
5.848647867458322
 30
0.0
  0
VERTEX
  5
765
  8
A-FRAME
 10
34.57674273687298
 20
5.840988669111422
 30
0.0
  0
VERTEX
  5
766
  8
A-FRAME
 10
34.47766649683039
 20
5.833408120258657
 30
0.0
  0
VERTEX
  5
767
  8
A-FRAME
 10
34.37821609474273
 20
5.825906520167118
 30
0.0
  0
VERTEX
  5
768
  8
A-FRAME
 10
34.27839545674158
 20
5.818484164987131
 30
0.0
  0
VERTEX
  5
769
  8
A-FRAME
 10
34.1782085235748
 20
5.811141347740572
 30
0.0
  0
VERTEX
  5
76A
  8
A-FRAME
 10
34.07765925045096
 20
5.803878358309287
 30
0.0
  0
VERTEX
  5
76B
  8
A-FRAME
 10
33.9767516068832
 20
5.796695483423665
 30
0.0
  0
VERTEX
  5
76C
  8
A-FRAME
 10
33.87548957653251
 20
5.789593006651312
 30
0.0
  0
VERTEX
  5
76D
  8
A-FRAME
 10
33.77387715705046
 20
5.782571208385844
 30
0.0
  0
VERTEX
  5
76E
  8
A-FRAME
 10
33.67191835992137
 20
5.775630365835834
 30
0.0
  0
VERTEX
  5
76F
  8
A-FRAME
 10
33.56961721030399
 20
5.768770753013863
 30
0.0
  0
VERTEX
  5
770
  8
A-FRAME
 10
33.46697774687252
 20
5.761992640725701
 30
0.0
  0
VERTEX
  5
771
  8
A-FRAME
 10
33.36400402165724
 20
5.75529629655961
 30
0.0
  0
VERTEX
  5
772
  8
A-FRAME
 10
33.26070009988451
 20
5.748681984875796
 30
0.0
  0
VERTEX
  5
773
  8
A-FRAME
 10
33.15707005981625
 20
5.742149966795957
 30
0.0
  0
VERTEX
  5
774
  8
A-FRAME
 10
33.05311799258904
 20
5.735700500192985
 30
0.0
  0
VERTEX
  5
775
  8
A-FRAME
 10
32.94884800205245
 20
5.729333839680773
 30
0.0
  0
VERTEX
  5
776
  8
A-FRAME
 10
32.84426420460721
 20
5.723050236604182
 30
0.0
  0
VERTEX
  5
777
  8
A-FRAME
 10
32.73937072904253
 20
5.7168499390291
 30
0.0
  0
VERTEX
  5
778
  8
A-FRAME
 10
32.63417171637326
 20
5.710733191732658
 30
0.0
  0
VERTEX
  5
779
  8
A-FRAME
 10
32.52867131967626
 20
5.704700236193565
 30
0.0
  0
VERTEX
  5
77A
  8
A-FRAME
 10
32.42287370392656
 20
5.698751310582578
 30
0.0
  0
VERTEX
  5
77B
  8
A-FRAME
 10
32.31678304583286
 20
5.692886649753092
 30
0.0
  0
VERTEX
  5
77C
  8
A-FRAME
 10
32.2104035336727
 20
5.687106485231876
 30
0.0
  0
VERTEX
  5
77D
  8
A-FRAME
 10
32.10373936712707
 20
5.681411045209927
 30
0.0
  0
VERTEX
  5
77E
  8
A-FRAME
 10
31.99679475711462
 20
5.675800554533465
 30
0.0
  0
VERTEX
  5
77F
  8
A-FRAME
 10
31.88957392562543
 20
5.670275234695056
 30
0.0
  0
VERTEX
  5
780
  8
A-FRAME
 10
31.78208110555436
 20
5.664835303824866
 30
0.0
  0
VERTEX
  5
781
  8
A-FRAME
 10
31.67432054053386
 20
5.659480976682051
 30
0.0
  0
VERTEX
  5
782
  8
A-FRAME
 10
31.56629648476653
 20
5.654212464646278
 30
0.0
  0
VERTEX
  5
783
  8
A-FRAME
 10
31.45801320285715
 20
5.649029975709382
 30
0.0
  0
VERTEX
  5
784
  8
A-FRAME
 10
31.34947496964423
 20
5.643933714467151
 30
0.0
  0
VERTEX
  5
785
  8
A-FRAME
 10
31.24068607003141
 20
5.638923882111254
 30
0.0
  0
VERTEX
  5
786
  8
A-FRAME
 10
31.13165079881815
 20
5.634000676421294
 30
0.0
  0
VERTEX
  5
787
  8
A-FRAME
 10
31.02237346053028
 20
5.629164291757004
 30
0.0
  0
VERTEX
  5
788
  8
A-FRAME
 10
30.91285836924998
 20
5.624414919050563
 30
0.0
  0
VERTEX
  5
789
  8
A-FRAME
 10
30.80310984844554
 20
5.619752745799079
 30
0.0
  0
VERTEX
  5
78A
  8
A-FRAME
 10
30.69313223080066
 20
5.615177956057167
 30
0.0
  0
VERTEX
  5
78B
  8
A-FRAME
 10
30.58292985804334
 20
5.610690730429694
 30
0.0
  0
VERTEX
  5
78C
  8
A-FRAME
 10
30.47250708077458
 20
5.606291246064641
 30
0.0
  0
VERTEX
  5
78D
  8
A-FRAME
 10
30.36186825829656
 20
5.601979676646122
 30
0.0
  0
VERTEX
  5
78E
  8
A-FRAME
 10
30.25101775844053
 20
5.597756192387511
 30
0.0
  0
VERTEX
  5
78F
  8
A-FRAME
 10
30.13995995739443
 20
5.593620960024738
 30
0.0
  0
VERTEX
  5
790
  8
A-FRAME
 10
30.02869923953008
 20
5.589574142809695
 30
0.0
  0
VERTEX
  5
791
  8
A-FRAME
 10
29.91723999723011
 20
5.585615900503795
 30
0.0
  0
VERTEX
  5
792
  8
A-FRAME
 10
29.80558663071456
 20
5.581746389371668
 30
0.0
  0
VERTEX
  5
793
  8
A-FRAME
 10
29.69374354786716
 20
5.577965762174987
 30
0.0
  0
VERTEX
  5
794
  8
A-FRAME
 10
29.58171516406131
 20
5.574274168166442
 30
0.0
  0
VERTEX
  5
795
  8
A-FRAME
 10
29.46950590198578
 20
5.570671753083843
 30
0.0
  0
VERTEX
  5
796
  8
A-FRAME
 10
29.35712019147011
 20
5.567158659144367
 30
0.0
  0
VERTEX
  5
797
  8
A-FRAME
 10
29.24456246930971
 20
5.56373502503895
 30
0.0
  0
VERTEX
  5
798
  8
A-FRAME
 10
29.13183717909072
 20
5.560400985926803
 30
0.0
  0
VERTEX
  5
799
  8
A-FRAME
 10
29.01894877101459
 20
5.557156673430079
 30
0.0
  0
VERTEX
  5
79A
  8
A-FRAME
 10
28.90590170172236
 20
5.554002215628685
 30
0.0
  0
VERTEX
  5
79B
  8
A-FRAME
 10
28.79270043411878
 20
5.550937737055211
 30
0.0
  0
VERTEX
  5
79C
  8
A-FRAME
 10
28.67934943719604
 20
5.547963358690025
 30
0.0
  0
VERTEX
  5
79D
  8
A-FRAME
 10
28.56585318585743
 20
5.54507919795649
 30
0.0
  0
VERTEX
  5
79E
  8
A-FRAME
 10
28.4522161607406
 20
5.542285368716335
 30
0.0
  0
VERTEX
  5
79F
  8
A-FRAME
 10
28.33844284804073
 20
5.539581981265151
 30
0.0
  0
VERTEX
  5
7A0
  8
A-FRAME
 10
28.2245377393334
 20
5.536969142328052
 30
0.0
  0
VERTEX
  5
7A1
  8
A-FRAME
 10
28.11050533139726
 20
5.53444695505544
 30
0.0
  0
VERTEX
  5
7A2
  8
A-FRAME
 10
27.99635012603652
 20
5.532015519018955
 30
0.0
  0
VERTEX
  5
7A3
  8
A-FRAME
 10
27.88207662990322
 20
5.529674930207522
 30
0.0
  0
VERTEX
  5
7A4
  8
A-FRAME
 10
27.76768935431932
 20
5.527425281023584
 30
0.0
  0
VERTEX
  5
7A5
  8
A-FRAME
 10
27.65319281509861
 20
5.525266660279437
 30
0.0
  0
VERTEX
  5
7A6
  8
A-FRAME
 10
27.5385915323684
 20
5.523199153193733
 30
0.0
  0
VERTEX
  5
7A7
  8
A-FRAME
 10
27.42389003039109
 20
5.521222841388111
 30
0.0
  0
VERTEX
  5
7A8
  8
A-FRAME
 10
27.30909283738561
 20
5.519337802883978
 30
0.0
  0
VERTEX
  5
7A9
  8
A-FRAME
 10
27.19420448534855
 20
5.517544112099424
 30
0.0
  0
VERTEX
  5
7AA
  8
A-FRAME
 10
27.07922950987533
 20
5.515841839846292
 30
0.0
  0
VERTEX
  5
7AB
  8
A-FRAME
 10
26.96417244998111
 20
5.514231053327375
 30
0.0
  0
VERTEX
  5
7AC
  8
A-FRAME
 10
26.84903784792163
 20
5.512711816133766
 30
0.0
  0
VERTEX
  5
7AD
  8
A-FRAME
 10
26.73383024901381
 20
5.511284188242351
 30
0.0
  0
VERTEX
  5
7AE
  8
A-FRAME
 10
26.6185542014564
 20
5.509948226013432
 30
0.0
  0
VERTEX
  5
7AF
  8
A-FRAME
 10
26.50321425615037
 20
5.508703982188509
 30
0.0
  0
VERTEX
  5
7B0
  8
A-FRAME
 10
26.38781496651927
 20
5.507551505888202
 30
0.0
  0
VERTEX
  5
7B1
  8
A-FRAME
 10
26.27236088832947
 20
5.506490842610299
 30
0.0
  0
VERTEX
  5
7B2
  8
A-FRAME
 10
26.15685657951025
 20
5.505522034227969
 30
0.0
  0
VERTEX
  5
7B3
  8
A-FRAME
 10
26.04130659997399
 20
5.50464511898811
 30
0.0
  0
VERTEX
  5
7B4
  8
A-FRAME
 10
25.92571551143601
 20
5.503860131509835
 30
0.0
  0
VERTEX
  5
7B5
  8
A-FRAME
 10
25.81008787723456
 20
5.503167102783102
 30
0.0
  0
VERTEX
  5
7B6
  8
A-FRAME
 10
25.69442826215066
 20
5.502566060167505
 30
0.0
  0
VERTEX
  5
7B7
  8
A-FRAME
 10
25.57874123222787
 20
5.502057027391171
 30
0.0
  0
VERTEX
  5
7B8
  8
A-FRAME
 10
25.46303135459203
 20
5.501640024549845
 30
0.0
  0
VERTEX
  5
7B9
  8
A-FRAME
 10
25.347303197271
 20
5.501315068106084
 30
0.0
  0
VERTEX
  5
7BA
  8
A-FRAME
 10
25.23156132901428
 20
5.501082170888612
 30
0.0
  0
VERTEX
  5
7BB
  8
A-FRAME
 10
25.11581031911261
 20
5.500941342091815
 30
0.0
  0
VERTEX
  5
7BC
  8
A-FRAME
 10
25.0000547372177
 20
5.500892587275368
 30
0.0
  0
VERTEX
  5
7BD
  8
A-FRAME
 10
24.8842991531617
 20
5.500935908364031
 30
0.0
  0
VERTEX
  5
7BE
  8
A-FRAME
 10
24.76854813677687
 20
5.501071303647564
 30
0.0
  0
VERTEX
  5
7BF
  8
A-FRAME
 10
24.65280625771513
 20
5.501298767780789
 30
0.0
  0
VERTEX
  5
7C0
  8
A-FRAME
 10
24.5370780852677
 20
5.50161829178381
 30
0.0
  0
VERTEX
  5
7C1
  8
A-FRAME
 10
24.42136818818467
 20
5.502029863042372
 30
0.0
  0
VERTEX
  5
7C2
  8
A-FRAME
 10
24.30568113449462
 20
5.502533465308343
 30
0.0
  0
VERTEX
  5
7C3
  8
A-FRAME
 10
24.19002149132437
 20
5.503129078700368
 30
0.0
  0
VERTEX
  5
7C4
  8
A-FRAME
 10
24.07439382471859
 20
5.50381667970465
 30
0.0
  0
VERTEX
  5
7C5
  8
A-FRAME
 10
23.95880269945956
 20
5.50459624117588
 30
0.0
  0
VERTEX
  5
7C6
  8
A-FRAME
 10
23.84325267888698
 20
5.505467732338305
 30
0.0
  0
VERTEX
  5
7C7
  8
A-FRAME
 10
23.72774832471782
 20
5.506431118786946
 30
0.0
  0
VERTEX
  5
7C8
  8
A-FRAME
 10
23.6122941968662
 20
5.507486362488956
 30
0.0
  0
VERTEX
  5
7C9
  8
A-FRAME
 10
23.49689485326341
 20
5.508633421785122
 30
0.0
  0
VERTEX
  5
7CA
  8
A-FRAME
 10
23.38155484967792
 20
5.509872251391503
 30
0.0
  0
VERTEX
  5
7CB
  8
A-FRAME
 10
23.26627873953559
 20
5.511202802401231
 30
0.0
  0
VERTEX
  5
7CC
  8
A-FRAME
 10
23.15107107373987
 20
5.512625022286429
 30
0.0
  0
VERTEX
  5
7CD
  8
A-FRAME
 10
23.03593640049213
 20
5.514138854900292
 30
0.0
  0
VERTEX
  5
7CE
  8
A-FRAME
 10
22.92087926511213
 20
5.515744240479298
 30
0.0
  0
VERTEX
  5
7CF
  8
A-FRAME
 10
22.80590420985856
 20
5.517441115645576
 30
0.0
  0
VERTEX
  5
7D0
  8
A-FRAME
 10
22.69101577374974
 20
5.5192294134094
 30
0.0
  0
VERTEX
  5
7D1
  8
A-FRAME
 10
22.5762184923844
 20
5.521109063171837
 30
0.0
  0
VERTEX
  5
7D2
  8
A-FRAME
 10
22.46151689776266
 20
5.523079990727528
 30
0.0
  0
VERTEX
  5
7D3
  8
A-FRAME
 10
22.34691551810705
 20
5.525142118267633
 30
0.0
  0
VERTEX
  5
7D4
  8
A-FRAME
 10
22.23241887768383
 20
5.527295364382883
 30
0.0
  0
VERTEX
  5
7D5
  8
A-FRAME
 10
22.1180314966243
 20
5.529539644066814
 30
0.0
  0
VERTEX
  5
7D6
  8
A-FRAME
 10
22.00375789074642
 20
5.531874868719102
 30
0.0
  0
VERTEX
  5
7D7
  8
A-FRAME
 10
21.88960257137646
 20
5.534300946149081
 30
0.0
  0
VERTEX
  5
7D8
  8
A-FRAME
 10
21.77557004517098
 20
5.536817780579362
 30
0.0
  0
VERTEX
  5
7D9
  8
A-FRAME
 10
21.66166481393886
 20
5.539425272649638
 30
0.0
  0
VERTEX
  5
7DA
  8
A-FRAME
 10
21.54789137446358
 20
5.542123319420579
 30
0.0
  0
VERTEX
  5
7DB
  8
A-FRAME
 10
21.43425421832573
 20
5.544911814377928
 30
0.0
  0
VERTEX
  5
7DC
  8
A-FRAME
 10
21.32075783172564
 20
5.54779064743667
 30
0.0
  0
VERTEX
  5
7DD
  8
A-FRAME
 10
21.20740669530634
 20
5.550759704945408
 30
0.0
  0
VERTEX
  5
7DE
  8
A-FRAME
 10
21.0942052839766
 20
5.553818869690838
 30
0.0
  0
VERTEX
  5
7DF
  8
A-FRAME
 10
20.98115806673429
 20
5.556968020902373
 30
0.0
  0
VERTEX
  5
7E0
  8
A-FRAME
 10
20.86826950648999
 20
5.560207034256912
 30
0.0
  0
VERTEX
  5
7E1
  8
A-FRAME
 10
20.75554405989078
 20
5.563535781883758
 30
0.0
  0
VERTEX
  5
7E2
  8
A-FRAME
 10
20.64298617714425
 20
5.566954132369652
 30
0.0
  0
VERTEX
  5
7E3
  8
A-FRAME
 10
20.5306003018429
 20
5.570461950763971
 30
0.0
  0
VERTEX
  5
7E4
  8
A-FRAME
 10
20.41839087078863
 20
5.574059098584051
 30
0.0
  0
VERTEX
  5
7E5
  8
A-FRAME
 10
20.30636231381766
 20
5.577745433820654
 30
0.0
  0
VERTEX
  5
7E6
  8
A-FRAME
 10
20.19451905362558
 20
5.581520810943578
 30
0.0
  0
VERTEX
  5
7E7
  8
A-FRAME
 10
20.08286550559282
 20
5.585385080907399
 30
0.0
  0
VERTEX
  5
7E8
  8
A-FRAME
 10
19.97140607761027
 20
5.589338091157355
 30
0.0
  0
VERTEX
  5
7E9
  8
A-FRAME
 10
19.86014516990527
 20
5.593379685635371
 30
0.0
  0
VERTEX
  5
7EA
  8
A-FRAME
 10
19.74908717486798
 20
5.597509704786216
 30
0.0
  0
VERTEX
  5
7EB
  8
A-FRAME
 10
19.63823647687787
 20
5.601727985563807
 30
0.0
  0
VERTEX
  5
7EC
  8
A-FRAME
 10
19.52759745213068
 20
5.60603436143764
 30
0.0
  0
VERTEX
  5
7ED
  8
A-FRAME
 10
19.41717446846569
 20
5.61042866239937
 30
0.0
  0
VERTEX
  5
7EE
  8
A-FRAME
 10
19.30697188519319
 20
5.614910714969522
 30
0.0
  0
VERTEX
  5
7EF
  8
A-FRAME
 10
19.19699405292248
 20
5.619480342204328
 30
0.0
  0
VERTEX
  5
7F0
  8
A-FRAME
 10
19.08724531339008
 20
5.624137363702737
 30
0.0
  0
VERTEX
  5
7F1
  8
A-FRAME
 10
18.97772999928829
 20
5.628881595613509
 30
0.0
  0
VERTEX
  5
7F2
  8
A-FRAME
 10
18.86845243409419
 20
5.633712850642496
 30
0.0
  0
VERTEX
  5
7F3
  8
A-FRAME
 10
18.75941693189895
 20
5.638630938060018
 30
0.0
  0
VERTEX
  5
7F4
  8
A-FRAME
 10
18.6506277972375
 20
5.643635663708405
 30
0.0
  0
VERTEX
  5
7F5
  8
A-FRAME
 10
18.5420893249186
 20
5.648726830009661
 30
0.0
  0
VERTEX
  5
7F6
  8
A-FRAME
 10
18.43380579985527
 20
5.653904235973256
 30
0.0
  0
VERTEX
  5
7F7
  8
A-FRAME
 10
18.3257814968957
 20
5.659167677204065
 30
0.0
  0
VERTEX
  5
7F8
  8
A-FRAME
 10
18.21802068065438
 20
5.664516945910448
 30
0.0
  0
VERTEX
  5
7F9
  8
A-FRAME
 10
18.11052760534381
 20
5.669951830912428
 30
0.0
  0
VERTEX
  5
7FA
  8
A-FRAME
 10
18.00330651460658
 20
5.675472117650056
 30
0.0
  0
VERTEX
  5
7FB
  8
A-FRAME
 10
17.89636164134773
 20
5.681077588191863
 30
0.0
  0
VERTEX
  5
7FC
  8
A-FRAME
 10
17.78969720756776
 20
5.686768021243468
 30
0.0
  0
VERTEX
  5
7FD
  8
A-FRAME
 10
17.68331742419586
 20
5.69254319215632
 30
0.0
  0
VERTEX
  5
7FE
  8
A-FRAME
 10
17.57722649092373
 20
5.698402872936558
 30
0.0
  0
VERTEX
  5
7FF
  8
A-FRAME
 10
17.47142859603975
 20
5.704346832254021
 30
0.0
  0
VERTEX
  5
800
  8
A-FRAME
 10
17.36592791626368
 20
5.71037483545137
 30
0.0
  0
VERTEX
  5
801
  8
A-FRAME
 10
17.26072861658169
 20
5.716486644553362
 30
0.0
  0
VERTEX
  5
802
  8
A-FRAME
 10
17.15583485008202
 20
5.722682018276238
 30
0.0
  0
VERTEX
  5
803
  8
A-FRAME
 10
17.05125075779094
 20
5.728960712037253
 30
0.0
  0
VERTEX
  5
804
  8
A-FRAME
 10
16.94698046850936
 20
5.735322477964324
 30
0.0
  0
VERTEX
  5
805
  8
A-FRAME
 10
16.84302809864974
 20
5.741767064905833
 30
0.0
  0
VERTEX
  5
806
  8
A-FRAME
 10
16.73939775207367
 20
5.748294218440513
 30
0.0
  0
VERTEX
  5
807
  8
A-FRAME
 10
16.63609351992977
 20
5.754903680887528
 30
0.0
  0
VERTEX
  5
808
  8
A-FRAME
 10
16.53311948049225
 20
5.76159519131661
 30
0.0
  0
VERTEX
  5
809
  8
A-FRAME
 10
16.43047969899986
 20
5.768368485558391
 30
0.0
  0
VERTEX
  5
80A
  8
A-FRAME
 10
16.32817822749544
 20
5.775223296214806
 30
0.0
  0
VERTEX
  5
80B
  8
A-FRAME
 10
16.2262191046659
 20
5.782159352669673
 30
0.0
  0
VERTEX
  5
80C
  8
A-FRAME
 10
16.12460635568284
 20
5.789176381099358
 30
0.0
  0
VERTEX
  5
80D
  8
A-FRAME
 10
16.02334399204359
 20
5.796274104483594
 30
0.0
  0
VERTEX
  5
80E
  8
A-FRAME
 10
15.92243601141289
 20
5.803452242616412
 30
0.0
  0
VERTEX
  5
80F
  8
A-FRAME
 10
15.82188639746502
 20
5.810710512117211
 30
0.0
  0
VERTEX
  5
810
  8
A-FRAME
 10
15.72169911972659
 20
5.818048626441943
 30
0.0
  0
VERTEX
  5
811
  8
A-FRAME
 10
15.62187813341974
 20
5.825466295894415
 30
0.0
  0
VERTEX
  5
812
  8
A-FRAME
 10
15.52242737930613
 20
5.832963227637741
 30
0.0
  0
VERTEX
  5
813
  8
A-FRAME
 10
15.42335078353123
 20
5.840539125705888
 30
0.0
  0
VERTEX
  5
814
  8
A-FRAME
 10
15.32465225746938
 20
5.848193691015377
 30
0.0
  0
VERTEX
  5
815
  8
A-FRAME
 10
15.22633569756941
 20
5.855926621377073
 30
0.0
  0
VERTEX
  5
816
  8
A-FRAME
 10
15.12840498520075
 20
5.86373761150813
 30
0.0
  0
VERTEX
  5
817
  8
A-FRAME
 10
15.03086398650025
 20
5.871626353044029
 30
0.0
  0
VERTEX
  5
818
  8
A-FRAME
 10
14.9337165522195
 20
5.879592534550762
 30
0.0
  0
VERTEX
  5
819
  8
A-FRAME
 10
14.83696651757288
 20
5.887635841537126
 30
0.0
  0
VERTEX
  5
81A
  8
A-FRAME
 10
14.7406177020861
 20
5.895755956467131
 30
0.0
  0
VERTEX
  5
81B
  8
A-FRAME
 10
14.6446739094454
 20
5.903952558772543
 30
0.0
  0
VERTEX
  5
81C
  8
A-FRAME
 10
14.54913892734746
 20
5.912225324865542
 30
0.0
  0
VERTEX
  5
81D
  8
A-FRAME
 10
14.45401652734977
 20
5.92057392815148
 30
0.0
  0
VERTEX
  5
81E
  8
A-FRAME
 10
14.3593104647218
 20
5.928998039041803
 30
0.0
  0
VERTEX
  5
81F
  8
A-FRAME
 10
14.26502447829675
 20
5.937497324967033
 30
0.0
  0
VERTEX
  5
820
  8
A-FRAME
 10
14.17116229032392
 20
5.946071450389915
 30
0.0
  0
VERTEX
  5
821
  8
A-FRAME
 10
14.07772760632178
 20
5.95472007681866
 30
0.0
  0
VERTEX
  5
822
  8
A-FRAME
 10
13.98472411493167
 20
5.963442862820303
 30
0.0
  0
VERTEX
  5
823
  8
A-FRAME
 10
13.89215548777217
 20
5.972239464034191
 30
0.0
  0
VERTEX
  5
824
  8
A-FRAME
 10
13.80002537929418
 20
5.981109533185569
 30
0.0
  0
VERTEX
  5
825
  8
A-FRAME
 10
13.70833742663663
 20
5.990052720099293
 30
0.0
  0
VERTEX
  5
826
  8
A-FRAME
 10
13.6170952494829
 20
5.999068671713662
 30
0.0
  0
VERTEX
  5
827
  8
A-FRAME
 10
13.52630244991792
 20
6.00815703209434
 30
0.0
  0
VERTEX
  5
828
  8
A-FRAME
 10
13.43596261228594
 20
6.017317442448421
 30
0.0
  0
VERTEX
  5
829
  8
A-FRAME
 10
13.34607930304907
 20
6.026549541138589
 30
0.0
  0
VERTEX
  5
82A
  8
A-FRAME
 10
13.25665607064646
 20
6.035852963697399
 30
0.0
  0
VERTEX
  5
82B
  8
A-FRAME
 10
13.16769644535419
 20
6.045227342841656
 30
0.0
  0
VERTEX
  5
82C
  8
A-FRAME
 10
13.07920393914596
 20
6.054672308486925
 30
0.0
  0
VERTEX
  5
82D
  8
A-FRAME
 10
12.9911820455544
 20
6.06418748776213
 30
0.0
  0
VERTEX
  5
82E
  8
A-FRAME
 10
12.90363423953312
 20
6.073772505024291
 30
0.0
  0
VERTEX
  5
82F
  8
A-FRAME
 10
12.81656397731962
 20
6.083426981873332
 30
0.0
  0
VERTEX
  5
830
  8
A-FRAME
 10
12.72997469629876
 20
6.093150537167046
 30
0.0
  0
VERTEX
  5
831
  8
A-FRAME
 10
12.64386981486708
 20
6.102942787036115
 30
0.0
  0
VERTEX
  5
832
  8
A-FRAME
 10
12.55825273229788
 20
6.112803344899284
 30
0.0
  0
VERTEX
  5
833
  8
A-FRAME
 10
12.47312682860697
 20
6.122731821478608
 30
0.0
  0
VERTEX
  5
834
  8
A-FRAME
 10
12.38849546441927
 20
6.132727824814834
 30
0.0
  0
VERTEX
  5
835
  8
A-FRAME
 10
12.30436198083611
 20
6.142790960282868
 30
0.0
  0
VERTEX
  5
836
  8
A-FRAME
 10
12.2207296993034
 20
6.15292083060735
 30
0.0
  0
VERTEX
  5
837
  8
A-FRAME
 10
12.13760192148038
 20
6.163117035878347
 30
0.0
  0
VERTEX
  5
838
  8
A-FRAME
 10
12.0549819291094
 20
6.173379173567131
 30
0.0
  0
VERTEX
  5
839
  8
A-FRAME
 10
11.97287298388629
 20
6.183706838542081
 30
0.0
  0
VERTEX
  5
83A
  8
A-FRAME
 10
11.89127832733159
 20
6.194099623084666
 30
0.0
  0
VERTEX
  5
83B
  8
A-FRAME
 10
11.81020118066266
 20
6.204557116905546
 30
0.0
  0
VERTEX
  5
83C
  8
A-FRAME
 10
11.7296447446664
 20
6.215078907160773
 30
0.0
  0
VERTEX
  5
83D
  8
A-FRAME
 10
11.64961219957299
 20
6.225664578468084
 30
0.0
  0
VERTEX
  5
83E
  8
A-FRAME
 10
11.57010670493026
 20
6.236313712923298
 30
0.0
  0
VERTEX
  5
83F
  8
A-FRAME
 10
11.491131399479
 20
6.247025890116825
 30
0.0
  0
VERTEX
  5
840
  8
A-FRAME
 10
11.41268940102906
 20
6.257800687150251
 30
0.0
  0
VERTEX
  5
841
  8
A-FRAME
 10
11.33478380633619
 20
6.268637678653036
 30
0.0
  0
VERTEX
  5
842
  8
A-FRAME
 10
11.25741769097991
 20
6.279536436799313
 30
0.0
  0
VERTEX
  5
843
  8
A-FRAME
 10
11.18059410924196
 20
6.290496531324775
 30
0.0
  0
VERTEX
  5
844
  8
A-FRAME
 10
11.10431609398581
 20
6.301517529543652
 30
0.0
  0
VERTEX
  5
845
  8
A-FRAME
 10
11.0285866565369
 20
6.312598996365807
 30
0.0
  0
VERTEX
  5
846
  8
A-FRAME
 10
10.95340878656374
 20
6.323740494313906
 30
0.0
  0
VERTEX
  5
847
  8
A-FRAME
 10
10.87878545195992
 20
6.334941583540685
 30
0.0
  0
VERTEX
  5
848
  8
A-FRAME
 10
10.8047195987269
 20
6.34620182184632
 30
0.0
  0
VERTEX
  5
849
  8
A-FRAME
 10
10.73121415085776
 20
6.357520764695888
 30
0.0
  0
VERTEX
  5
84A
  8
A-FRAME
 10
10.65827201022172
 20
6.368897965236901
 30
0.0
  0
VERTEX
  5
84B
  8
A-FRAME
 10
10.58589605644959
 20
6.380332974316966
 30
0.0
  0
VERTEX
  5
84C
  8
A-FRAME
 10
10.5140891468201
 20
6.391825340501502
 30
0.0
  0
VERTEX
  5
84D
  8
A-FRAME
 10
10.44285411614708
 20
6.403374610091571
 30
0.0
  0
VERTEX
  5
84E
  8
A-FRAME
 10
10.37219377666758
 20
6.414980327141787
 30
0.0
  0
VERTEX
  5
84F
  8
A-FRAME
 10
10.30211091793081
 20
6.426642033478311
 30
0.0
  0
VERTEX
  5
850
  8
A-FRAME
 10
10.23260830668802
 20
6.438359268716946
 30
0.0
  0
VERTEX
  5
851
  8
A-FRAME
 10
10.16368868678331
 20
6.450131570281307
 30
0.0
  0
VERTEX
  5
852
  8
A-FRAME
 10
10.09535477904526
 20
6.461958473421085
 30
0.0
  0
VERTEX
  5
853
  8
A-FRAME
 10
10.02760928117953
 20
6.473839511230395
 30
0.0
  0
VERTEX
  5
854
  8
A-FRAME
 10
9.960454867662394
 20
6.485774214666209
 30
0.0
  0
VERTEX
  5
855
  8
A-FRAME
 10
9.8938941896351
 20
6.497762112566871
 30
0.0
  0
VERTEX
  5
856
  8
A-FRAME
 10
9.827929874799255
 20
6.5098027316707
 30
0.0
  0
VERTEX
  5
857
  8
A-FRAME
 10
9.762564527313048
 20
6.521895596634668
 30
0.0
  0
VERTEX
  5
858
  8
A-FRAME
 10
9.697800727688483
 20
6.534040230053172
 30
0.0
  0
VERTEX
  5
859
  8
A-FRAME
 10
9.633641032689477
 20
6.546236152476881
 30
0.0
  0
VERTEX
  5
85A
  8
A-FRAME
 10
9.570087975230921
 20
6.55848288243166
 30
0.0
  0
VERTEX
  5
85B
  8
A-FRAME
 10
9.5071440642787
 20
6.57077993643758
 30
0.0
  0
VERTEX
  5
85C
  8
A-FRAME
 10
9.444811784750664
 20
6.583126829028005
 30
0.0
  0
VERTEX
  5
85D
  8
A-FRAME
 10
9.383093597418453
 20
6.595523072768758
 30
0.0
  0
VERTEX
  5
85E
  8
A-FRAME
 10
9.321991938810443
 20
6.60796817827736
 30
0.0
  0
VERTEX
  5
85F
  8
A-FRAME
 10
9.261509221115483
 20
6.620461654242357
 30
0.0
  0
VERTEX
  5
860
  8
A-FRAME
 10
9.201647832087703
 20
6.633003007442708
 30
0.0
  0
VERTEX
  5
861
  8
A-FRAME
 10
9.142410134952245
 20
6.645591742767264
 30
0.0
  0
VERTEX
  5
862
  8
A-FRAME
 10
9.08379846831197
 20
6.65822736323431
 30
0.0
  0
VERTEX
  5
863
  8
A-FRAME
 10
9.025815146055104
 20
6.670909370011184
 30
0.0
  0
VERTEX
  5
864
  8
A-FRAME
 10
8.968462457263934
 20
6.683637262433976
 30
0.0
  0
VERTEX
  5
865
  8
A-FRAME
 10
8.911742666124413
 20
6.696410538027285
 30
0.0
  0
VERTEX
  5
866
  8
A-FRAME
 10
8.855658011836761
 20
6.709228692524061
 30
0.0
  0
VERTEX
  5
867
  8
A-FRAME
 10
8.800210708527112
 20
6.722091219885517
 30
0.0
  0
VERTEX
  5
868
  8
A-FRAME
 10
8.74540294516006
 20
6.734997612321092
 30
0.0
  0
VERTEX
  5
869
  8
A-FRAME
 10
8.691236885452243
 20
6.747947360308514
 30
0.0
  0
VERTEX
  5
86A
  8
A-FRAME
 10
8.637714667786968
 20
6.760939952613905
 30
0.0
  0
VERTEX
  5
86B
  8
A-FRAME
 10
8.584838405129732
 20
6.77397487631197
 30
0.0
  0
VERTEX
  5
86C
  8
A-FRAME
 10
8.532610184944838
 20
6.78705161680624
 30
0.0
  0
VERTEX
  5
86D
  8
A-FRAME
 10
8.481032069113015
 20
6.80016965784939
 30
0.0
  0
VERTEX
  5
86E
  8
A-FRAME
 10
8.430106093849938
 20
6.813328481563619
 30
0.0
  0
VERTEX
  5
86F
  8
A-FRAME
 10
8.379834269625919
 20
6.826527568461106
 30
0.0
  0
VERTEX
  5
870
  8
A-FRAME
 10
8.330218581086507
 20
6.839766397464492
 30
0.0
  0
VERTEX
  5
871
  8
A-FRAME
 10
8.281260986974113
 20
6.853044445927484
 30
0.0
  0
VERTEX
  5
872
  8
A-FRAME
 10
8.232963420050739
 20
6.866361189655459
 30
0.0
  0
VERTEX
  5
873
  8
A-FRAME
 10
8.185327787021622
 20
6.879716102926178
 30
0.0
  0
VERTEX
  5
874
  8
A-FRAME
 10
8.138355968459992
 20
6.893108658510533
 30
0.0
  0
VERTEX
  5
875
  8
A-FRAME
 10
8.092049818732805
 20
6.90653832769336
 30
0.0
  0
VERTEX
  5
876
  8
A-FRAME
 10
8.046411165927582
 20
6.920004580294316
 30
0.0
  0
VERTEX
  5
877
  8
A-FRAME
 10
8.001441811780177
 20
6.933506884688807
 30
0.0
  0
VERTEX
  5
878
  8
A-FRAME
 10
7.9571435316037
 20
6.947044707828974
 30
0.0
  0
VERTEX
  5
879
  8
A-FRAME
 10
7.913518074218382
 20
6.960617515264738
 30
0.0
  0
VERTEX
  5
87A
  8
A-FRAME
 10
7.870567161882613
 20
6.974224771164907
 30
0.0
  0
VERTEX
  5
87B
  8
A-FRAME
 10
7.828292490224849
 20
6.987865938338313
 30
0.0
  0
VERTEX
  5
87C
  8
A-FRAME
 10
7.78669572817674
 20
7.001540478255034
 30
0.0
  0
VERTEX
  5
87D
  8
A-FRAME
 10
7.745778517907235
 20
7.015247851067651
 30
0.0
  0
VERTEX
  5
87E
  8
A-FRAME
 10
7.705542474757722
 20
7.028987515632554
 30
0.0
  0
VERTEX
  5
87F
  8
A-FRAME
 10
7.665989187178306
 20
7.042758929531312
 30
0.0
  0
VERTEX
  5
880
  8
A-FRAME
 10
7.627120216665043
 20
7.056561549092084
 30
0.0
  0
VERTEX
  5
881
  8
A-FRAME
 10
7.588937097698336
 20
7.070394829411086
 30
0.0
  0
VERTEX
  5
882
  8
A-FRAME
 10
7.551441337682343
 20
7.084258224374096
 30
0.0
  0
VERTEX
  5
883
  8
A-FRAME
 10
7.514634416885466
 20
7.09815118667802
 30
0.0
  0
VERTEX
  5
884
  8
A-FRAME
 10
7.478517788381916
 20
7.112073167852493
 30
0.0
  0
VERTEX
  5
885
  8
A-FRAME
 10
7.443092877994347
 20
7.126023618281538
 30
0.0
  0
VERTEX
  5
886
  8
A-FRAME
 10
7.408361084237557
 20
7.140001987225258
 30
0.0
  0
VERTEX
  5
887
  8
A-FRAME
 10
7.374323778263298
 20
7.154007722841584
 30
0.0
  0
VERTEX
  5
888
  8
A-FRAME
 10
7.340982303806131
 20
7.168040272208051
 30
0.0
  0
VERTEX
  5
889
  8
A-FRAME
 10
7.308337977130373
 20
7.182099081343642
 30
0.0
  0
VERTEX
  5
88A
  8
A-FRAME
 10
7.27639208697815
 20
7.196183595230643
 30
0.0
  0
VERTEX
  5
88B
  8
A-FRAME
 10
7.245145894518496
 20
7.210293257836561
 30
0.0
  0
VERTEX
  5
88C
  8
A-FRAME
 10
7.214600633297595
 20
7.224427512136081
 30
0.0
  0
VERTEX
  5
88D
  8
A-FRAME
 10
7.184757509190051
 20
7.238585800133038
 30
0.0
  0
VERTEX
  5
88E
  8
A-FRAME
 10
7.155617700351316
 20
7.252767562882472
 30
0.0
  0
VERTEX
  5
88F
  8
A-FRAME
 10
7.127182357171138
 20
7.266972240512665
 30
0.0
  0
VERTEX
  5
890
  8
A-FRAME
 10
7.099452602228178
 20
7.281199272247271
 30
0.0
  0
VERTEX
  5
891
  8
A-FRAME
 10
7.072429530245687
 20
7.295448096427439
 30
0.0
  0
VERTEX
  5
892
  8
A-FRAME
 10
7.046114208048268
 20
7.309718150533985
 30
0.0
  0
VERTEX
  5
893
  8
A-FRAME
 10
7.020507674519786
 20
7.32400887120961
 30
0.0
  0
VERTEX
  5
894
  8
A-FRAME
 10
6.995610940562338
 20
7.338319694281129
 30
0.0
  0
VERTEX
  5
895
  8
A-FRAME
 10
6.971424989056347
 20
7.352650054781751
 30
0.0
  0
VERTEX
  5
896
  8
A-FRAME
 10
6.947950774821772
 20
7.366999386973383
 30
0.0
  0
VERTEX
  5
897
  8
A-FRAME
 10
6.925189224580395
 20
7.381367124368959
 30
0.0
  0
VERTEX
  5
898
  8
A-FRAME
 10
6.903141236919241
 20
7.395752699754809
 30
0.0
  0
VERTEX
  5
899
  8
A-FRAME
 10
6.881807682255117
 20
7.410155545213046
 30
0.0
  0
VERTEX
  5
89A
  8
A-FRAME
 10
6.86118940280023
 20
7.424575092143996
 30
0.0
  0
VERTEX
  5
89B
  8
A-FRAME
 10
6.841287212528949
 20
7.439010771288636
 30
0.0
  0
VERTEX
  5
89C
  8
A-FRAME
 10
6.822101897145659
 20
7.453462012751068
 30
0.0
  0
VERTEX
  5
89D
  8
A-FRAME
 10
6.803634214053774
 20
7.467928246021028
 30
0.0
  0
VERTEX
  5
89E
  8
A-FRAME
 10
6.785884892325798
 20
7.482408899996395
 30
0.0
  0
VERTEX
  5
89F
  8
A-FRAME
 10
6.768854632674556
 20
7.496903403005746
 30
0.0
  0
VERTEX
  5
8A0
  8
A-FRAME
 10
6.752544107425544
 20
7.511411182830917
 30
0.0
  0
VERTEX
  5
8A1
  8
A-FRAME
 10
6.73695396049037
 20
7.525931666729605
 30
0.0
  0
VERTEX
  5
8A2
  8
A-FRAME
 10
6.722084807341334
 20
7.540464281457966
 30
0.0
  0
VERTEX
  5
8A3
  8
A-FRAME
 10
6.707937234987151
 20
7.55500845329326
 30
0.0
  0
VERTEX
  5
8A4
  8
A-FRAME
 10
6.694511801949746
 20
7.56956360805648
 30
0.0
  0
VERTEX
  5
8A5
  8
A-FRAME
 10
6.68180903824223
 20
7.584129171135043
 30
0.0
  0
VERTEX
  5
8A6
  8
A-FRAME
 10
6.669829445347967
 20
7.598704567505456
 30
0.0
  0
VERTEX
  5
8A7
  8
A-FRAME
 10
6.658573496200761
 20
7.613289221756027
 30
0.0
  0
VERTEX
  5
8A8
  8
A-FRAME
 10
6.648041635166225
 20
7.627882558109583
 30
0.0
  0
VERTEX
  5
8A9
  8
A-FRAME
 10
6.638234278024195
 20
7.642484000446188
 30
0.0
  0
VERTEX
  5
8AA
  8
A-FRAME
 10
6.629151811952328
 20
7.657092972325906
 30
0.0
  0
VERTEX
  5
8AB
  8
A-FRAME
 10
6.620794595510846
 20
7.671708897011534
 30
0.0
  0
VERTEX
  5
8AC
  8
A-FRAME
 10
6.613162958628331
 20
7.686331197491398
 30
0.0
  0
VERTEX
  5
8AD
  8
A-FRAME
 10
6.606257202588752
 20
7.700959296502111
 30
0.0
  0
VERTEX
  5
8AE
  8
A-FRAME
 10
6.600077600019533
 20
7.715592616551369
 30
0.0
  0
VERTEX
  5
8AF
  8
A-FRAME
 10
6.594624394880798
 20
7.730230579940757
 30
0.0
  0
VERTEX
  5
8B0
  8
A-FRAME
 10
6.589897802455747
 20
7.744872608788539
 30
0.0
  0
VERTEX
  5
8B1
  8
A-FRAME
 10
6.585898009342154
 20
7.759518125052493
 30
0.0
  0
VERTEX
  5
8B2
  8
A-FRAME
 10
6.582625173445011
 20
7.77416655055271
 30
0.0
  0
VERTEX
  5
8B3
  8
A-FRAME
 10
6.58007942397027
 20
7.788817306994437
 30
0.0
  0
VERTEX
  5
8B4
  8
A-FRAME
 10
6.578260861419752
 20
7.803469815990891
 30
0.0
  0
VERTEX
  5
8B5
  8
A-FRAME
 10
6.577169557587213
 20
7.818123499086109
 30
0.0
  0
SEQEND
  5
8B6
  8
A-FRAME
  0
POLYLINE
  5
44
  8
A-FRAME
 66
     1
 10
0.0
 20
0.0
 30
0.0
 70
     1
  0
VERTEX
  5
8B7
  8
A-FRAME
 10
85.65707823575032
 20
17.25000000000011
 30
0.0
 42
0.4941218116574374
  0
VERTEX
  5
8B8
  8
A-FRAME
 10
86.62218652435422
 20
18.51185108605534
 30
0.0
  0
VERTEX
  5
8B9
  8
A-FRAME
 10
85.19776791970342
 20
23.76185108605523
 30
0.0
 42
0.3385789461043632
  0
VERTEX
  5
8BA
  8
A-FRAME
 10
84.23265963109952
 20
24.5
 30
0.0
  0
VERTEX
  5
8BB
  8
A-FRAME
 10
82.26734036890046
 20
24.49999999999988
 30
0.0
 42
0.3385789461043632
  0
VERTEX
  5
8BC
  8
A-FRAME
 10
81.30223208029656
 20
23.76185108605511
 30
0.0
  0
VERTEX
  5
8BD
  8
A-FRAME
 10
79.87781347564578
 20
18.51185108605534
 30
0.0
 42
0.494121811657452
  0
VERTEX
  5
8BE
  8
A-FRAME
 10
80.84292176424968
 20
17.25000000000011
 30
0.0
  0
SEQEND
  5
8BF
  8
A-FRAME
  0
POLYLINE
  5
45
  8
A-FRAME
 66
     1
 10
0.0
 20
0.0
 30
0.0
 70
     1
  0
VERTEX
  5
8C0
  8
A-FRAME
 10
80.04869184230803
 20
10.37499999999977
 30
0.0
  0
VERTEX
  5
8C1
  8
A-FRAME
 10
80.75869184230802
 20
10.37499999999977
 30
0.0
  0
VERTEX
  5
8C2
  8
A-FRAME
 10
80.75869184230802
 20
14.62499999999977
 30
0.0
  0
VERTEX
  5
8C3
  8
A-FRAME
 10
80.04869184230803
 20
14.62499999999977
 30
0.0
  0
SEQEND
  5
8C4
  8
A-FRAME
  0
POLYLINE
  5
46
  8
A-FRAME
 66
     1
 10
0.0
 20
0.0
 30
0.0
 70
     1
  0
VERTEX
  5
8C5
  8
A-FRAME
 10
86.04869184230803
 20
10.37499999999977
 30
0.0
  0
VERTEX
  5
8C6
  8
A-FRAME
 10
86.75869184230804
 20
10.37499999999977
 30
0.0
  0
VERTEX
  5
8C7
  8
A-FRAME
 10
86.75869184230804
 20
14.62499999999977
 30
0.0
  0
VERTEX
  5
8C8
  8
A-FRAME
 10
86.04869184230803
 20
14.62499999999977
 30
0.0
  0
SEQEND
  5
8C9
  8
A-FRAME
  0
POLYLINE
  5
47
  8
A-FRAME
 66
     1
 10
0.0
 20
0.0
 30
0.0
 70
     1
  0
VERTEX
  5
8CA
  8
A-FRAME
 10
82.885
 20
33.25000000000011
 30
0.0
  0
VERTEX
  5
8CB
  8
A-FRAME
 10
82.895
 20
29.06250000000011
 30
0.0
  0
VERTEX
  5
8CC
  8
A-FRAME
 10
83.605
 20
29.06250000000011
 30
0.0
  0
VERTEX
  5
8CD
  8
A-FRAME
 10
83.615
 20
33.25000000000011
 30
0.0
  0
VERTEX
  5
8CE
  8
A-FRAME
 10
86.25
 20
33.25000000000011
 30
0.0
  0
VERTEX
  5
8CF
  8
A-FRAME
 10
95.0
 20
1.000000000000114
 30
0.0
  0
VERTEX
  5
8D0
  8
A-FRAME
 10
90.25
 20
1.000000000000114
 30
0.0
 42
0.4285714285714302
  0
VERTEX
  5
8D1
  8
A-FRAME
 10
76.25
 20
1.0
 30
0.0
  0
VERTEX
  5
8D2
  8
A-FRAME
 10
71.5
 20
1.000000000000114
 30
0.0
  0
VERTEX
  5
8D3
  8
A-FRAME
 10
80.25
 20
33.25000000000011
 30
0.0
  0
SEQEND
  5
8D4
  8
A-FRAME
  0
POLYLINE
  5
48
  8
A-FRAME
 66
     1
 10
0.0
 20
0.0
 30
0.0
 70
     1
  0
VERTEX
  5
8D5
  8
A-FRAME
 10
65.0429217642497
 20
17.0
 30
0.0
 42
0.4941218116574374
  0
VERTEX
  5
8D6
  8
A-FRAME
 10
64.07781347564577
 20
15.73814891394477
 30
0.0
  0
VERTEX
  5
8D7
  8
A-FRAME
 10
65.50223208029657
 20
10.48814891394488
 30
0.0
 42
0.3385789461043632
  0
VERTEX
  5
8D8
  8
A-FRAME
 10
66.46734036890047
 20
9.750000000000114
 30
0.0
  0
VERTEX
  5
8D9
  8
A-FRAME
 10
68.43265963109953
 20
9.750000000000234
 30
0.0
 42
0.3385789461043632
  0
VERTEX
  5
8DA
  8
A-FRAME
 10
69.39776791970343
 20
10.488148913945
 30
0.0
  0
VERTEX
  5
8DB
  8
A-FRAME
 10
70.82218652435422
 20
15.73814891394477
 30
0.0
 42
0.494121811657452
  0
VERTEX
  5
8DC
  8
A-FRAME
 10
69.85707823575031
 20
17.0
 30
0.0
  0
SEQEND
  5
8DD
  8
A-FRAME
  0
POLYLINE
  5
49
  8
A-FRAME
 66
     1
 10
0.0
 20
0.0
 30
0.0
 70
     1
  0
VERTEX
  5
8DE
  8
A-FRAME
 10
70.65130815769196
 20
23.87500000000034
 30
0.0
  0
VERTEX
  5
8DF
  8
A-FRAME
 10
69.94130815769196
 20
23.87500000000034
 30
0.0
  0
VERTEX
  5
8E0
  8
A-FRAME
 10
69.94130815769196
 20
19.62500000000034
 30
0.0
  0
VERTEX
  5
8E1
  8
A-FRAME
 10
70.65130815769196
 20
19.62500000000034
 30
0.0
  0
SEQEND
  5
8E2
  8
A-FRAME
  0
POLYLINE
  5
4A
  8
A-FRAME
 66
     1
 10
0.0
 20
0.0
 30
0.0
 70
     1
  0
VERTEX
  5
8E3
  8
A-FRAME
 10
64.65130815769197
 20
23.87500000000034
 30
0.0
  0
VERTEX
  5
8E4
  8
A-FRAME
 10
63.94130815769197
 20
23.87500000000034
 30
0.0
  0
VERTEX
  5
8E5
  8
A-FRAME
 10
63.94130815769197
 20
19.62500000000034
 30
0.0
  0
VERTEX
  5
8E6
  8
A-FRAME
 10
64.65130815769197
 20
19.62500000000034
 30
0.0
  0
SEQEND
  5
8E7
  8
A-FRAME
  0
POLYLINE
  5
4B
  8
A-FRAME
 66
     1
 10
0.0
 20
0.0
 30
0.0
 70
     1
  0
VERTEX
  5
8E8
  8
A-FRAME
 10
67.815
 20
1.0
 30
0.0
  0
VERTEX
  5
8E9
  8
A-FRAME
 10
67.80499999999999
 20
5.1875
 30
0.0
  0
VERTEX
  5
8EA
  8
A-FRAME
 10
67.095
 20
5.1875
 30
0.0
  0
VERTEX
  5
8EB
  8
A-FRAME
 10
67.085
 20
1.0
 30
0.0
  0
VERTEX
  5
8EC
  8
A-FRAME
 10
64.44999999999999
 20
1.0
 30
0.0
  0
VERTEX
  5
8ED
  8
A-FRAME
 10
55.7
 20
33.25
 30
0.0
  0
VERTEX
  5
8EE
  8
A-FRAME
 10
60.45
 20
33.25
 30
0.0
 42
0.4285714285714302
  0
VERTEX
  5
8EF
  8
A-FRAME
 10
74.45
 20
33.25000000000011
 30
0.0
  0
VERTEX
  5
8F0
  8
A-FRAME
 10
79.2
 20
33.25
 30
0.0
  0
VERTEX
  5
8F1
  8
A-FRAME
 10
70.45
 20
1.0
 30
0.0
  0
SEQEND
  5
8F2
  8
A-FRAME
  0
ENDSEC
  0
EOF
